<?xml version="1.0" encoding="UTF-8"?>
<svg id="Layer_1" data-name="Layer 1" xmlns="http://www.w3.org/2000/svg" viewBox="0 0 466 362">
  <defs>
    <style>
      .cls-1 {
        font-family: SourceHanSansSC-Medium-GBpc-EUC-H, 'Source Han Sans SC';
        font-size: 25px;
        font-weight: 500;
      }

      .cls-2 {
        fill: #b9efd8;
      }

      .cls-2, .cls-3, .cls-4, .cls-5, .cls-6, .cls-7, .cls-8 {
        fill-rule: evenodd;
      }

      .cls-2, .cls-3, .cls-9 {
        stroke-width: .75px;
      }

      .cls-2, .cls-8 {
        stroke: #44be8f;
      }

      .cls-3, .cls-9 {
        fill: #d6d6d6;
        stroke: #afafaf;
      }

      .cls-10 {
        stroke: #898989;
        stroke-miterlimit: 10;
        stroke-width: 2px;
      }

      .cls-10, .cls-11, .cls-4, .cls-12, .cls-5, .cls-13, .cls-14, .cls-15, .cls-16, .cls-17 {
        fill: none;
      }

      .cls-11 {
        stroke: #a06b00;
      }

      .cls-11, .cls-4, .cls-12, .cls-5, .cls-13, .cls-14, .cls-15, .cls-16, .cls-17 {
        stroke-linejoin: round;
      }

      .cls-11, .cls-4, .cls-12, .cls-5, .cls-13, .cls-15, .cls-16, .cls-17 {
        stroke-linecap: round;
      }

      .cls-11, .cls-14 {
        stroke-width: 10px;
      }

      .cls-4, .cls-12, .cls-13 {
        stroke-width: 6px;
      }

      .cls-4, .cls-13 {
        stroke: #bbb;
      }

      .cls-12 {
        stroke: #aad3df;
      }

      .cls-5, .cls-7, .cls-15 {
        stroke: #fff;
      }

      .cls-5, .cls-15 {
        stroke-width: 4.8px;
      }

      .cls-6, .cls-18 {
        fill: #cdebb0;
      }

      .cls-19 {
        fill: #85252d;
      }

      .cls-14 {
        stroke: #000;
      }

      .cls-7 {
        fill: #fff;
      }

      .cls-7, .cls-8 {
        stroke-width: .5px;
      }

      .cls-20 {
        font-family: SourceHanSansSC-Normal-GBpc-EUC-H, 'Source Han Sans SC';
        font-size: 4.31px;
      }

      .cls-8 {
        fill: #88e0be;
      }

      .cls-21 {
        fill: #eaeadf;
      }

      .cls-16 {
        stroke-width: 8.6px;
      }

      .cls-16, .cls-17 {
        stroke: #fcd6a4;
      }

      .cls-17 {
        stroke-width: 8.5px;
      }
    </style>
  </defs>
  <rect class="cls-21" width="468.88" height="362"/>
  <g id="background">
    <polyline class="cls-4" points="183 128.74 229.12 128.74 228.65 204.94"/>
    <path class="cls-4" d="M201.99,129.94c.03,8.58.06,17.16.09,25.73"/>
    <polyline class="cls-4" points="228.69 156.9 202.07 156.12 185.94 187.13 144.43 187.13 127.95 139.16 130.49 135.33"/>
    <path class="cls-4" d="M141.92,83.4c-5.8.8-11.61,1.6-17.41,2.4,1.12,17.42,2.24,34.83,3.37,52.25"/>
    <path class="cls-4" d="M274.31,218.77c9.9-.26,19.8-.52,29.69-.78.04,11.63.09,23.26.13,34.89"/>
    <path class="cls-4" d="M230.12,104.27c25.32-.12,50.64-.24,75.96-.36"/>
    <g>
      <path class="cls-13" d="M270.8,76.31l1.76,31.88-.2,72.96.2,46.26v26.8h39.9"/>
      <polyline class="cls-13" points="272.47 204.48 269.73 204.51 228.72 204.94 228.72 159.21 229.94 79.26"/>
      <polyline class="cls-4" points="228.72 188.17 186 187.13 164.93 254.12 217.2 275.83 231 219.99 272.56 218.82"/>
      <line class="cls-13" x1="272.56" y1="254.22" x2="224.15" y2="254.12"/>
      <polyline class="cls-4" points="228.76 156.9 202.14 156.12 186 187.13"/>
    </g>
    <path class="cls-6" d="M141.92,71.72l.98,58.98,17.8-.29-.88-56.92v-2.15l-17.9.39Z"/>
    <path class="cls-6" d="M160.41,97.15l.29,33.25,21.52,1.27.49-9.39,9.49-4.01.59-21.13h-32.47.1Z"/>
    <path class="cls-8" d="M232.69,190.84l.2,11.44h5.48c0-.1-.2-11.54-.2-11.54h-5.48v.1Z"/>
    <path class="cls-8" d="M256.21,190.65l.2,11.44h5.48c0-.1-.2-11.54-.2-11.54h-5.48v.1Z"/>
    <path class="cls-8" d="M238.36,190.84l.2,11.44h5.48c0-.1-.2-11.54-.2-11.54h-5.48v.1Z"/>
    <path class="cls-8" d="M244.31,190.84l.2,11.44h5.48c0-.1-.2-11.54-.2-11.54h-5.48v.1Z"/>
    <path class="cls-8" d="M250.27,190.84l.2,11.44h5.48l-.2-11.54h-5.48v.1Z"/>
    <path class="cls-8" d="M261.88,190.65l.2,11.44h5.48c0-.1-.2-11.54-.2-11.54h-5.48v.1Z"/>
    <path class="cls-12" d="M48.52,198.28l11.74,17.51,12.62,12.32,17.7,13.5,31.88,16.24,128.42,65.33,35.7,12.03"/>
    <path class="cls-12" d="M287.75,336.08l29.05,2.74"/>
    <path class="cls-12" d="M-404.4,26299.6l328.6-24.5,207.1,73.8,47.2,8.2,245.8,42.5,262-67.6,152.3-52.7,543.8,54.3,304.4,190.1,312.2,101.3,38.7,2.5,149.9,9.8,149.4-15.2,129.1-34.3,90.6-58.6,369.6-399.5,350.7-235.8,129.1-65.9,377.1-192.7,383.9-415,145.4-103.1,211.2-77.3,57.3,9.3,197.2,32,485.1,236.2,37.6,18.3,364.5,34.4,1231.1-392,928.5-350.8,62.4-6.4,804.2-83,144.8-55,663-251.7,460.3-319.9,251.9-297.6,457.5-187.1,933-29.3,155.6-81.6,437.2-229.4,498.1-67.6,192.2-29.3,176.5-90.9,46-64.2,22.5-83.8-9.4-60.7-16.6-107.4-120-311.3-98.6-255.7-19.2-49.8-58.7-152.3-39.8-548.5-4.3-58.9-37.9-173.8-13.5-62-28.4-130-29.6-135.8-93.1-427.2-3-10.2-50.5-172.1-24.7-84.2-123.3-420.2-14.2-48.5-38.8-258-98.2-653.2-267.9-633.8-188.3-363.1-55.8-107.6-64-123.5,52.6-239.1,35.5-161.4,101.4-202.9,241.9-483.8,17.6-286.1-184.9-312.5-119-155.3-68.1-67.8-270.7-322.6-68.4-230.3-11.7-134.9,137.3-286.3,185.3-191,246.1-253.6,46.9-112.3,81.5-195.2-110.9-418.8-164.3-408.7,8.6-238.5,41.3-167.1,211.3-268.5,366.3-194.1,73.9-39.2,765.9-189.3,211.8-129.6,83.1-50.9,124-210.7,140.7-239.1,304.2-518.3,88.7-189,33.5-170.4-36.3-197.6-106.1-196.9-127.3-205.4-200.4-214.6-312.1-262.8-48.1-63.8-69.6-114.4-24.1-93.7-9.6-83.2.8-41.1,5.5-34,6.5-33.1,7.8-21.2,7.1-15,78.5-99.9,100.6-54.1,251.4-136.2,316-100.5,319.7-35.4,24.3-2.7,149.2-1.5,744.3-7.3,440.8-193.6,30.2-13.3,699.9-567.8,313.8-263.1,152.5-127.9,145.2-163.6,273.2-449,17.6-449-53.7-229.8-25.5-109.1-264.1-616.2-17.7-339-13.1-250.8,17.6-699.9-1.8-23.6-33.4-438.5-281.7-517.6-307.8-218.3-701.5-228.2-663.8-336.8-96.9-49.1-757.8-515.5-61.9-79.1-176.2-248-38.5-82.9-50.1-263.5-.9-326.5,152.9-481.8,174.1-264.7,24.8-29.4,35.2-34.6,49.6-49,36.3-35.2,42.1-38.6,44.4-39.8,35.2-31.1,27.7-23.1,27.7-23.6,29.4-22.5,37.5-26.5,31.1-15.6,21.3-12.7,31.1-17.3,28.2-13.8,19-11.5,17.3-12.7,19-13.8,26.8-20.1,599.2-408"/>
    <path class="cls-13" d="M153.76,31.42l-.2,2.74-1.56,22.69,3.81,5.87,3.13,5.67v-1.37l.78,4.3v2.15l.68,23.67.29,33.25v6.55"/>
    <path class="cls-13" d="M152,55.72l-7.82,8.8-2.25,6.16.98,58.98v5.67"/>
    <path class="cls-13" d="M132.34,136.27l10.56.2,17.8.68,21.32-3.33v-1.96c.1,0,.68-9.39.68-9.39l9.49-4.01.88-21.13,1.08-22.59.2-7.82-35.5.29"/>
    <path class="cls-13" d="M160.41,97.15h32.67"/>
    <path class="cls-13" d="M194.15,74.55l27.87,2.64,7.53.68,41.08-1.47.68-4.99,30.81-.88"/>
    <path class="cls-13" d="M270.73,76.31l1.76,31.88-.2,72.96"/>
    <path class="cls-11" d="M313.67,27.9l-110.91,2.45-49,1.08-24.55.29h-2.84l-71.2,17.51"/>
    <path class="cls-11" d="M324.72,333.54l-2.64-159.62-.2-11.93v-2.35c.1,0-2.25-71.2-2.25-71.2l-1.08-53.11-.98-2.54"/>
    <path class="cls-11" d="M314.35,32.99l1.56,70.52,1.27,55.94v2.25l1.27,171.84"/>
    <path class="cls-11" d="M55.66,51.47l59.56-13.79,12.03-2.74h2.15l24.26-.88,24.06-.2,136.73-.98"/>
    <path class="cls-15" d="M153.76,31.42l-.2,2.74-1.56,22.69,3.81,5.87,3.13,5.67v-1.37l.78,4.3v2.15l.68,23.67.29,33.25v6.55"/>
    <path class="cls-15" d="M152,55.72l-7.82,8.8-2.25,6.16.98,58.98v5.67"/>
    <path class="cls-15" d="M132.34,136.27l10.56.2,17.8.68,21.32-3.33v-1.96c.1,0,.68-9.39.68-9.39l9.49-4.01.88-21.13,1.08-22.59.2-7.82-35.5.29"/>
    <path class="cls-15" d="M160.41,97.15h32.67"/>
    <path class="cls-15" d="M194.15,74.55l27.87,2.64,7.53.68,41.08-1.47.68-4.99,30.81-.88"/>
    <path class="cls-15" d="M270.8,76.31l1.76,31.88-.2,72.96.2,46.26v26.8h39.9"/>
    <path class="cls-16" d="M313.67,27.9l-110.91,2.45-49,1.08-24.55.29h-2.84l-71.2,17.51"/>
    <path class="cls-16" d="M324.72,333.54l-2.64-159.62-.2-11.93v-2.35c.1,0-2.25-71.2-2.25-71.2l-1.08-53.11-.98-2.54"/>
    <path class="cls-16" d="M314.35,32.99l1.56,70.52,1.27,55.94v2.25l1.27,171.84"/>
    <path class="cls-16" d="M55.66,51.47l59.56-13.79,12.03-2.74h2.15l24.26-.88,24.06-.2,136.73-.98"/>
    <path class="cls-14" d="M318.46,333.64l.39,21.81"/>
    <path class="cls-14" d="M325.21,355.25l-.39-21.71"/>
    <path class="cls-17" d="M318.46,333.64l.39,21.81"/>
    <path class="cls-17" d="M325.21,355.25l-.39-21.71"/>
    <polyline class="cls-15" points="272.4 204.48 269.66 204.51 228.65 204.94 228.65 159.21 229.88 79.26"/>
    <path class="cls-5" d="M228.72,188.17l-42.72-1.05-21.08,67,52.28,21.7,13.79-55.84,41.57-1.17c10.5-.28,21.01-.55,31.51-.83.04,11.63.09,23.26.13,34.89"/>
    <line class="cls-15" x1="224.08" y1="254.12" x2="272.49" y2="254.22"/>
    <polyline class="cls-5" points="228.69 156.9 202.07 156.12 185.94 187.13 144.43 187.13 127.95 139.16 130.49 135.33"/>
    <line class="cls-15" x1="183" y1="128.74" x2="228.33" y2="128.74"/>
    <path class="cls-2" d="M231.33,107.71l.2,79.42h39.2l-.2-79.52h-39.2v.1Z"/>
    <polygon class="cls-7" points="200.19 129.94 200.19 155.51 227.77 156.12 228.33 129.94 200.19 129.94"/>
    <line class="cls-15" x1="229.49" y1="104.27" x2="306.08" y2="103.91"/>
    <polygon class="cls-18" points="232.07 221.52 225.06 252.1 270.8 252.1 270.73 219.9 232.07 221.52"/>
    <path class="cls-3" d="M183,69.47v6.26h7.82v-6.26h-7.82Z"/>
    <polygon class="cls-3" points="276.31 223.02 276.31 230.1 299.34 230.1 299.34 222.18 276.31 223.02"/>
    <polyline class="cls-5" points="141.92 83.4 124.51 85.8 127.95 139.16"/>
    <path class="cls-10" d="M143.57,189.67l-8.7,46.72c9.22,5.03,18.44,10.07,27.65,15.1"/>
    <path class="cls-8" d="M199.39,49.98l.39,22.61h10.82c0-.19-.39-22.81-.39-22.81h-10.82v.19Z"/>
    <path class="cls-8" d="M210.6,49.98l.39,22.61h10.82c0-.19-.39-22.81-.39-22.81h-10.82v.19Z"/>
    <path class="cls-8" d="M222.36,49.98l.39,22.61h10.82c0-.19-.39-22.81-.39-22.81h-10.82v.19Z"/>
    <path class="cls-8" d="M234.14,49.98l.39,22.61h10.82l-.39-22.81h-10.82v.19Z"/>
  </g>
  <g id="dorm_7">
    <path class="cls-3" d="M275.82,111.23l-.2,7.14,31.3-.98v-7.14l-31.1,1.08v-.1Z"/>
    <text class="cls-20" transform="translate(282.77 115.93)"><tspan x="0" y="0">7号楼</tspan></text>
  </g>
  <g id="_1st_canteen" data-name="1st_canteen">
    <path class="cls-3" d="M280.22,73.87l.78,23.08,22.69-.49-.68-22.4-22.79-.29v.1Z"/>
    <text class="cls-20" transform="translate(286.07 84.38)"><tspan x="0" y="0">一食堂</tspan></text>
  </g>
  <g id="dorm_6">
    <path class="cls-3" d="M275.43,126.68l-.2,7.14,31.3-.98v-7.14c-.1,0-31.1,1.08-31.1,1.08v-.1Z"/>
    <text class="cls-20" transform="translate(282.98 130.99)"><tspan x="0" y="0">6号楼</tspan></text>
  </g>
  <g id="dorm_5">
    <path class="cls-3" d="M275.53,142.63l-.2,7.14,31.3-.98v-7.14l-31.1,1.08v-.1Z"/>
    <text class="cls-20" transform="translate(283.22 147.37)"><tspan x="0" y="0">5号楼</tspan></text>
  </g>
  <g id="dorm_4">
    <path class="cls-3" d="M274.84,157.88l-.2,7.14,31.3-.98v-7.14l-31.1,1.08v-.1Z"/>
    <text class="cls-20" transform="translate(282.98 162.34)"><tspan x="0" y="0">4号楼</tspan></text>
  </g>
  <g id="dorm_3">
    <path class="cls-3" d="M276.01,174.02l-.2,6.55c8.13.08,16.26.17,24.39.25.04,1.09.08,2.18.12,3.28,1.83.09,3.65.18,5.48.28,0-3.4-.01-6.8-.02-10.21-9.92-.05-19.84-.1-29.77-.15Z"/>
    <text class="cls-20" transform="translate(283.34 178.62)"><tspan x="0" y="0">3号楼</tspan></text>
  </g>
  <g id="dorm_2">
    <path class="cls-3" d="M300.32,184.1c-.03,2.25-.07,4.5-.1,6.75-7.89.13-15.79.25-23.68.38l-.39,6.26c7.97-.06,15.93-.12,23.9-.18,0,1.53.02,3.05.03,4.58,2.01-.05,4.02-.09,6.04-.14-.1-5.79-.2-11.58-.31-17.38-1.83-.09-3.65-.18-5.48-.28Z"/>
    <text class="cls-20" transform="translate(283.34 196.32)"><tspan x="0" y="0">2号楼</tspan></text>
  </g>
  <g id="dorm_1">
    <path class="cls-3" d="M300.07,201.89c.14,2.04.29,4.09.43,6.13l-23.67.98v6.36c9.89-.36,19.77-.72,29.66-1.09-.13-4.17-.26-8.35-.38-12.52-2.01.05-4.02.09-6.04.14Z"/>
    <text class="cls-20" transform="translate(283.34 213.43)"><tspan x="0" y="0">1号楼</tspan></text>
  </g>
  <g id="_1st_teaching_building" data-name="1st_teaching_building">
    <path class="cls-3" d="M180.85,219.79l-1.96,8.12,35.21,9.19-4.5,14.87,5.77,2.15,9.68-38.44-6.75-3.13-4.21,15.45-33.25-8.31v.1Z"/>
    <text class="cls-20" transform="translate(197.97 232.17)"><tspan x="0" y="0">第一教学楼</tspan></text>
  </g>
  <g id="_2nd_teaching_building" data-name="2nd_teaching_building">
    <path class="cls-3" d="M199.14,201.8l-1.47,5.48,11.93,3.13,1.47-5.48-11.93-3.13Z"/>
    <path class="cls-3" d="M187.31,206.69l-1.37,5.48,10.66,2.64,1.37-5.48-10.66-2.54v-.1Z"/>
    <path class="cls-3" d="M191.51,191.53l-1.37,5.09,9.68,2.54,1.37-5.09-9.68-2.54Z"/>
    <text class="cls-20" transform="translate(187.23 198.28)"><tspan x="0" y="0">第二教学楼</tspan></text>
  </g>
  <g id="microelectronic_A_building">
    <path class="cls-3" d="M214.3,203.95l-1.96,7.53,5.97,1.17,6.75,3.13,35.99-.49-.49-8.22-32.86.29-13.4-3.42h0Z"/>
    <text class="cls-20" transform="translate(228.76 212.56)"><tspan x="0" y="0">微电子A楼</tspan></text>
  </g>
  <g id="chemistry_building_" data-name="chemistry_building\">
    <path class="cls-3" d="M212.44,261.75l2.84-7.63-5.77-2.15-35.31-8.9.1.2-2.05,8.61,35.7,9.88c1.36.37,2.72.75,4.08,1.12"/>
    <text class="cls-20" transform="translate(187.44 254.12)"><tspan x="0" y="0">化学楼</tspan></text>
  </g>
  <g id="dorm_9">
    <path class="cls-3" d="M129.5,235.93l-3.72,6.26,25.43,14.87,3.72-6.26-25.43-14.87Z"/>
    <text class="cls-20" transform="translate(134.68 246.49)"><tspan x="0" y="0">9号楼</tspan></text>
  </g>
  <g id="wende_building">
    <path class="cls-3" d="M202.53,160.26l-.25,7.93,22.52.83.25-7.93-22.61-.84h.1Z"/>
    <text class="cls-20" transform="translate(206.75 165.8)"><tspan x="0" y="0">文德楼</tspan></text>
  </g>
  <g id="wenhui_building">
    <path class="cls-3" d="M201.49,118.57v7.43c.1,0,23.57-.29,23.57-.29v-7.43c-.1,0-23.57.29-23.57.29Z"/>
    <text class="cls-20" transform="translate(206.92 123.37)"><tspan x="0" y="0">文荟楼</tspan></text>
  </g>
  <g id="wenshang_building">
    <path class="cls-3" d="M223.88,106.44l.2-7.43h-22.2l-.1.1v8.51h22.16l-.06-1.17Z"/>
    <text class="cls-20" transform="translate(207.38 105.1)"><tspan x="0" y="0">文商楼</tspan></text>
  </g>
  <g id="wenda_building">
    <path class="cls-3" d="M203.05,81.2v6.46l18.88-.1v-1.96h2.05v-4.5l-20.93.2v-.1Z"/>
    <text class="cls-20" transform="translate(207.54 86.08)"><tspan x="0" y="0">文达楼</tspan></text>
  </g>
  <g id="GYM">
    <path class="cls-3" d="M233.36,85.31l-.29,15.36,16.72-.29c.05-5.08.1-10.15.15-15.23-5.53.05-11.05.11-16.58.16Z"/>
    <path class="cls-3" d="M253.22,96.89v3.77h14.15v-15.52h-14.15v8.82l11.09.11v2.88c-3.7-.02-7.39-.04-11.09-.06Z"/>
    <text class="cls-20" transform="translate(242.45 91.67)"><tspan x="0" y="0">体育馆</tspan></text>
  </g>
  <g id="jd_library">
    <path class="cls-3" d="M131.95,138.03l.39,7.92,4.99-.29v3.33c.1,0-2.05,0-2.05,0l.49,9.78h16.72v2.74h12.32v-2.05h3.03v-9.88h.88v2.74h15.16c0-.1.2,6.46.2,6.46l13.5.29.29-5.77-8.51-.29.29-15.26,8.12-.2v-6.36l-12.42-.2-.29,9.68-45.28,1.08-.29-4.01-7.63.39.1-.1Z"/>
    <text class="cls-20" transform="translate(151.31 150)"><tspan x="0" y="0">图书馆</tspan></text>
  </g>
  <g id="_2nd_canteen" data-name="2nd_canteen">
    <polygon class="cls-3" points="166.01 259.28 163.27 264.98 210.76 288 213.69 281.46 166.01 259.28"/>
    <text class="cls-20" transform="translate(183 275.83)"><tspan x="0" y="0">二食堂</tspan></text>
  </g>
  <g id="dorm_F">
    <path class="cls-3" d="M112.68,165.51l1.37,6.55,15.65-3.23-1.37-6.55-15.65,3.23h0Z"/>
    <text class="cls-20" transform="translate(117.86 169.02)"><tspan x="0" y="0">F 楼</tspan></text>
  </g>
  <g id="dorm_E">
    <path class="cls-3" d="M109.36,149.96l1.37,6.55,15.65-3.23-1.37-6.55-15.65,3.23h0Z"/>
    <text class="cls-20" transform="translate(115.38 153.4)"><tspan x="0" y="0">E 楼</tspan></text>
  </g>
  <g id="dorm_D">
    <path class="cls-3" d="M107.5,134.7l1.37,6.55,15.65-3.23-1.37-6.55s-15.65,3.23-15.65,3.23Z"/>
    <text class="cls-20" transform="translate(113.87 138.05)"><tspan x="0" y="0">D 楼</tspan></text>
  </g>
  <g id="dorm_C">
    <path class="cls-3" d="M104.17,119.74l1.37,6.55,15.65-3.23-1.37-6.55-15.65,3.23Z"/>
    <text class="cls-20" transform="translate(109.35 122.13)"><tspan x="0" y="0">C 楼</tspan></text>
  </g>
  <g id="dorm_B">
    <path class="cls-3" d="M101.34,105.46l1.27,6.06,20.25-4.3-1.27-6.06-20.25,4.3Z"/>
    <text class="cls-20" transform="translate(107.5 107.61)"><tspan x="0" y="0">B 楼</tspan></text>
  </g>
  <g id="dorm_A">
    <path class="cls-3" d="M98.01,90.5l.98,4.3,21.71-4.69-.98-4.3-21.71,4.69Z"/>
    <text class="cls-20" transform="translate(107.5 91.67)"><tspan x="0" y="0">A 楼</tspan></text>
  </g>
  <g id="dorm_8">
    <polygon class="cls-9" points="104.17 73.06 104.17 80.67 136.84 78.55 136.84 71.33 104.17 73.06"/>
    <text class="cls-20" transform="translate(117.15 77.88)"><tspan x="0" y="0">8号楼</tspan></text>
  </g>
  <g id="admin_building">
    <path class="cls-3" d="M171.56,69.86v13.11c.1,0-5.48,0-5.48,0v8.7h8.9l-.2-18.68h2.93v2.35h4.6v-5.67h-10.66l-.1.2Z"/>
    <text class="cls-20" transform="translate(176.74 84.38)"><tspan x="0" y="0">行政楼</tspan></text>
  </g>
  <g id="xingjian_center">
    <rect class="cls-9" x="212.31" y="107.61" width="12.75" height="10.66"/>
    <text class="cls-20" transform="translate(203.05 114.41)"><tspan x="0" y="0">行健文体中心</tspan></text>
  </g>
  <text class="cls-1" transform="translate(30.33 336.12)"><tspan class="cls-19" x="0" y="0">嘉定校区</tspan><tspan x="100" y="0">地图</tspan></text>
</svg>