<?xml version="1.0" encoding="UTF-8"?>
<svg id="Layer_1" data-name="Layer 1" xmlns="http://www.w3.org/2000/svg" viewBox="0 0 856 842">
  <defs>
    <style>
      .cls-1 {
        stroke: #8f8f8f;
      }

      .cls-1, .cls-2, .cls-3, .cls-4, .cls-5, .cls-6, .cls-7, .cls-8, .cls-9, .cls-10, .cls-11, .cls-12, .cls-13, .cls-14, .cls-15, .cls-16, .cls-17, .cls-18, .cls-19, .cls-20, .cls-21, .cls-22, .cls-23, .cls-24, .cls-25 {
        fill: none;
      }

      .cls-1, .cls-2, .cls-3, .cls-4, .cls-6, .cls-7, .cls-8, .cls-9, .cls-10, .cls-11, .cls-12, .cls-13, .cls-14, .cls-15, .cls-16, .cls-17, .cls-19, .cls-20, .cls-22, .cls-24, .cls-25 {
        stroke-linejoin: round;
      }

      .cls-1, .cls-2, .cls-3, .cls-4, .cls-6, .cls-7, .cls-8, .cls-9, .cls-13, .cls-14, .cls-15, .cls-16, .cls-17, .cls-19, .cls-20, .cls-22, .cls-25 {
        stroke-linecap: round;
      }

      .cls-1, .cls-2, .cls-12 {
        stroke-width: 10px;
      }

      .cls-26 {
        fill: #b9efd8;
      }

      .cls-26, .cls-27, .cls-28, .cls-29, .cls-30, .cls-31, .cls-32, .cls-33, .cls-34, .cls-35, .cls-36, .cls-37, .cls-38, .cls-39, .cls-40 {
        fill-rule: evenodd;
      }

      .cls-26, .cls-28, .cls-35 {
        stroke-width: .75px;
      }

      .cls-26, .cls-38 {
        stroke: #44be8f;
      }

      .cls-27 {
        fill: #def6c0;
      }

      .cls-28 {
        fill: #d6d6d6;
        stroke: #afafaf;
      }

      .cls-41, .cls-30, .cls-34, .cls-38, .cls-20, .cls-42, .cls-39 {
        stroke-width: .5px;
      }

      .cls-41, .cls-42, .cls-39 {
        fill: #fff;
        stroke-miterlimit: 10;
      }

      .cls-41, .cls-39 {
        stroke: #d3d3d3;
      }

      .cls-2, .cls-20 {
        stroke: #a06b00;
      }

      .cls-29 {
        fill: #eee;
        stroke: #a07070;
      }

      .cls-29, .cls-37 {
        stroke-width: .3px;
      }

      .cls-30 {
        fill: #eef0d5;
        stroke: #c7c9ae;
      }

      .cls-31 {
        fill: #dddde8;
      }

      .cls-3, .cls-9, .cls-10, .cls-22 {
        stroke-width: 6px;
      }

      .cls-3, .cls-23 {
        stroke: #aad3df;
      }

      .cls-32 {
        fill: #add19e;
      }

      .cls-33 {
        fill: #aad3df;
      }

      .cls-4 {
        stroke-width: 2.3px;
      }

      .cls-4, .cls-5, .cls-13, .cls-14, .cls-15, .cls-16, .cls-17, .cls-24 {
        stroke: #fff;
      }

      .cls-5, .cls-8 {
        stroke-width: 3.5px;
      }

      .cls-6 {
        stroke-dasharray: 1 4 2 3;
      }

      .cls-6, .cls-19 {
        stroke: salmon;
        stroke-width: 1.3px;
      }

      .cls-7 {
        stroke: rgba(255, 255, 255, .4);
      }

      .cls-7, .cls-17, .cls-24 {
        stroke-width: 3.3px;
      }

      .cls-34 {
        fill: #e2cbde;
        stroke: #bba4b7;
      }

      .cls-43 {
        letter-spacing: 0em;
      }

      .cls-35 {
        fill: #d9d0c9;
        stroke: #b9a99c;
      }

      .cls-44 {
        fill: #cd6c25;
      }

      .cls-8, .cls-9 {
        stroke: #bbb;
      }

      .cls-36 {
        fill: #cdebb0;
      }

      .cls-10, .cls-11, .cls-12 {
        stroke: #000;
      }

      .cls-11 {
        stroke-width: 4.3px;
      }

      .cls-45 {
        font-size: 6px;
      }

      .cls-45, .cls-46 {
        font-family: SourceHanSansSC-Normal-GBpc-EUC-H, 'Source Han Sans SC';
      }

      .cls-13 {
        stroke-width: 8.8px;
      }

      .cls-14 {
        stroke-width: 8.5px;
      }

      .cls-46 {
        font-size: 8px;
      }

      .cls-47 {
        letter-spacing: 0em;
      }

      .cls-15 {
        stroke-width: 4.5px;
      }

      .cls-16 {
        stroke-width: 4.8px;
      }

      .cls-37 {
        fill: #dffce2;
        stroke: #3ced4a;
      }

      .cls-38 {
        fill: #88e0be;
      }

      .cls-18 {
        stroke-dasharray: 4 2;
        stroke-width: 5.3px;
      }

      .cls-18, .cls-21 {
        stroke: gray;
      }

      .cls-48 {
        fill: #eaeadf;
      }

      .cls-49 {
        letter-spacing: -.16em;
      }

      .cls-50 {
        letter-spacing: -.02em;
      }

      .cls-51 {
        letter-spacing: -.04em;
      }

      .cls-19 {
        stroke-dasharray: 3 3.5;
      }

      .cls-52 {
        letter-spacing: -.01em;
      }

      .cls-42 {
        stroke: #b7b7b7;
      }

      .cls-22 {
        stroke: #999;
      }

      .cls-23 {
        stroke-width: 3px;
      }

      .cls-40 {
        fill: #c8facc;
      }

      .cls-53 {
        font-family: SourceHanSansSC-Medium-GBpc-EUC-H, 'Source Han Sans SC';
        font-size: 39px;
        font-weight: 500;
      }

      .cls-25 {
        stroke: #fcd6a4;
        stroke-width: 8.6px;
      }
    </style>
  </defs>
  <rect class="cls-48" width="856" height="842"/>
  <g id="background">
    <path class="cls-36" d="M147.67,574.5l59.41,87.65,6.85,6.54,9.51,4.83,13.39,3.27,19.32-.94,30.84-2.96,13.7,2.03,16.98,5.61,16.2,9.81,21.03,17.92,16.04,10.12,16.35,3.9,2.5-5.76.78-13.86-32.55-52.03-.96-11.46,1.73-12.07-12.48-4.24-28.52-11.42-22.13-15.37-13.73-10.18-11.63-10.84-9.77-13.96-112.87,13.41Z"/>
    <path class="cls-32" d="M219.46,688.55l4.51,83.64,206.16-12.85,10.9-6.23,34.2-1.87,7.24,3.19,28.43-1.33,14.72-10.12-.62-2.42-2.26-.23-1.48-2.19.54-3.11,2.42-1.24-1.87-3.82-16.44,6.23-.07,1.71,2.8,1.48-.62,2.26-3.74-.7-6.16-3.04-23.83,3.81-6-2.88-11.99.47-6.16,1.87-4.91-1.94-7.63-1.56-11.14,5.14-8.33,3.34-3.66,1.09-25.54-2.03-4.83,2.03-5.38-.54-8.25,2.25-8.88-2.1-6.16-3.82-.54-6.77-4.98-7.87-13.63,1.48-11.6-5.3-.78-20.58,8.88,5.63,5.76-.54-12.23-11.22-13.94-9.58-10.98-2.88-15.19-1.57-66.74,4.68Z"/>
    <path class="cls-36" d="M624.67,169.79l8.03,114.79,9.19-.62.08-2.41,12.54-.46.55,3.81,49.45-2.73,2.8-2.57.93-3.9-4.05-56.07-10.28.24-.7-17.21-35.75,1.56-2.34-37.54-30.45,3.11Z"/>
    <path class="cls-32" d="M594.22,529.6l19.55,35.51-9.5,6.85,2.41,2.65,8.33-4.44,9.04,5.37,3.11,3.82,9.89-3.35-18.38-265.11-5.22-4.44-6.85.47,1.87,69.31,2.49,4.44.23,13.55-1.95,6,8.8,107.79-6.15,10.28-17.68,11.3Z"/>
    <path class="cls-36" d="M276.71,503.97l7.94,13.87,2.96,3.19,4.75,3.12,8.8,4.51,5.06,3.27,4.2,5.38.54,10.9-.62,7.87.24,5.52,1.87,8.57,7.17,8.49,12.62,10.12,5.99-2.5,5.45-3.58,3.74-4.9-3.74-4.13-4.59-13.16,2.18-1.08,10.98,4.12,5.61-3.11,5.37-9.19,10.98-5.45,3.19-7.95-1.08-4.44-1.33-10.28-4.05-.86-3.66-4.44-.31-6.62-4.91-3.82-5.06,7.32-3.94-3.27-3.89,6.42-8.57-7.87-4.4-7.98-4.9-5.76-8.26.31-4.51-4.05-6.31,3.04,1.02,5.92-2.65,2.17-5.84.16-3.51,4.6-6.7,2.88-2.57,4.75h-6.62l-1.24-1.56-.62-2.81,3.89-4.6-.62-3.66-1.87-2.45-3.98-3.47-4.2,6.47Z"/>
    <path class="cls-32" d="M527.88,331.77l13.93,6.32,1.49,47.52,63.4-8.03-3.52-56.87-62.15,3.27-.47-8.25-5.6.23-5.27,11.76-1.81,4.04Z"/>
    <path class="cls-37" d="M40.67,230.77l4.32,67.3,21.91-1.41h4.12s21.91-1.4,21.91-1.4l-4.32-67.3-21.91,1.41h-4.12s-21.91,1.4-21.91,1.4Z"/>
    <path class="cls-37" d="M473.95,191.39l3.77,58.15,53.84-3.49-3.77-58.15-53.84,3.49Z"/>
    <path class="cls-26" d="M554.46,205.93l3.78,57.01.58,2.77.93,2.68,12.12-.2,16.43-1.01,13.01-1.48.41-3.1.05-3.02-3.66-56.34-.53-2-.71-1.94-14.61-.11-12.62.62-14.6,1.86-.4,2.06-.19,2.19Z"/>
    <path class="cls-32" d="M573.74,748.44l57.09-1.48.39-15.58,8.49-6.54,5.6-.54-7.4-137.46-4.83-4.44-10.75.86-.16,11.52,1.71,4.05,3.43,44.24-3.58,3.66-5.99,2.34.85,5.06-.16,7.39,6.7,3.66,1.09,1.4-3.43,3.74,18.31,29.67-13.63,10.13-1.01,3.43-9.04,9.65-4.82,10.28-5.54,4.6-10.35,3.04-11.61.54-6.47-3.43-3.73,1.79-1.17,8.41Z"/>
    <path class="cls-26" d="M351.16,222.13l4.16,58.92,1.03,3.25,5.79-.32,10.93-.62,8.18-.47,11.21-.63,5.62-.32.66-3.38-3.7-59.46-.97-3.32-.37-.78-41.74,2.78-.26.8-.54,3.56Z"/>
    <path class="cls-40" d="M211.65,349.29l28.15,31.61,14.15-18.36,25.93-22.14,20.57-11.27-8.72-12.76-20.74,6.17-32.1,2.88-20.33,5.27-6.91,18.6Z"/>
    <path class="cls-36" d="M323.9,704.03l.78,20.58,11.6,5.3,13.63-1.48,4.98,7.87.54,6.77,6.16,3.82,8.88,2.1,8.25-2.25,5.38.54,4.83-2.03,25.54,2.03,3.66-1.09,8.33-3.34,11.14-5.14,7.63,1.56,4.91,1.94,6.16-1.87,11.99-.47,6,2.88,23.83-3.81,6.16,3.04,3.74.7.62-2.26-2.8-1.48.07-1.71,16.44-6.23-4.6-5.45-120.25,10.36h-8.96l-7.47-.86-16.36-5.06-26.16-19.86-5.76.54-8.88-5.63Z"/>
    <path class="cls-32" d="M259.61,663.75l20.83,4.98,5.92-2.46,16.35,2.34,4.21-2.65,6.46-2.33,11.37-.39,4.28-1.95,2.49-2.88,3.12-.86,6.54,2.73,2.73,3.58,1.63,12.85,9.42,11.76,3.19,1.09,2.95,7.63,4.21,11.76,7.55,5.52,7.87,2.65,5.69-4.68.7-7.71-4.83-6.85-9.11-8.49-.08-5.99-7.25-17.06-6.54-8.64-4.28-3.19-1.56-13.01-2.65-5.84-2.42-1.24-4.51,1.09-9.66,9.97-4.52,1.4-4.06-1.48-17.68,4.13-6.77,4.51-3.5,1.56-1.71,3.58-9.11,1.17-1.48,2.41-1.87-2.18-10.75-1.41-9.27-3.27-2.8,1.83-1.13,6Z"/>
    <path class="cls-26" d="M64.91,570.48l2.84,42.75,56.43-3.75-2.84-42.75-56.43,3.75Z"/>
    <path class="cls-26" d="M543.91,189.12l5.86,92.58,8.9-.35,2.84,2.57,3.16,2.19,3.42,1.76,3.62,1.29,3.76.82,3.83.31,3.84-.19,4.22-.8,4.07-1.41,3.82-2,3.48-2.53,3.08-3.02,2.6-3.44,2.07-3.78,1.5-4.03.89-4.22-4.21-65.85-1.29-4.52-2.02-3.86-2.05-3.15-2.44-2.85-2.81-2.5-3.11-2.11-3.36-1.68-3.55-1.22-3.86-.76-3.92-.21-3.91.32-3.83.87-3.67,1.38-3.44,1.89-3.15,2.35-2.79,2.75-2.38,3.12-9.15.25ZM554.46,205.93l.19-2.19.4-2.06,1.31-3.39,1.85-3.14,2.33-2.79,2.76-2.37,3.11-1.9,3.37-1.36,3.55-.79,3.63-.21,3.62.39,3.5.97,3.3,1.53,3.01,2.05,2.63,2.51,2.19,2.91,1.68,3.22.71,1.94.53,2,3.66,56.34-.05,3.02-.41,3.1-1.25,3.4-1.8,3.15-2.29,2.81-2.72,2.4-3.07,1.92-3.35,1.39-3.53.83-3.63.23-3.61-.36-3.5-.95-3.3-1.51-3-2.03-2.63-2.49-2.19-2.89-1.68-3.21-.93-2.68-.58-2.77-3.78-57.01Z"/>
    <path class="cls-37" d="M406.58,195.75l3.78,58.15,37.85-2.45-3.78-58.16-37.85,2.46Z"/>
    <path class="cls-32" d="M274.68,481.16l2.76.67,2.61,1.01,2.37,1.55,1.57,2.1.7,2.77-.31,3.5-1.29,2.81-2.18,1.94,3.98,3.47,1.87,2.45.62,3.66-3.89,4.6.62,2.81,1.24,1.56h6.62l2.57-4.75,6.7-2.88,3.51-4.6,5.84-.16,2.65-2.17-1.02-5.92,6.31-3.04,4.51,4.05,8.26-.31,4.9,5.76,4.4,7.98,8.57,7.87,3.89-6.42-2.18-1.21-1.05,1.48-2.26-2.25-1.14-2.84-.46-3.98.32-4.01.7-3.86,2.34-6.07,7.2,2.17-12.27-19.51-16.43.99-11.8,2.64-39,1.67-1.03-1.05.98,1.09-2.3,4.44Z"/>
    <path class="cls-26" d="M343.18,205.85l5.96,91,7.28-.54,2.78,2.45,3.07,2.07,3.3,1.65,3.49,1.22,3.62.75,3.68.28,3.69-.19,3.72-.7,3.59-1.17,3.4-1.64,3.16-2.07,2.86-2.47,2.51-2.82,7.86-.2-6.11-90.89-7.63.35-2.76-2.49-3.06-2.11-3.31-1.68-3.5-1.24-3.63-.78-3.71-.3-3.71.19-3.7.69-3.58,1.17-3.39,1.64-3.15,2.07-2.84,2.47-2.49,2.83-7.4.46ZM351.16,222.13l.54-3.56.26-.8.85-2.62,1.65-3.19,2.14-2.89,2.59-2.51,2.95-2.05,3.25-1.56,3.46-1.01,3.57-.43,3.45.13,3.39.67,3.25,1.18,3.03,1.67,2.73,2.13,2.37,2.52,1.95,2.86,1.11,2.34.37.78.97,3.32,3.7,59.46-.66,3.38-1.17,3.24-1.67,3-2.11,2.72-2.51,2.35-2.84,1.94-3.11,1.47-3.3.97-3.41.44-3.41-.09-3.35-.61-3.22-1.12-3.01-1.61-2.72-2.05-2.38-2.44-1.97-2.79-1.52-3.05-1.03-3.25-4.16-58.92Z"/>
    <path class="cls-32" d="M332.23,588.79l7.32,2.65,7.79-.78,20.94-10.28,12.07-2.96,9.43-21.18,9.19-11.37-29.6-45.64-1.83-.16-5.49,8.33,4.91,3.82.31,6.62,3.66,4.44,4.05.86,1.33,10.28,1.08,4.44-3.19,7.95-10.98,5.45-5.37,9.19-5.61,3.11-10.98-4.12-2.18,1.08,4.59,13.16,3.74,4.13-3.74,4.9-5.45,3.58-5.99,2.5Z"/>
    <path class="cls-37" d="M136.95,637.96l1.3,20.51,1.31,20.59,11.38-.73,10.52-.67,10.35-.66,10.38-.66,7.17-.46-.88-13.91-7.17.46-.42-6.68-3.25.21-.88-13.9-7.13.46-.43-6.61-10.35.65-10.52.67-11.38.72Z"/>
    <path class="cls-37" d="M63.92,534.45l1.38,18.5,41.17-3.06-.95-12.74-.81-10.83-10.16.76-1.49-19.97-1.52-20.32-10.91.81-8.54.64.8,10.71.73,9.82.73,9.78.74,9.97.38,5.06-11.55.87Z"/>
    <path class="cls-36" d="M435.81,512.85l1.52,2.49,12.81-.27,1.17,13.24,30.3-5.3,34.32-20.75-1.03-2.1,11.18-4.09,10.87,5.57,2.49-.97-12.58-12.15-8.56,1.21-9.11,7.24-8.1,1.17-9.66-3.35-11.84-1.01-14.49,4.75-4.91,7.12-7.09,3.39-9.04-1.71-1.05-5.57-2.61-2.69-4.06-.73.98,4.16.16,5.11-1.68,5.25Z"/>
    <path class="cls-32" d="M555.97,117.47l2.57,27.09,46.2.57-2.85-31.37-45.91,3.71Z"/>
    <path class="cls-32" d="M317.39,330.6l2.55,3.77,15.88-3.03,7.74-1.48,3.18-3.64,12.01-.14,3.05,6.33,1.82,2.46,6.28,2,6.69.36,6.6-4.23,12.34-2.73,8.33-.64,5.91,1.87,6.2,5.95,6.54-4.6,6.85-2.26,2.81-2.26-7.69-10.5-8.92-1.77-42.91,3.09-37.4,6.1-17.84,5.32Z"/>
    <path class="cls-38" d="M288.2,189.56l1.48,23.73,48.25-3.01-1.48-23.73-48.25,3.01Z"/>
    <path class="cls-32" d="M432.15,490.77l1.64,2.65,2.57,4.91,4.06.73,2.61,2.69,1.05,5.57,9.04,1.71,7.09-3.39,4.91-7.12,14.49-4.75,11.84,1.01,9.66,3.35,8.1-1.17,9.11-7.24,8.56-1.21,12.58,12.15,2.3-.59-10.67-16.67-98.91,7.36Z"/>
    <path class="cls-30" d="M173.06,736.77l1.99,28.4,46.57-3.27-1.44-20.53-31.98,2.25-.55-7.87-14.59,1.03Z"/>
    <path class="cls-32" d="M447.58,715.5l3.81,5.45,19.7-2.03.94-6.85,10.51-.47.69-1.08.06-1.83-.59-2.34-.82-1.4-1.6-2.57-.35-3,.39-3.97,1.13-3.97,3.08-5.88,5.28-7.17-9.14-13.75-4.33,4.06-3.91,4.47-3.44,4.82-2.95,5.15-2.43,5.41-1.89,5.7-1.32,5.86-.72,5.96-.11,6.01-9.43-.63-2.18,1.41-.39,2.64Z"/>
    <path class="cls-30" d="M176.11,704.2l1.73,25.81,36.81-2.47-1.73-25.81-36.81,2.47Z"/>
    <path class="cls-32" d="M502.56,661.61l5.37,7.94,4.44-1.24,4.56-.69,4.61-.12,4.59.44,4.49,1,4.34,1.54,4.34,2.19,4.03,2.73,3.63,3.23,3.19,3.67,2.68,4.05,2.14,4.36,1.56,4.61,9.89-6.46-1.72-4.65-2.21-4.42-2.68-4.16-3.11-3.85-3.51-3.48-3.87-3.09-4.18-2.64-4.44-2.18-4.65-1.68-4.78-1.16-4.87-.64-4.92-.11-4.9.42-4.82.95-4.69,1.46-4.51,1.96Z"/>
    <path class="cls-36" d="M507.93,669.55l10.36,15.81,3.22-.63,3.28-.22,3.28.2,3.22.63,3.12,1.03,3.06,1.49,2.84,1.87,2.57,2.24,2.24,2.55,1.89,2.83,1.49,3.06,8.03-5.06-1.56-4.61-2.14-4.36-2.68-4.05-3.19-3.67-3.63-3.23-4.03-2.73-4.34-2.19-4.34-1.54-4.49-1-4.59-.44-4.61.12-4.56.69-4.44,1.24Z"/>
    <path class="cls-36" d="M482.47,475.24l.62,6.23,39.09-2.57,5.84-5.38-10.28-16.82-4.75-.7-27.26,18.77-3.27.47Z"/>
    <path class="cls-27" d="M71.57,662.46l.39,14.64,6.69-.32-.24-3.38,22.75-1.63,27.49-1.84-.78-10.9-56.3,3.42Z"/>
    <path class="cls-29" d="M541.43,312.94l.61,10.9,58.57-3.28-.61-10.9-58.57,3.28Z"/>
    <path class="cls-32" d="M198.05,629.52l3.81,8.8,4.91-1.24,6.54-.78,2.34-5.61,4.51-2.34,4.44.55,10.12,2.41,10.52,3.66,8.41,5.38,2.03-2.41-1.71-4.6-4.52-14.25-17.53.39-11.25,2.18-7.43,1.96-6.71,3.99-5.49-1.36-3,3.27Z"/>
    <path class="cls-37" d="M450.12,197.68l1.84,28.24,20.67-1.35-1.84-28.24-20.67,1.35Z"/>
    <path class="cls-36" d="M138.89,326.1l2.33,24.37.65,1.92,1.09,1.7,1.46,1.38,1.76.99,1.95.54,2.02.05,1.95-.43,1.79-.89,1.53-1.28,1.18-1.61.76-1.85.3-1.97-2.14-24.26-.7-1.79-1.08-1.59-1.41-1.31-1.67-.95-1.84-.55-1.92-.12-1.97.33-1.85.79-1.61,1.2-1.28,1.54-.88,1.8-.43,1.96Z"/>
    <path class="cls-29" d="M91.07,259.67l1.6,25.31,10.48-.54,11.66-11.81-.58-14.1-23.15,1.14Z"/>
    <path class="cls-32" d="M536.44,118.91l1.08,30.84,14.76-4.34-1.08-27.57-14.76,1.08Z"/>
    <path class="cls-36" d="M65.68,569.69l56.43-3.75-14.1-7.53-8.96-3.12-8.02.47-8.33,2.72-17.02,11.2Z"/>
    <path class="cls-36" d="M479.94,699.38l.35,3,1.6,2.57.82,1.4.59,2.34-.06,1.83,9.83-.08.9-3.76,1.35-3.63,1.43-2.84,1.71-2.68,1.96-2.5-10.61-16.63-5.28,7.17-3.08,5.88-1.13,3.97-.39,3.97Z"/>
    <path class="cls-32" d="M703.95,309.75l2.96,45.55,10.55-.6-1.47-5-2.26-4.05-2.46-2.57-.43-2.03,1.56-5.34v-3l-.66-4.67-1.55-3.04-3.67-3.19v-1.24l3.94-3.43,3.23-3.46,6.13-7.63-.19-3.11-8.31.31-2.41.74-1.95,1.4-1.4,1.87-1.6,2.5Z"/>
    <path class="cls-33" d="M421.4,208.14l2.1,30.47,12.8-.88-2.11-30.47-12.8.88Z"/>
    <path class="cls-36" d="M129.93,564.49l1.63,37.33,19.36-.67-20.99-36.66Z"/>
    <path class="cls-36" d="M706.52,321.81l3.67,3.19,1.55,3.04.66,4.67v3l-1.56,5.34.43,2.03,2.46,2.57,2.26,4.05,1.47,5,3.33-32.76-.97-15.89-6.13,7.63-3.23,3.46-3.94,3.43v1.24Z"/>
    <path class="cls-36" d="M457.94,255.71l1.12,18.09,17.46-1.08-1.12-18.1-17.46,1.09Z"/>
    <path class="cls-34" d="M58.9,505.52l1.27,26.09,5.88-.29.13,2.63,4.02-.19-1.59-32.72-4.3.21.19,3.99-5.6.27Z"/>
    <path class="cls-32" d="M276.86,620.64l.39,5.14,1.17,3.12,1.17.7,1.95-.63.31,1.09-.95,1.17.06,1.13,1.83,2.22,6.23,1.33,1.79-1.17.62-5.38-.7-4.13-2.49-1.17.39-2.1,3.34-3.35.47-7.01-4.36-2.03-4.9,1.17-2.57,3.19-.54,3.43-3.19,3.27Z"/>
    <path class="cls-26" d="M40.67,230.77l1.44,22.43,10.96-.7-1.44-22.43-10.96.7Z"/>
    <path class="cls-32" d="M250.96,580.49l.08,4.21,1.05,2.02,2.72,3,2.34,1.67,4.17.19,2.18-1.13,1.75-2.65.24-3.23-.74-2.88-1.87-2.49-1.99-1.01-3.68-1.52-2.16-.07-1.74.45-1.32,1.13-1.03,2.32Z"/>
    <path class="cls-36" d="M691.61,297.9l.78,14.33,9.79-2.35-.96-14.31-7.71.39-.7.24-.59.46-.4.58-.22.67Z"/>
    <path class="cls-36" d="M692.89,319.91l1.03,15.84,9.85-2.16-.87-12.95-10.01-.73Z"/>
    <path class="cls-36" d="M685.03,573.91l.42,7.38,19.05-1.08-.41-7.37-19.05,1.07Z"/>
    <path class="cls-34" d="M585.14,538.97l8.03,12.41,7.92-5.13-8.02-12.41-7.93,5.13Z"/>
    <path class="cls-36" d="M694.37,342.61l.87,13.36,9.98-.56-.78-11.8-10.06-.99Z"/>
    <path class="cls-36" d="M173.76,520.31l.58,18.03.37.99.68.79.93.5,1.04.15,1-.22.87-.55.62-.81.31-.98-.92-18.33-.68-1-1.03-.64-1.21-.15-1.15.35-.9.78-.51,1.09Z"/>
    <path class="cls-34" d="M810.31,224.51l.37,7.68,14.54-.7-.32-6.74-2.65.13-.05-.94-11.89.57Z"/>
    <path class="cls-36" d="M172.5,495.68l.82,16.12.44,1.05.84.77,1.09.35,1-.08.89-.45.68-.75.35-.94-.62-16.51-.68-1-1.03-.63-1.21-.16-1.15.35-.9.78-.51,1.09Z"/>
    <path class="cls-26" d="M169.62,642.52l.88,13.9,7.13-.46-.88-13.9-7.13.46Z"/>
    <path class="cls-36" d="M695.93,366.09l.12,3.91.43.88.97.86,3,2.03,2.41,2.68,2.1,3.08h1.52l-.72-12.99-9.84-.44Z"/>
    <g>
      <path class="cls-26" d="M68.72,619.44l2.84,42.74,56.44-3.74-2.84-42.74-56.44,3.74Z"/>
      <path class="cls-26" d="M133.09,603.63l2.57,34.15,32.36-2.03,1.63-1.37-19.35-31.77-17.21,1.01Z"/>
      <path class="cls-26" d="M78.41,673.41l.24,3.38,1.14,15.92,22.75-1.62-1.38-19.31-22.75,1.63Z"/>
      <path class="cls-26" d="M327.58,232.43l1.24,20.35.32,5.14,13.28-.81-1.57-25.49-13.28.81Z"/>
      <path class="cls-26" d="M50.74,345.07l.9,13.04,22.16-1.53-.89-13.04-11.08.77-11.08.76Z"/>
      <path class="cls-26" d="M49.15,322.03l1.59,23.04,11.08-.76-1.59-23.04-11.08.77Z"/>
      <path class="cls-26" d="M60.24,321.26l1.59,23.04,11.08-.77-1.59-23.04-11.08.76Z"/>
      <path class="cls-26" d="M66.71,229.36l1.44,22.43,10.96-.7-1.44-22.43-10.96.7Z"/>
      <path class="cls-26" d="M51.63,230.06l1.44,22.43,10.96-.71-1.44-22.43-10.96.7Z"/>
      <path class="cls-26" d="M53.07,252.5l1.44,22.43,10.96-.71-1.44-22.43-10.96.71Z"/>
      <path class="cls-26" d="M68.14,251.8l1.44,22.43,10.96-.71-1.44-22.43-10.96.7Z"/>
      <path class="cls-26" d="M54.51,274.93l1.44,22.43,10.96-.7-1.44-22.43-10.96.71Z"/>
      <path class="cls-26" d="M42.11,253.2l1.44,22.43,10.96-.7-1.44-22.43-10.96.7Z"/>
      <path class="cls-26" d="M43.55,275.63l1.44,22.43,10.96-.7-1.44-22.43-10.96.7Z"/>
      <path class="cls-26" d="M69.58,274.23l1.44,22.43,10.95-.71-1.43-22.43-10.96.71Z"/>
      <path class="cls-26" d="M77.66,228.66l1.44,22.43,10.95-.7-1.43-22.43-10.96.7Z"/>
      <path class="cls-26" d="M80.54,273.52l1.43,22.43,10.96-.7-1.44-22.43-10.95.7Z"/>
      <path class="cls-26" d="M79.1,251.09l1.44,22.43,10.95-.7-1.44-22.43-10.95.7Z"/>
      <path class="cls-26" d="M138.25,658.47l1.31,20.59,11.38-.73-1.31-20.58-11.38.72Z"/>
      <path class="cls-26" d="M136.95,637.96l1.3,20.51,11.38-.72-1.3-20.51-11.38.72Z"/>
      <path class="cls-26" d="M317.93,211.79l1.39,20.93,10.71-.71-1.39-20.93-10.71.71Z"/>
      <path class="cls-26" d="M328.64,211.08l1.39,20.93,10.71-.71-1.39-20.93-10.71.71Z"/>
      <path class="cls-26" d="M307.22,212.5l1.39,20.93,10.71-.71-1.39-20.93-10.71.71Z"/>
      <path class="cls-26" d="M80.64,487.61l.8,10.71.72,9.61,10.9-.81-1.52-20.32-10.91.81Z"/>
      <path class="cls-26" d="M82.16,507.93l.02.21.73,9.78.74,9.97,10.9-.81-1.49-19.97-10.9.81Z"/>
      <path class="cls-26" d="M149.63,657.75l1.31,20.58,10.52-.67-1.3-20.58-10.52.67Z"/>
      <path class="cls-26" d="M148.33,637.24l1.3,20.51,10.52-.67-1.31-20.51-10.52.67Z"/>
      <path class="cls-26" d="M64.92,389.41l1.34,19.39,11.08-.76-1.33-19.39-11.08.76Z"/>
      <path class="cls-26" d="M63.59,370.02l1.33,19.39,11.08-.76-1.33-19.39-11.08.76Z"/>
      <path class="cls-26" d="M52.51,370.78l1.33,19.39,11.07-.76-1.33-19.39-11.08.76Z"/>
      <path class="cls-26" d="M53.85,390.17l1.34,19.4,11.07-.77-1.34-19.39-11.07.76Z"/>
      <path class="cls-26" d="M170.5,656.42l1.31,20.58,10.38-.66-.88-13.91-.42-6.68-3.25.21-7.13.46Z"/>
      <path class="cls-26" d="M160.15,657.08l1.3,20.58,10.35-.66-1.31-20.58-10.35.66Z"/>
      <path class="cls-26" d="M158.85,636.57l1.31,20.51,10.35-.66-.88-13.9-.43-6.61-10.35.65Z"/>
      <path class="cls-26" d="M75.1,528.53l.81,10.82,19.45-1.45-.81-10.82-10.9.81-8.54.64Z"/>
      <path class="cls-26" d="M319.12,232.58l1.25,20.35,8.45-.52-1.24-20.35-8.46.52Z"/>
      <path class="cls-26" d="M332.59,257.83l.67,13.2,9.99-.5-.67-13.2-10,.5Z"/>
      <path class="cls-26" d="M62.83,359.02l.76,11,11.08-.76-.76-11-11.08.76Z"/>
      <path class="cls-26" d="M51.76,359.78l.76,11,11.08-.76-.76-11-11.07.76Z"/>
      <path class="cls-26" d="M94.55,527.09l.81,10.82,10.17-.76-.81-10.83-10.16.76Z"/>
      <path class="cls-26" d="M181.31,662.44l.88,13.91,7.17-.46-.88-13.91-7.17.46Z"/>
      <path class="cls-26" d="M72.1,488.25l.8,10.71,8.55-.64-.8-10.71-8.54.64Z"/>
      <path class="cls-26" d="M74.36,518.56l.74,9.97,8.54-.64-.74-9.97-8.54.64Z"/>
      <path class="cls-26" d="M72.9,498.96l.73,9.82,8.55-.64-.02-.21-.72-9.61-8.55.64Z"/>
      <path class="cls-26" d="M73.63,508.78l.73,9.78,8.54-.64-.73-9.78-8.55.64Z"/>
    </g>
    <path class="cls-32" d="M240.48,572.92l.25,1.73.83,1.54,1.3,1.16,1.61.65,1.74.05,1.65-.54,1.37-1.08.92-1.48.35-1.7-.25-1.73-.82-1.53-1.3-1.16-1.62-.65-1.74-.05-1.65.54-1.37,1.08-.92,1.48-.35,1.7Z"/>
    <path class="cls-34" d="M105.93,415.96l.51,8.83,8.33-.49-.51-8.83-8.33.49Z"/>
    <path class="cls-34" d="M556.19,365.53l.4,8.4,8.41-.4-.41-8.4-8.4.4Z"/>
    <path class="cls-36" d="M695.35,357.64l.42,6.57,10.05.28-.49-7.38-9.98.53Z"/>
    <path class="cls-34" d="M178.41,677.24l.25,8.49,8.18-.24-.25-8.49-8.18.24Z"/>
    <path class="cls-32" d="M257.39,644.55l2.49,9.81,2.18.94,2.46-4.36.16-2.26-.63-2.38-2.61-3.77-1.63-1.17-2.11-.78-.31,3.97Z"/>
    <path class="cls-34" d="M431.61,185.11l.31,6.66,8.96-.42-.31-6.66-8.96.42Z"/>
    <path class="cls-36" d="M703.02,295.41l.73,11.16,2.27-2.25,1.91-1.36,2.33-1.1-.42-6.84-6.82.39Z"/>
    <path class="cls-36" d="M711.58,294.93l.35,6.44,7.57-.37-.39-6.49-7.54.42Z"/>
    <path class="cls-36" d="M506.51,291.67l.48,6.97,5.48-.38-.48-6.98-5.48.38Z"/>
    <path class="cls-36" d="M505.31,274.28l.48,6.95,5.48-.37-.48-6.95-5.48.37Z"/>
    <path class="cls-36" d="M698.74,336.61l.27,4.68,5.3.41-.43-6.32-5.14,1.23Z"/>
    <path class="cls-36" d="M697.12,312.92l.27,4.67,5.3.41-.42-6.31-5.15,1.23Z"/>
    <path class="cls-5" d="M767.22,139.79l7.21,15.21,12.39,6.08,27.31,1.54"/>
    <path class="cls-23" d="M767.22,139.79l7.21,15.21,12.39,6.08,27.31,1.54"/>
    <path class="cls-3" d="M162.98,195.29l22.43-4.35,95.95-13.7,129.59-4.36,64.8-3.74,76.94-10,66.4-.32,43.6-5.06,104.54-13.96"/>
    <path class="cls-33" d="M230.91,437l.7,15.97,1.05,6.47,20.79-1.29,7.32-6,6.62-7.63,4.4-6.98,2.42-6.34.08-6.89-1.91-7.6-8.09-9.19-2.34-4.68.47-4.55,3.78-9.96,4.2-7.05-.27-3.19-2.38-4.24-2.81-1.21-9.66.82-2.38,2.26-2.34,2.84-5.14,8.49-2.88,5.96-2.38,6.47-1.79,6.04-2.19,7.78-3.11,7.95-.55,4.05-.51,8.57-1.13,3.15ZM234.42,484.93l1.71,7.44,3.04,10.4,3.97,8.84,5.72,14.68,5.65,11.8,4.36,7.83,8.48,12.07,10.13,11.76,12.85,11.6,23.79,17.33,7.36,4.33,23.1,10.63,8.68,1.87,26.48,3.74,7.98.11,10.98-1.36,14.99-3.19,8.06-3.15,4.22-2.07,3.02-1.91-.23-.43,4.94-3.43-5.06-6.11-2.46,1.4-4.2-6.27,2.81-2.3-5.65-7.67-2.53,1.68-4.2-6.16,3.15-2.35-4.44-6.47-.68.37-1.11-1.79-2.53,1.83-4.01-6.66,3.14-2-8.29-11.12-2.07-.27-5.49,7.95-2.37,5.51-6.41,14.97-1.6,1.71-1.91,1.01-1.83.54-2.81.02-1.77-.06-1.57.24-3.74,1.71-9.77,5.37-4.23,3.41-4.54,2.59-5.41.74-7.24-1.13-7.05-3.5-7.12-4.79-5.49-5.65-6.23-5.88-3.63-6.66-.94-4.99-.31-15.03-3.46-7.28-4.01-5.88-7.17-5.38-4.17-6.97-4.17-6.62-3.31-2.8-4.83-2.34-6.85-2.1-2.96-2.38-2.06-2.88-3.78-8.68-.78-4.52,1.52-5.91,2.02-4.99-24.25,1.21-.98,2.03-.46,2.41ZM424.05,621.97l6,11.64.82,9.35-.89,4.63,3.66,1.52,7.55,9.04,8.02,1.17,5.61,6.03,5.19.16,5.17-2.19.08-2.11-1.71-2.96-8.06-14.84-4.01-6.27,2.76-1.95-5.6-7.87-2.89,1.17-4.2-6.03,2.49-1.48-4.59-6.82-4.71,2.41-6.55,3.42-4.13,1.95Z"/>
    <path class="cls-33" d="M14.07,222.67l.98,13.6,4.99-5.34,157.96-29.16,83.8-15.79,26.52-2.41,163.76-5.68,74.05-8.61,15.84-1.15,66.93-1.37,31.57-2.81,134.12-18.15,7.24-6.85,39.33-5.21,10.21-2.68-.27-2.11-10.56.43-39.33,6.39-40.81,3.34-101.76,14.86-32.83,1.84-27.15-.58-26.46-1.09-40.93,4.36-69.97,7.75-165.49,6.82-21.87.51-47.35,7.63-6.37,2.81-69.86,14.3-17.5,3.38-98.79,20.95Z"/>
    <path class="cls-33" d="M171.91,580.65l2.76,8.6,13.36,22.24,3.12,3.42,9,5.84,1.95,2.92,1.83,1.36,2.81.12,5.37-2.69,6.43-1.99,13.98-3,15.23-.97,4.05-2.11.93-2.57-1.09-2.33-3.04-.86-2.57-1.87-2.1.08-.16,2.57-.86,2.11-4.44,2.1-35.86,5.33-3.39-.74-6.38-4.44-15.58-29.98-.86-4.21.78-2.96,6.86-.67,6.62-1.83,33.33-1.87,3.9,1.09,3.19,2.49,10.82,20.02.7,4.75.31,3.89,1.41.08,1.01-1.64,2.73-2.88-.63-2.65-3.03-3.82-6.93-18.92-2.65-3.19-6.31-1.09-17.13.47-32.44,2.03-3.15.78-2.92,2.34-.94,4.64Z"/>
    <path class="cls-33" d="M716.93,471.92l.34,6.66,3.83-.19-.33-6.66-3.84.19Z"/>
    <path class="cls-28" d="M201.55,154.46l.43,4.83,26.38-2.37.87,9.65,25.63-2.3.2,2.2,30.25-2.72-.52-5.84,1.83-.16-1.26-14.07-13.7,1.23.63,7.05-34.74,3.11-.77-8.58-33.66,3.02.43,4.79-2.01.18Z"/>
    <path class="cls-35" d="M481.41,363.24l.46,3.3.97,3.18,1.47,2.99,8.36,12.45,27.35-56.87-13.59.73-2.61.16-2.55.54-2.44.92-2.28,1.28-2.62,2.14-2.15,2.61-1.6,2.98-6.65,13.21-1.3,3.32-.71,3.5-.11,3.56Z"/>
    <path class="cls-28" d="M458.03,133.15l1.48,18.55,23.72-1.9.12,1.47,31.56-2.52-1.49-18.71-21.32,1.7-.11-1.29-33.96,2.71Z"/>
    <path class="cls-28" d="M28.46,191.13l4.48,19.97,17.48-3.92-2.58-11.54,24.7-5.54-3.05-13.61-39.59,8.88,1.16,5.19-2.6.58Z"/>
    <path class="cls-28" d="M154.06,163.97l2.44,3.49,3.22-2.26,3.27,4.68-3.29,2.3,2.62,3.74,4.99-3.49,9.69-1.51-.76-4.83,6.52-1.02-1.34-8.57-7.33,1.14-.31-2-10.09,1.58-9.62,6.73Z"/>
    <path class="cls-28" d="M659.45,125.81l.19,4.46,1.18-.05.11,2.69,6.5-.27-.09-2.15,6.2-.26.07,1.77,6.61-.27-.07-1.77,6.23-.26.06,1.51,6.84-.28-.06-1.5,3.68-.16-.23-5.72-3.05.12-.08-1.88-8.07.33.08,1.88-8.07.33-.05-1.35-2.17.1.05,1.35-7.82.32-.07-1.49-5.28.22.09,2.21-2.79.12Z"/>
    <path class="cls-35" d="M456.76,331.69l11.75,17.5,9.13-18.62-20.88,1.13Z"/>
    <path class="cls-28" d="M377.87,131.7l.39,4.97,36.81-2.92-.39-4.97-36.81,2.92Z"/>
    <path class="cls-28" d="M788.64,115.48l.82,5.67,1.41-.2.31,2.16,6.7-.97-.31-2.16,5.77-.83.3,2.06,6.84-.99-.3-2.06,3.84-.56-.82-5.67-6.2.9-.22-1.49-2.52.36.22,1.49-10.2,1.47-.24-1.66-2.38.35.24,1.66-3.25.47Z"/>
    <path class="cls-28" d="M363.28,145.06l.36,14.2,6.48-.16-.09-3.52-2.79.07-.16-6.51,5.73-.14.26,10.12,5.93-.15-.36-14.29-15.36.39Z"/>
    <path class="cls-35" d="M59.97,419.3l.46,7.64,17.16-1.05-.46-7.65-17.16,1.06Z"/>
    <path class="cls-28" d="M425.85,143.92l.64,8.75,12.55-.92-.65-8.76-12.54.92Z"/>
    <path class="cls-28" d="M400.73,157.64l.06,4.79,17.85-.22-.06-4.79-17.85.22Z"/>
    <path class="cls-28" d="M386.27,156.71l.06,5.87,12.75-.15-.06-5.87-12.75.15Z"/>
    <path class="cls-35" d="M105.93,415.96l.51,8.83,8.33-.49-.51-8.83-8.33.49Z"/>
    <path class="cls-28" d="M381.98,140.88l.64,14.6,4.65-.2-.65-14.6-4.65.2Z"/>
    <path class="cls-28" d="M431.61,185.11l.31,6.66,8.96-.42-.31-6.66-8.96.42Z"/>
    <path class="cls-28" d="M525.96,135.21l.36,9.44,5.86-.22-.36-9.44-5.86.22Z"/>
    <path class="cls-28" d="M666.02,104.69l.22,3.38,10.5-.66-.22-3.38-9.19.58-1.31.08Z"/>
    <path class="cls-28" d="M175.89,227.76l2.23,1.83,3.85-2.61,3.86-2.62-.65-3.09-4.65,3.25-4.65,3.25Z"/>
    <path class="cls-28" d="M127.15,516.52l1.91,3.66,4.96-2.59-1.91-3.66-4.96,2.59Z"/>
    <path class="cls-35" d="M192.34,677.65l.12,3.83,3.87-.11-.12-3.84-3.87.12Z"/>
    <path class="cls-18" d="M544.96,579.61l-1.96-3.13"/>
    <path class="cls-18" d="M564.84,609.6l-2-3.03"/>
    <path class="cls-18" d="M473.55,637.57l8.25,12.47"/>
    <path class="cls-18" d="M528.56,549.55l-1.62-3.3"/>
    <path class="cls-18" d="M510.53,520.14l-2.09-3.05"/>
    <path class="cls-17" d="M544.96,579.61l-1.96-3.13"/>
    <path class="cls-17" d="M564.84,609.6l-2-3.03"/>
    <path class="cls-17" d="M473.55,637.57l8.25,12.47"/>
    <path class="cls-17" d="M528.56,549.55l-1.62-3.3"/>
    <path class="cls-17" d="M510.53,520.14l-2.09-3.05"/>
    <path class="cls-6" d="M544.96,579.61l-1.96-3.13"/>
    <path class="cls-6" d="M564.84,609.6l-2-3.03"/>
    <path class="cls-19" d="M473.55,637.57l8.25,12.47"/>
    <path class="cls-6" d="M528.56,549.55l-1.62-3.3"/>
    <path class="cls-6" d="M510.53,520.14l-2.09-3.05"/>
    <path class="cls-21" d="M255.06,460.01l.11,3.23.12,3.31.99.04.87.46.6.79.19.97-.21.91-.57.75-.82.45-.93.08.07,2.92.06,2.8,12.18-.73,8.28-.35,1.03,1.05,39-1.67,11.8-2.64,16.43-.99,12.27,19.51.19,7.09,3.35,2.42,1.93,1.39,1.69,1.22,3.66-5.03,2.38.04,28.6,42.96,43.25,64.94,24.65,37.22,7.58,11.36,26.81,40.05,7.79-4.3,8.72-4.81-25.06-36.96-2.92-4.31-7.56-11.07,2.26-1.47-10.25-15.94-2.22-3.28-7.21-10.87-8.88-15.37-18.69-30-8.98-14.42-12.5-20.18-2.06-.09-3.34-.81-3.12-1.43-2.79-2.01-2.04-2.14-1.67-2.44-1.23-2.68-.77-2.85-.28-2.94.2-2.89.66-2.82,1.11-2.67,1.54-2.46,1.92-2.17,2.24-1.83,1.7,2.33,9.5-6.66,9.47-6.73-.14-5.53-.05-2.14-19.01.48-2.29.06-2.08,2.65-2.48,2.27-2.82,1.84-3.08,1.37-3.26.84-3.35.3-3.36-.24-3.27-.79-3.1-1.3-2.85-1.79-2.52-2.23-2.25-2.79-1.73-3.14-1.16-3.38-.56-3.54.06-3.58.68-3.52,1.28-3.34,1.84-3.07,2.34-2.72,2.78-2.27,3.12-1.75,3.38-1.19,3.54-.59-16.45-6.82-4.58-1.9-8.25-.24-15.85-5.8-33.17,2.14-16.63-.08,8.93-17.72-11.89-6.11-9.15-.04-.02-2.36-5.55-.25-8.68-1.67,2.26,6.74,3.77,5.8,2.85,2.81,2.22,3.16.89,2.76.66,3.66v4.87l-.74,4.28-1.21,4.01-3.11,5.96-4.52,5.76-5.73,6.55-6.81,5.33Z"/>
    <path class="cls-21" d="M416.71,262.67l.4,8.17,36.44-1.77.39,8.2,14.9,4.27,7.94-.54v-3.04l6.08-.47-.4-10.54,1.64-.05,15.66,5.22,2.33,32.71,16.21-1.25-1.87-32.63,10.75-7.07,4.74-.34-.52-7.19-14.38,1.03-.49-6.93-20.24,1.45.49,6.93-12.9.92-2.43-1.73-.36-7.5-28.38,1.37.44,9.01-9.42.46-.11-2.11-16.7.81.1,2.11-10.31.49ZM457.94,255.71l17.46-1.09,1.12,18.1-17.46,1.08-1.12-18.09ZM505.31,274.28l5.48-.37.48,6.95-5.48.37-.48-6.95ZM505.88,282.69l5.49-.37.49,7.21-5.48.38-.5-7.22ZM506.51,291.67l5.48-.38.48,6.98-5.48.38-.48-6.97Z"/>
    <path class="cls-21" d="M687.91,298.33l4.44,72.86.45,1.83.99,1.6,1.24,1.1,1.49.73,1.49.73,1.33,1,1.11,1.24.89,1.51.56,1.66.22,1.73,1.32,20.49.43,1.26.72,1.12.95.93,1.34.78,1.5.39,8.96-.51-1.16-23.09,6.89-.35-1.76-30.87,7.71-.54-2.06-32.09-6.19.12-3.33,32.76-10.55.6-2.96-45.55,1.6-2.5,1.4-1.87,1.95-1.4,2.41-.74,8.31-.31-.12-1.92-7.57.37-.35-6.44,7.54-.42-.21-3.46-25.47,1.48-1.34.31-1.24.6-1.08.84-.95,1.19-.63,1.37-.29,1.49ZM691.61,297.9l.22-.67.4-.58.59-.46.7-.24,7.71-.39.96,14.31-9.79,2.35-.78-14.33ZM692.89,319.91l10.01.73.87,12.95-9.85,2.16-1.03-15.84ZM694.37,342.61l10.06.99.78,11.8-9.98.56-.87-13.36ZM695.35,357.64l9.98-.53.49,7.38-10.05-.28-.42-6.57ZM695.93,366.09l9.84.44.72,12.99h-1.52l-2.1-3.08-2.41-2.68-3-2.03-.97-.86-.43-.88-.12-3.91ZM697.12,312.92l5.15-1.23.42,6.31-5.3-.41-.27-4.67ZM698.74,336.61l5.14-1.23.43,6.32-5.3-.41-.27-4.68ZM703.02,295.41l6.82-.39.42,6.84-2.33,1.1-1.91,1.36-2.27,2.25-.73-11.16ZM706.21,385.57l1.65-.51,1.06,18.23-1.74-1.14-.97-16.58ZM706.9,356.98l10.38-.47-2.1,20.76-6.89,1.63-1.38-21.92ZM708.32,384.91l1.5-.47,1.09,18.72-1.59-1.14-1-17.11ZM710.31,384.3l1.72-.54,1.12,19.27-1.81-1.13-1.03-17.61ZM712.48,383.62l1.58-.49,1.15,19.79-1.67-1.14-1.06-18.15Z"/>
    <path class="cls-21" d="M259.69,490.3l1.06,6.74,2.02,4.75,2.96,2.73,3.97,1.64.51-.51.5-.5-2.65-1.24-1.05-1.41-.04-1.83.86-1.6,2.3-.62,2.18.58,2.65.5,2.26-.16,3.7-1.87,2.18-1.94,1.29-2.81.31-3.5-.7-2.77-1.57-2.1-2.37-1.55-2.61-1.01-2.76-.67,2.3-4.44-.98-1.09-8.28.35-6.9,10.59-1.13,3.73Z"/>
    <path class="cls-21" d="M345.98,502.65l.46,3.98,1.14,2.84,2.26,2.25,1.05-1.48,2.18,1.21,7.01-11.06-3.35-2.42-.19-7.09-7.2-2.17-2.34,6.07-.7,3.86-.32,4.01Z"/>
    <path class="cls-21" d="M228.69,349.18l1.89,1.18,1.49,2.87,1.98,1.49,2.07.78,2.04-.05,1.95-1.5,2.35-1.46-1.66-.1-1.46-.62-.89-.92-.36-.89.07-1.09.14-2.07-1.56-.06-1.73-.35-1.64-1.39-.52-1.02-.03-1.07-1.32,2.21-1.84,3.1-.98.97Z"/>
    <path class="cls-8" d="M442.78,339.65l.05-3.98.59-4.02,1-3.93,1.41-3.81,1.76-3.57,2.11-3.38,2.45-3.14,2.79-2.5"/>
    <path class="cls-8" d="M199.17,689.45l2.76-1.44,2.07-1.52,1.9-1.9,1.21-1.95.89-2.22.43-2.73-.23-2.65-.66-3.15"/>
    <path class="cls-8" d="M99.42,480.01l-37.05,2.7"/>
    <path class="cls-8" d="M417.82,313.64l-4.15-63-4.84-56.88-.54-8.4-42.17,1.1-5.84,1.94-6.7,4.21-15.55,17.74-47.77,3.33-4.22,3.1"/>
    <path class="cls-8" d="M240.29,382.99l-7.7-7.75-3.25-3.37-4.62-4.78-2.75-2.98-3.71-4-3.64-3.24-3.97-2.35-6.38-.86-10.05.31-8.25.97-5.61,2.18-4.21,2.45-5.21,3.74-3.78,5.1-4.55,9.62-1.48,5.84-.22,5.06,2.46,9.66.7,9.45,1.16,15.41,1.52,20.29,1.89,25.37.69,9.9.95,13.78.65,16.09.13,7.25.04,2.09.93,17.61.29,8.55"/>
    <path class="cls-8" d="M171.1,518.22l-33.78,1.8-12.28,4.95-5.27-8.27,7.2-4.36,1.68-.67,1.75-.23,40.53-2.57"/>
    <path class="cls-8" d="M125.05,524.98l-10.83,7.76"/>
    <path class="cls-8" d="M172.03,535.83l-23.68,1.4-2.92.43-4.98,2.22-1.24,1.99-.19,2.22.82,3.35,2.62,3.85,8.58-4.9,1.65-.67,1.95-.31,17.69-1.03,9.84-.57,7.39-.43,40.05-2.34,6.85-.41"/>
    <path class="cls-8" d="M181.96,534.83l47.41-2.77.23,8.96"/>
    <path class="cls-8" d="M229.36,532.06l.54-10.65"/>
    <path class="cls-8" d="M189.54,543.37l.8,23.05"/>
    <path class="cls-8" d="M164.08,408.05l-70.98,4.7"/>
    <path class="cls-8" d="M225.89,439.72l-59.14,4.03"/>
    <path class="cls-8" d="M228.55,417.9l-63.32,5.56"/>
    <path class="cls-8" d="M160.91,388.94l-69.65,4.97"/>
    <path class="cls-8" d="M148.16,284.09l-6.38,4.25-.8,1.69.29,1.92,9.93,14.46-.74,7.3-5.01,2.27-3.4,1.78-2.88,2.57-1.95,3.9-.7,4.13,2.18,21.81,1.64,3.58,2.65,3.11,4.44,1.49,5.06-.4,3.58-1.54"/>
    <path class="cls-8" d="M85.35,327.65l9.2,3.86,41.97-3.16"/>
    <path class="cls-8" d="M94.55,331.51l1.47,17.36-9.05,1.03"/>
    <path class="cls-8" d="M121.58,272.65l28.87,41.06,6.23,10.36.24.91.58,2.2,1.68,20.64-.24,3.04-.7,2.73-2.19,2.82"/>
    <path class="cls-8" d="M148.16,284.09l1.84,1.43,2.44.49,23.19-2.04,3.07-.92,6.43-4.63.31-1.64-2.46-4.33-1.84-.2-3.87,2.27-24.86,1.78-2.32,1.06-1.41,2.07-.66,2.18.14,2.47"/>
    <path class="cls-8" d="M483.86,653.17l8.2-4.69,12.99-7.42,13.47-3.52,12.38-.46,17.45,1,8.63,3.68,9.34,5.76,7.95,9.58,15.66,23.99"/>
    <path class="cls-8" d="M612.61,596.61l-39.61,25.28-24.63,16.18"/>
    <path class="cls-8" d="M626.23,509.12l-52.11,30.88"/>
    <path class="cls-8" d="M602.31,581.25l-7.3,4.37-5.59,1.44-6.86-1.98-6.67-9.56,15.33-10.51"/>
    <path class="cls-8" d="M575.88,575.51l-23.67,15.03-18.65,11.33-5.53,2.03-39.25,1.79-15.18,10.01-10.11,6.66"/>
    <path class="cls-8" d="M571.24,535.79l-14.93,10.05-22.3,14.85-19.54,12.44-2.57.86-42.91,3.04-13.72,9.14-10.93,7.28"/>
    <path class="cls-8" d="M536.38,515.59l-20.23,13.36-20.52,13.5-4.6,1.71-40.42,2.73-14.03,9.27-11.76,7.77"/>
    <path class="cls-8" d="M556.31,545.84l6.56,10.47,9.52,1.25,9.73-5.84"/>
    <path class="cls-8" d="M536.38,515.59l9.26,10.91h7.72l9.23-3.36"/>
    <path class="cls-8" d="M536.38,515.59l.46-6.15.71-5.21,2-1.17,5.94-4.23"/>
    <path class="cls-8" d="M426.02,472.74l.6,14.02,2.84-.06,20.78-1.04,29.6-2.11,53.68-2.97"/>
    <path class="cls-8" d="M515.41,450.78l-26.99,18.33-9.31.52-29.89,1.67-23.21,1.44-19.97.53"/>
    <path class="cls-8" d="M479.12,469.64l.71,13.91"/>
    <path class="cls-8" d="M449.23,471.31l1.01,14.36"/>
    <path class="cls-8" d="M326.39,360.91l6.69,3.58,11.92,14.18,5.45,7.94,1.87,8.18-.47,9.82"/>
    <path class="cls-8" d="M360.82,414.96l17.52-8.79,30.2-2.96,13.3,4.65,13.94-.84,5.2-1.09,12.97-2.71,5.49-8.24,13.26-7.9"/>
    <path class="cls-8" d="M392.36,437.78l34.5-2.57,10.54,3.39,14.07-.02,6.71-.16,6.7-3.7,8.53-5.79,18.6-13.04"/>
    <path class="cls-8" d="M406.04,473.28l.91-2.19,1.84-4.3.62-3.54v-4.51l-.39-4.68-1.63-4.98-3.74-5.14-3.12-3.19-4.05-1.87-4.13-1.09-6.28-.18-16.08-6.95-9.17-15.68-8.96-10.36-24.76-36.92-.62-3.58-.08-3.19-14.72-30.65"/>
    <path class="cls-8" d="M538.29,305.98l-8.71-119.87-120.76,7.66"/>
    <path class="cls-8" d="M156.1,187.63l52.15-11.61,24.38-5.53,8.26-1.01,39.96-2.51,8.55-.92,2.33-.86,1.25-1.33.78-2.41.16-2.96-1.17-14.26-1.24-2.73-1.56-1.01-2.34-.3-14.87,1.16"/>
    <path class="cls-8" d="M797.09,470.6l8.72-5.27"/>
    <path class="cls-8" d="M784.78,405.4l-27.32.76-4.13.67-5.15,1.96-45.78,2.24-8.23.4"/>
    <path class="cls-8" d="M701.19,540.68l9.63-.6,64.83-4.07,43.42-2.73"/>
    <path class="cls-8" d="M182.16,543.8l-.2-8.97-.87-19.07-.22-4.93-.84-18.51-.64-13.91"/>
    <path class="cls-8" d="M702.13,117.03l-46.69,3.69,1.16,12.66,1.01,2.18,1.64,1.4,2.26,1.06,2.38.43,39.41-3.86"/>
    <path class="cls-8" d="M783.4,127.85l-4.71,1.56-4.79,1.13-51.25,5.99-3.03-.07-3.43-.62-13.16-5.35"/>
    <path class="cls-8" d="M783.4,127.85l29.9-4.55,1.95-1.64.86-2.49-.16-4.83-1.01-3.51-2.34-2.02-4.4-1.01-22.04,1.4-2.53.54-1.13,1.01-.66,1.64.16,2.41,1.4,13.04"/>
    <path class="cls-8" d="M743.95,501.83l8.68,7.9,2.65,1.24,3.43.78,11.14-.39"/>
    <path class="cls-8" d="M784.31,408.78l-24.75,1.27"/>
    <path class="cls-8" d="M705.6,460.07l36.25-2.9-1.13-23.55,43.11-2.23"/>
    <path class="cls-8" d="M651.58,380.18l38.74-2.96"/>
    <path class="cls-8" d="M767.78,629.52l9.34-.43,1.51.18,1.34.72.84.94.51,1.15.13,1.26.25,13.09"/>
    <path class="cls-8" d="M668.14,638.22l48.9-2.94,25.94-1.56,2.61.38,2.47.9,2.25,1.37,1.93,1.79,1.51,2.09,1.07,2.34.6,2.5,2.37,31.06"/>
    <path class="cls-8" d="M171.06,516.13l10.02-.36"/>
    <path class="cls-8" d="M156.06,356.41l6.36,7.24,4.74,4.77,8,6.84,2.81,1.61,3.07,1.09,3.59.71,3.39.41,26.38-2.07,1.89-1.03,1.66-1.84,2.47-4.82,1.55-5.22"/>
    <path class="cls-8" d="M162.43,363.65l-73.48,6.53"/>
    <path class="cls-8" d="M235.28,394.55l-7.52-.6-64.39,4.65"/>
    <path class="cls-8" d="M150.89,691.71l5.78,80.81.76,10.56"/>
    <path class="cls-8" d="M282.25,296.77l-.52-4.96-1.13-10.65-21.13.24-6.01,2.25-6.54,1.36-7.14.62"/>
    <path class="cls-8" d="M281.72,291.81l23.83-1.18,8.38,1.95,24.9-.26"/>
    <path class="cls-8" d="M305.73,332.37l-5.29-7.25-9.01-13.2-6.2-8.78-2.98-6.37"/>
    <path class="cls-8" d="M237.56,307.28l7.43-3.5,8.27-2.7,11.53-2.35,17.45-1.95"/>
    <path class="cls-8" d="M283.51,252.84l-.49-8.36,10.36-6.61-4.99-7.17-6.6-7.98"/>
    <path class="cls-8" d="M156.93,324.98l35.43-2.55,5.45-2.01,9.47-6.08"/>
    <path class="cls-8" d="M244.59,202.12l3.04,18.56,4.79,5.13,4.54,29.22"/>
    <path class="cls-8" d="M214.01,223.91l33.62-3.23"/>
    <path class="cls-8" d="M256.96,255.04l2.51,26.36"/>
    <path class="cls-8" d="M142.44,249.34l13.7,5.03,12,.23,6.56-.42,6.28-.81,16.65-3.06,9.83-2.83"/>
    <path class="cls-8" d="M211.18,206.12l2.51,13.04.32,4.75-.39,5.61-.55,5.14-1.32,5.11-1.6,3.33-2.69,4.38"/>
    <path class="cls-8" d="M207.47,247.48l12.79,5.09,12.26,1.75,24.44.71,20.7-1.73,5.86-.47,27-2.18"/>
    <path class="cls-8" d="M481.37,762.15l-6.08-4.52-5.61-1.56-17.29.46-12.93,1.09-6.7,3.58-5.75,4.92"/>
    <path class="cls-8" d="M169.08,248.53l5.62,5.65"/>
    <path class="cls-8" d="M80.17,201.45l34-7.05,2.45-2.14.9-2.61.7-3.43,32.3-7.05"/>
    <path class="cls-8" d="M235.35,508.02l-54.49,2.81"/>
    <path class="cls-22" d="M270.11,468.34l88.08-5.11,14.33,21.65,42.88,64.82,9.42,14.23,19.52,29.52,4.96,7.5,14.17,21.41,10.07,15.22"/>
    <path class="cls-22" d="M358.19,463.22l11.18-30.86.62-1.72"/>
    <path class="cls-22" d="M441.59,605.92l7.72-4.98"/>
    <path class="cls-22" d="M270.11,468.34l-9.9-5.44-5.04.35"/>
    <path class="cls-22" d="M255.47,473.91l5.51-.32,9.13-5.25"/>
    <path class="cls-22" d="M270.11,468.34l13.21-33.6,1.16-8.1-2.18-10.82-5.92-8.33-4.52-7.71"/>
    <path class="cls-9" d="M132.17,143.29l1.16,4.24,3.19,10.5,8.68,13.07,5.32,8.07,5.58,8.46,2.36,3.58"/>
    <path class="cls-9" d="M172.45,212.99l38.74-6.88,3.8-.67,29.6-3.33,8.82-.1,7.39.32,10.09,3.38,8.16,4.63,6.97,6.43,5.14,7.12,19.34,26.76,22.56,31.24,5.76,10.42,5.63,10.18,6,5.22,5.14,2.95,6.45,2.61,11.23,2.92"/>
    <path class="cls-9" d="M344.46,302.5l-1.33,7.16-1.17,4.13-2.26,4.14-3.73,5.28"/>
    <path class="cls-9" d="M547.11,758.42l-1.7-28.88-1.21-20.64"/>
    <path class="cls-9" d="M227.4,470.36l.79,5.16.77,5.01,1.6,9.28,2.13,9.17,2.65,9.04,3.23,9.04,3.75,8.83,4.26,8.6,4.76,8.33,4.98,7.69,5.39,7.41,5.79,7.1,6.17,6.77,6.53,6.42,6.87,6.06,5.94,5.55,6.23,5.21,2.54,1.88,3.99,2.97,6.79,4.46,7.03,4.07,7.34,3.71,7.54,3.28,7.71,2.85,7.86,2.39,8,1.71,8.09,1.19,8.15.66,8.17.12,8.17-.42,8.79-1.05,8.7-1.66,8.56-2.28,8.37-2.87,4.36-2.3,12.16-7.83"/>
    <path class="cls-9" d="M426.08,313.17l28.87-1.85,58.92-3.78,24.42-1.57,70.65-4.53,4.71-.3,10.05-5"/>
    <path class="cls-9" d="M614.94,662.54l1.36-3.31.51-3.5.08-4.63-3.35-48.45-.39-2.96-.54-3.08-3.63-5.6-6.67-9.76-11.1-16.24-9.08-13.28-8.01-11.72-2.88-4.21-8.65-12.66-17.1-24.31-11.99-18.25-18.1-29.79-23.4-34.89-19.31-28.82-7.47-11.82-8.49-13.46-13.96-22.13-16.7-26.48"/>
    <path class="cls-9" d="M71.29,696.48l64.36-4.06,15.24-.71,48.29-2.26,24.86-4.44,17.19-.67,9.71-.38,28.58-1.99,8.09-.08,7.25.43,6.89,1.25,6.62,1.87,7.25,2.68,6.5,3.15,5.77,3.66,6.3,4.75,12.62,11.53,10.82,7.39,6.15,3.12,7.25,2.8,8.09,2.41,8.26,1.48,7.86.54,8.57-.39,39.17-2.26,73.27-6.42,9.97-2.73,8.72-3.5,9.26-4.78,7.27-3.76,38.47-24.06,19.08-12.5,3.58-3.19,2.33-2.84"/>
    <path class="cls-9" d="M830.05,280.46l1.6-36.37,1.36-12.77,2.42-17.21,1.24-8.65.08-3.35-.47-3.35-1.48-3.11-2.41-2.97-23.21-18.53-3.35-1.79-4.6-1.01-19.08.47-76.02,5.44"/>
    <path class="cls-9" d="M704.72,155.99l1.41,21.26,7.36,110.69"/>
    <path class="cls-9" d="M660.01,513.02l48.86-2.81,15.02-.87,4.85-.79,4.73-1.35,3.65-1.47,3.5-1.79,3.32-2.11,5.33-4.09,3.86-4.09,2.89-3.73,3.33-3.35,3.71-2.92,4.16-2.51,4.45-1.97,5.25-1.94,5.01-1.25,4.84-.54,3.94-.97,6.37-3.85"/>
    <path class="cls-9" d="M651.58,380.18l8.43,132.84,2.55,40.21.35,2.29.89,2.15,1.37,1.87,1.63,1.39,1.9,1.01,2.08.56,3.98-.12"/>
    <path class="cls-9" d="M642.57,579.49l8.31,3.19,16.31-.46,8.68-.24"/>
    <path class="cls-9" d="M675.47,575.03l-8.54.31-17.14.6-7.22,3.55"/>
    <path class="cls-9" d="M712.15,560.32l-37.39,2.06.72,12.64.4,6.95.68,11.75"/>
    <path class="cls-9" d="M715.5,611.7l64.62-4.14-4.47-71.55"/>
    <path class="cls-9" d="M830.05,280.46l-116.55,7.49-28.58,1.84-39.79,2.55-13.99.9-7.44,2.91"/>
    <path class="cls-9" d="M684.92,289.78l.58,9.45,4.83,78,3.47.04,1.64.67,1.49.95,1.3,1.19,1.11,1.44.82,1.61.53,1.74,1.71,26.16,3.2,49.05,2.66,40.74.62,9.4,1.95,29.86,1.32,20.24,2.07,31.64,1.29,19.74,1.54,23.58"/>
    <path class="cls-9" d="M714.21,591.96l-37.66,1.77-2.61.12-1.76.54-1.76.93-1.56,1.27-1.27,1.54-.86,1.55-.58,1.68-.27,1.76,2.26,35.1,2.79,43.4.51,2.69.97,2.56,1.4,2.35,1.79,2.06,2.19,1.76,2.47,1.34,2.67.86,2.79.38,2.81-.13,63.32-16.51,3.08-1.18,2.85-1.65,2.55-2.09,2.19-2.48,1.56-2.44,1.2-2.65.82-2.78.99-3,1.38-2.85,1.75-2.64,2.21-2.5,2.54-2.17,6.71-4.13,31.21-19.16,3.66-2.49,2.71-2.33,2.38-2.66,2-2.95,1.63-3.3,1.17-3.49.68-3.62.18-3.68-.54-7.4-7.71-62.05-3.51-28.25-.98-4.42-1.31-4.33-1.65-4.21-1.97-4.07-2.53-4.26-2.89-4.03-3.22-3.77-3.91-5.33-4.11-7.99-2.71-5.81-2.27-6-1.83-6.14-1.38-6.27-.93-6.55-.03-.46-.41-6.15.05-6.62.4-6.64.44-3.2.46-3.38,1.4-6.49,1.89-6.38,2.67-6.91,3.26-6.66,3.81-6.36,4.53-7.59,4.23-7.77,3.93-7.92,3.97-8.9,3.58-9.07,3.19-9.21,3.66-13.86,3.03-12.85,1.09-7.48,1.01-7.48"/>
    <path class="cls-9" d="M167.17,204.78l5.28,8.22"/>
    <path class="cls-9" d="M99.6,483.14l69.72-4.13,10.05-.6,48.81-2.89,27.28-1.61"/>
    <path class="cls-9" d="M172.45,212.99l-30,36.34-20.86,23.32-28.83,33.81-3.51,6.55-2.33,5.76-1.09,3.97-.47,4.91.08,6.47,1.54,15.78,1.98,20.29,2.32,23.73,1.84,18.83,5.96,61.09.36,6.17.19,3.13,1.48,19.51.94,5.22,1.63,5.68,2.18,5.61,3.74,6.62,4.64,6.96,15.04,22.57,7.41,11.12,3.24,4.91,14.9,22.58,34.9,52.91,13.24,20.07,4.59,4.98,4.83,3.51,4.83,2.73,6.15,2.8,5.3,2.1,5.38.94,7.2.38"/>
    <path class="cls-9" d="M426.08,313.17l-8.26.47-44.54,2.56-12.52,1.85-12.44,2.33-12.34,2.82-12.22,3.3-12.09,3.76-5.94,2.11-5.67,2.01-11.44,4.56-7.66,4.25-7.33,4.79-6.98,5.29-6.01,5.24-5.67,5.61-5.3,5.97-2.93,3.76-1.97,2.53-2.4,3.54-2.08,3.06-3.1,6.74-1.91,4.82-.83,2.08-2.38,7.03-2.42,8.85-1.11,5.39-.73,3.59-1.26,9.09-.67,9.14.04,10.79.27,9.42.6,5.23.6,5.2"/>
    <path class="cls-9" d="M255.17,463.24l-28.37,1.92-58.17,3.95-69.58,4.72"/>
    <path class="cls-9" d="M700.87,98.13l1.26,18.9.89,13.46.27,4.09.24,3.71"/>
    <path class="cls-1" d="M652.87,750.09l-3.02-49.97-.45-7.42-6.84-113.21-13.66-205.02-1.01-15.2-4.2-63.13-2.61-38.9-3.44-51.24-2.43-34.74"/>
    <path class="cls-1" d="M652.87,750.09l-13.99,2.76-91.78,5.58-46.26,2.64-19.47,1.09"/>
    <path class="cls-1" d="M19.57,168.71l.46,5.18,3.24,34.25"/>
    <path class="cls-1" d="M25.65,238.2l5.15,64.99,5.27,66.4,11.77,148.45,14.1,177.82,7.22,92.87"/>
    <path class="cls-1" d="M613.97,153.12l-2.58-38.44-1.05-16.04"/>
    <path class="cls-1" d="M427.02,766.13l-269.6,16.94-14.18.91-74.09,4.74-8.53.6"/>
    <path class="cls-1" d="M481.37,762.15l-54.35,3.98"/>
    <path class="cls-1" d="M773.48,721.07l-120.6,29.02"/>
    <path class="cls-1" d="M610.34,98.63l-.7-5.59"/>
    <path class="cls-2" d="M609.64,93.05l-40.7,3.53-305.04,26.45-75.46,9.68-8.44.89-47.85,9.69-112.6,25.42"/>
    <path class="cls-2" d="M20.03,174.19l47.59-11.84,65.72-14.51,33.97-6.67,13.45-1.65,8.57-1.06,18.48-2.27,50.06-4.41,63.96-6.18,288.53-26.65"/>
    <path class="cls-2" d="M610.34,98.63l44.43-3.62,45.64-3.72,26.38-2.15,36.02-1.61,56.8-1.03"/>
    <path class="cls-41" d="M255.06,460.01l.11,3.23.12,3.31.99.04.87.46.6.79.19.97-.21.91-.57.75-.82.45-.93.08.07,2.92.06,2.8,12.18-.73,8.28-.35,1.03,1.05,39-1.67,11.8-2.64,16.43-.99,12.27,19.51.19,7.09,3.35,2.42,1.93,1.39,1.69,1.22,3.66-5.03,2.38.04,28.6,42.96,43.25,64.94,24.65,37.22,7.58,11.36,26.81,40.05,7.79-4.3,8.72-4.81-25.06-36.96-2.92-4.31-7.56-11.07,2.26-1.47-10.25-15.94-2.22-3.28-7.21-10.87-8.88-15.37-18.69-30-8.98-14.42-12.5-20.18-2.06-.09-3.34-.81-3.12-1.43-2.79-2.01-2.04-2.14-1.67-2.44-1.23-2.68-.77-2.85-.28-2.94.2-2.89.66-2.82,1.11-2.67,1.54-2.46,1.92-2.17,2.24-1.83,1.7,2.33,9.5-6.66,9.47-6.73-.14-5.53-.05-2.14-19.01.48-2.29.06-2.08,2.65-2.48,2.27-2.82,1.84-3.08,1.37-3.26.84-3.35.3-3.36-.24-3.27-.79-3.1-1.3-2.85-1.79-2.52-2.23-2.25-2.79-1.73-3.14-1.16-3.38-.56-3.54.06-3.58.68-3.52,1.28-3.34,1.84-3.07,2.34-2.72,2.78-2.27,3.12-1.75,3.38-1.19,3.54-.59-16.45-6.82-4.58-1.9-8.25-.24-15.85-5.8-33.17,2.14-16.63-.08,8.93-17.72-11.89-6.11-9.15-.04-.02-2.36-5.55-.25-8.68-1.67,2.26,6.74,3.77,5.8,2.85,2.81,2.22,3.16.89,2.76.66,3.66v4.87l-.74,4.28-1.21,4.01-3.11,5.96-4.52,5.76-5.73,6.55-6.81,5.33Z"/>
    <path class="cls-31" d="M416.71,262.67l.4,8.17,36.44-1.77.39,8.2,14.9,4.27,7.94-.54v-3.04l6.08-.47-.4-10.54,1.64-.05,15.66,5.22,2.33,32.71,16.21-1.25-1.87-32.63,10.75-7.07,4.74-.34-.52-7.19-14.38,1.03-.49-6.93-20.24,1.45.49,6.93-12.9.92-2.43-1.73-.36-7.5-28.38,1.37.44,9.01-9.42.46-.11-2.11-16.7.81.1,2.11-10.31.49ZM457.94,255.71l17.46-1.09,1.12,18.1-17.46,1.08-1.12-18.09ZM505.31,274.28l5.48-.37.48,6.95-5.48.37-.48-6.95ZM505.88,282.69l5.49-.37.49,7.21-5.48.38-.5-7.22ZM506.51,291.67l5.48-.38.48,6.98-5.48.38-.48-6.97Z"/>
    <path class="cls-31" d="M687.91,298.33l4.44,72.86.45,1.83.99,1.6,1.24,1.1,1.49.73,1.49.73,1.33,1,1.11,1.24.89,1.51.56,1.66.22,1.73,1.32,20.49.43,1.26.72,1.12.95.93,1.34.78,1.5.39,8.96-.51-1.16-23.09,6.89-.35-1.76-30.87,7.71-.54-2.06-32.09-6.19.12-3.33,32.76-10.55.6-2.96-45.55,1.6-2.5,1.4-1.87,1.95-1.4,2.41-.74,8.31-.31-.12-1.92-7.57.37-.35-6.44,7.54-.42-.21-3.46-25.47,1.48-1.34.31-1.24.6-1.08.84-.95,1.19-.63,1.37-.29,1.49ZM691.61,297.9l.22-.67.4-.58.59-.46.7-.24,7.71-.39.96,14.31-9.79,2.35-.78-14.33ZM692.89,319.91l10.01.73.87,12.95-9.85,2.16-1.03-15.84ZM694.37,342.61l10.06.99.78,11.8-9.98.56-.87-13.36ZM695.35,357.64l9.98-.53.49,7.38-10.05-.28-.42-6.57ZM695.93,366.09l9.84.44.72,12.99h-1.52l-2.1-3.08-2.41-2.68-3-2.03-.97-.86-.43-.88-.12-3.91ZM697.12,312.92l5.15-1.23.42,6.31-5.3-.41-.27-4.67ZM698.74,336.61l5.14-1.23.43,6.32-5.3-.41-.27-4.68ZM703.02,295.41l6.82-.39.42,6.84-2.33,1.1-1.91,1.36-2.27,2.25-.73-11.16ZM706.21,385.57l1.65-.51,1.06,18.23-1.74-1.14-.97-16.58ZM706.9,356.98l10.38-.47-2.1,20.76-6.89,1.63-1.38-21.92ZM708.32,384.91l1.5-.47,1.09,18.72-1.59-1.14-1-17.11ZM710.31,384.3l1.72-.54,1.12,19.27-1.81-1.13-1.03-17.61ZM712.48,383.62l1.58-.49,1.15,19.79-1.67-1.14-1.06-18.15Z"/>
    <path class="cls-39" d="M259.69,490.3l1.06,6.74,2.02,4.75,2.96,2.73,3.97,1.64.51-.51.5-.5-2.65-1.24-1.05-1.41-.04-1.83.86-1.6,2.3-.62,2.18.58,2.65.5,2.26-.16,3.7-1.87,2.18-1.94,1.29-2.81.31-3.5-.7-2.77-1.57-2.1-2.37-1.55-2.61-1.01-2.76-.67,2.3-4.44-.98-1.09-8.28.35-6.9,10.59-1.13,3.73Z"/>
    <path class="cls-31" d="M345.98,502.65l.46,3.98,1.14,2.84,2.26,2.25,1.05-1.48,2.18,1.21,7.01-11.06-3.35-2.42-.19-7.09-7.2-2.17-2.34,6.07-.7,3.86-.32,4.01Z"/>
    <path class="cls-31" d="M228.69,349.18l1.89,1.18,1.49,2.87,1.98,1.49,2.07.78,2.04-.05,1.95-1.5,2.35-1.46-1.66-.1-1.46-.62-.89-.92-.36-.89.07-1.09.14-2.07-1.56-.06-1.73-.35-1.64-1.39-.52-1.02-.03-1.07-1.32,2.21-1.84,3.1-.98.97Z"/>
    <path class="cls-7" d="M301.81,596.91l3.2-4.55"/>
    <path class="cls-19" d="M301.81,596.91l3.2-4.55"/>
    <path class="cls-7" d="M362.01,501.78l-29.52,47.43-17.32,27.84-.99,1.6"/>
    <path class="cls-7" d="M139.92,571.34l50.43-4.92,71.39-8.49"/>
    <path class="cls-7" d="M202.06,625.73l3.03,1.18,3.86-.97,3.7-2.08.6-.24,3.57-1.42,10.98-3.11,5.37-.7,11.14.54,6.79-1.54,1.93.14,3.74,2.18,4.28-11.06,1.64-3.35,2.57-.94,2.89-.23,3.27.86,3.35.62,3.19-.7,5.06-2.11,2.57-.31,4.36.23,3.27.16,4.13-1.01,2.35-1.96,2.11-3"/>
    <path class="cls-7" d="M202.06,625.73l-3.83-5.02"/>
    <path class="cls-7" d="M189.71,646.84l13.97-5.86,13.61-4.98,11.66,2.56,10.37,1.54,10.12,3.97,2.43,7.04,4.22,9.54-1.95,8.71-3.23,14.6"/>
    <path class="cls-7" d="M249.45,644.06l2.17-13.82,5.38-8.65-.23-1.88"/>
    <path class="cls-7" d="M543,576.48l-1.4-2.23-3.25-4.7-4.34-8.87-5.45-11.15"/>
    <path class="cls-7" d="M539.55,503.06l-2.59-3.75-4.31-3.67-4.52-.64-7.75.86-3.08,2.24,1.58,4.65-13.82,9.42-5.11,3.49-19.58,11.84-29.24,2.27-1.32.1-5.37.88-16.85,10.99-12.2,7.96"/>
    <path class="cls-7" d="M372.45,391.61l42.63-2.76,10.4-5.3"/>
    <path class="cls-7" d="M420.36,376.17l5.11,7.37,15.5,22.38,17.19,32.49,18.2,24.68,2.75,6.54"/>
    <path class="cls-7" d="M129.26,555.31l-3.65,4.89-.66,2.34.24,2.3.83,2.32,7.31,95.15,2.32,30.11"/>
    <path class="cls-7" d="M47.84,518.04l8.07-.9-1.17-33.88,7.62-.55"/>
    <path class="cls-7" d="M280.84,166.97l.48,6.25"/>
    <path class="cls-7" d="M282.39,187.05l-3.33,23.29"/>
    <path class="cls-7" d="M212.81,195.94l2.18,9.5"/>
    <path class="cls-7" d="M602.31,581.25l31.09-1.36,9.17-.4"/>
    <path class="cls-7" d="M562.84,606.58l-10.64-16.04-7.25-10.93"/>
    <path class="cls-7" d="M526.94,546.24l-.74-1.51-10.06-15.78-5.62-8.81"/>
    <path class="cls-7" d="M508.44,517.09l-3.38-4.93"/>
    <path class="cls-7" d="M426.62,486.76l-9.93-1.76-8.99-1.59-35.17,1.46-10.52,16.91"/>
    <path class="cls-7" d="M210.1,184.11l-1.86-8.09"/>
    <path class="cls-7" d="M315.17,577.06l-2.72-3.77-2.25-3.58-1.64-3.38-.55-3.08-.35-4.59.6-4.5,1.03-7.61-.35-5.64-1.67-4.71-1.87-2.61-2.65-2.03-2.49-1.55-7.87-3.58-4.48-3-2.38-2.45-4.09-6.47-2.42-4.13-1.67-1.75-2.19-1.17-2.18-.9-2.8-.9"/>
    <path class="cls-7" d="M308.27,554.15l3.79-2.59,2.65-1.63,4.06-1.33,2.72-.39,4.44-.31,3.5.39,3.06.93,5.19,3.05,4.05,3.89,2.88,4.6,2.96,8.49,2.65,4.28,3.5,2.18,6.78,1.17,12.15,1.24,3.66-.43,2.68-2.37,3.43-8.65,2.53-9.03,2.73-7.09,2.88-3.58,4.28-3.19,3.49-2.79"/>
    <path class="cls-7" d="M229.9,521.41l8.68-4.35"/>
    <path class="cls-7" d="M251.35,542.84l-4.17.35-10.74-2.58"/>
    <path class="cls-7" d="M481.8,650.04l2.07,3.13,24.54,37.09,17.82,26.92"/>
    <path class="cls-7" d="M277.65,253.31l2.95,27.84"/>
    <path class="cls-7" d="M222.79,287.28l6.06-.59,10.92-1.05"/>
    <path class="cls-7" d="M235.5,368.66l.26-3.53.37-3.27,2.04-6.42,1.95-1.5,2.35-1.46,2.3-1.38,2.23-.59"/>
    <path class="cls-7" d="M246.75,373.86l-5.99-1.43-2.42-1.3-2.84-2.46-1.57.14-1.05.33-1.19.41-2.35,2.31"/>
    <path class="cls-7" d="M222.28,355.79l1.51,1.73.2.81-.09,1.38.19.87,2.33,3.35,1.3.75,1.73.93,1.41,1.2.51.83.26,1.11.08.81"/>
    <path class="cls-7" d="M194.91,270.19l16.9,15.45"/>
    <path class="cls-7" d="M220.22,296.68l2.27-.29.88-.36,1.23-.5,1.82-1.39,1.39-1.81.88-2.11.31-2.26-.16-1.27-.13-1-.87-2.11-1.38-1.81-1.81-1.4-2.11-.88-2.27-.3-2.27.29-2.11.86-1.81,1.39-1.4,1.81-.88,2.11-.31,2.26.29,2.27.87,2.11,1.39,1.81,1.81,1.4,2.11.88,2.27.3"/>
    <path class="cls-7" d="M197.63,250.31l-1.39,2.35-1.93,3.82-1.98,3.88-1.52,4.27-1.33,4.39-.16,2.35.25,1.61,2.81,3.39,3.65,5.77,2.64,5.59"/>
    <path class="cls-7" d="M200.89,282.02l-2.22,5.7-5.21,13.42"/>
    <path class="cls-7" d="M215.64,288.58l-3.84,1.59-4.61,3.1-10.66,6.22-3.06,1.65-3.09,1.29-39.17,3.98"/>
    <path class="cls-7" d="M238.31,346.8l-.14,2.07-.07,1.09.36.89.89.92,1.46.62,1.66.1"/>
    <path class="cls-7" d="M232.82,342.9l.03,1.07.52,1.02,1.64,1.39,1.73.35,1.56.06,1.46-.11,1.08-.04,1.05.16,1.22.54,1.7,1.5,1.2,1.1.97.57,1.96.29,1.95-.13,2.33-.73"/>
    <path class="cls-7" d="M228.69,349.18l1.89,1.18,1.49,2.87,1.98,1.49,2.07.78,2.04-.05"/>
    <path class="cls-7" d="M221.03,348.16l2.64,4.35"/>
    <path class="cls-7" d="M239.39,331.11l-1.05,1.88-.66,2.47-.83,2.32-1.15,1.92-2.87,3.19-1.32,2.21-1.84,3.1-.98.97-2.72,1.27-1.46.89-.84,1.17-.53,1.12-.86,2.16-.66,1.24-3.34,3.08"/>
    <path class="cls-7" d="M220.93,321.51l5.61-5.54,5.02-4.12,6-4.57"/>
    <path class="cls-7" d="M221.03,291.49l2.35,4.54,8.18,15.82,1.12,2.17,1.3,3.79,2.26,7.14,1.38,3.41,1.77,2.75,4.72,7.33,9.13,11.5,7.41,8.57"/>
    <path class="cls-7" d="M221.03,291.49l1.12-.91.68-1.26.15-1.43-.19-.61-.22-.76-.91-1.12-1.27-.68-1.43-.15-1.38.42-1.11.9-.68,1.26-.15,1.43.41,1.38.9,1.11,1.27.69,1.43.15,1.38-.41"/>
    <path class="cls-7" d="M79.91,666.43l53.42-4.13"/>
    <path class="cls-7" d="M182.3,227.44l7.39,10.65"/>
    <path class="cls-7" d="M211.76,239.77l-6.79-2.5-8.31-.68-6.96,1.49-3.99,3.98-2.36,5.14-2.36,6.15"/>
    <path class="cls-7" d="M126.39,138.48l1.28,5.82.93,4.27,1.38,6.3"/>
    <path class="cls-7" d="M277.01,377.57l-16.37-19.06"/>
    <path class="cls-7" d="M271.87,399.77l.31-6.78,1.71-7.32,3.11-8.11,6.07-7.24,7.48-5.92,7.71-4.28,8.09-2.34,8.41.71,6.54,2.25,5.06.16"/>
    <path class="cls-7" d="M172.45,212.99l8.41,11.98"/>
    <path class="cls-7" d="M700.42,91.3l.45,6.83"/>
    <path class="cls-6" d="M700.42,91.3l.45,6.83"/>
    <path class="cls-7" d="M628.9,374.47l22.4-2.13,20.34-1.94"/>
    <path class="cls-4" d="M442.78,339.65l.05-3.98.59-4.02,1-3.93,1.41-3.81,1.76-3.57,2.11-3.38,2.45-3.14,2.79-2.5"/>
    <path class="cls-4" d="M199.17,689.45l2.76-1.44,2.07-1.52,1.9-1.9,1.21-1.95.89-2.22.43-2.73-.23-2.65-.66-3.15"/>
    <path class="cls-4" d="M99.42,480.01l-37.05,2.7"/>
    <path class="cls-4" d="M417.82,313.64l-4.15-63-4.84-56.88-.54-8.4-42.17,1.1-5.84,1.94-6.7,4.21-15.55,17.74-47.77,3.33-4.22,3.1"/>
    <path class="cls-4" d="M240.29,382.99l-7.7-7.75-3.25-3.37-4.62-4.78-2.75-2.98-3.71-4-3.64-3.24-3.97-2.35-6.38-.86-10.05.31-8.25.97-5.61,2.18-4.21,2.45-5.21,3.74-3.78,5.1-4.55,9.62-1.48,5.84-.22,5.06,2.46,9.66.7,9.45,1.16,15.41,1.52,20.29,1.89,25.37.69,9.9.95,13.78.65,16.09.13,7.25.04,2.09.93,17.61.29,8.55"/>
    <path class="cls-4" d="M171.1,518.22l-33.78,1.8-12.28,4.95-5.27-8.27,7.2-4.36,1.68-.67,1.75-.23,40.53-2.57"/>
    <path class="cls-4" d="M125.05,524.98l-10.83,7.76"/>
    <path class="cls-4" d="M172.03,535.83l-23.68,1.4-2.92.43-4.98,2.22-1.24,1.99-.19,2.22.82,3.35,2.62,3.85,8.58-4.9,1.65-.67,1.95-.31,17.69-1.03,9.84-.57,7.39-.43,40.05-2.34,6.85-.41"/>
    <path class="cls-4" d="M181.96,534.83l47.41-2.77.23,8.96"/>
    <path class="cls-4" d="M229.36,532.06l.54-10.65"/>
    <path class="cls-4" d="M189.54,543.37l.8,23.05"/>
    <path class="cls-4" d="M164.08,408.05l-70.98,4.7"/>
    <path class="cls-4" d="M225.89,439.72l-59.14,4.03"/>
    <path class="cls-4" d="M228.55,417.9l-63.32,5.56"/>
    <path class="cls-4" d="M160.91,388.94l-69.65,4.97"/>
    <path class="cls-4" d="M148.16,284.09l-6.38,4.25-.8,1.69.29,1.92,9.93,14.46-.74,7.3-5.01,2.27-3.4,1.78-2.88,2.57-1.95,3.9-.7,4.13,2.18,21.81,1.64,3.58,2.65,3.11,4.44,1.49,5.06-.4,3.58-1.54"/>
    <path class="cls-4" d="M85.35,327.65l9.2,3.86,41.97-3.16"/>
    <path class="cls-4" d="M94.55,331.51l1.47,17.36-9.05,1.03"/>
    <path class="cls-4" d="M121.58,272.65l28.87,41.06,6.23,10.36.24.91.58,2.2,1.68,20.64-.24,3.04-.7,2.73-2.19,2.82"/>
    <path class="cls-4" d="M148.16,284.09l1.84,1.43,2.44.49,23.19-2.04,3.07-.92,6.43-4.63.31-1.64-2.46-4.33-1.84-.2-3.87,2.27-24.86,1.78-2.32,1.06-1.41,2.07-.66,2.18.14,2.47"/>
    <path class="cls-4" d="M483.86,653.17l8.2-4.69,12.99-7.42,13.47-3.52,12.38-.46,17.45,1,8.63,3.68,9.34,5.76,7.95,9.58,15.66,23.99"/>
    <path class="cls-4" d="M612.61,596.61l-39.61,25.28-24.63,16.18"/>
    <path class="cls-4" d="M626.23,509.12l-52.11,30.88"/>
    <path class="cls-4" d="M602.31,581.25l-7.3,4.37-5.59,1.44-6.86-1.98-6.67-9.56,15.33-10.51"/>
    <path class="cls-4" d="M575.88,575.51l-23.67,15.03-18.65,11.33-5.53,2.03-39.25,1.79-15.18,10.01-10.11,6.66"/>
    <path class="cls-4" d="M571.24,535.79l-14.93,10.05-22.3,14.85-19.54,12.44-2.57.86-42.91,3.04-13.72,9.14-10.93,7.28"/>
    <path class="cls-4" d="M536.38,515.59l-20.23,13.36-20.52,13.5-4.6,1.71-40.42,2.73-14.03,9.27-11.76,7.77"/>
    <path class="cls-4" d="M556.31,545.84l6.56,10.47,9.52,1.25,9.73-5.84"/>
    <path class="cls-4" d="M536.38,515.59l9.26,10.91h7.72l9.23-3.36"/>
    <path class="cls-4" d="M536.38,515.59l.46-6.15.71-5.21,2-1.17,5.94-4.23"/>
    <path class="cls-4" d="M426.02,472.74l.6,14.02,2.84-.06,20.78-1.04,29.6-2.11,53.68-2.97"/>
    <path class="cls-4" d="M515.41,450.78l-26.99,18.33-9.31.52-29.89,1.67-23.21,1.44-19.97.53"/>
    <path class="cls-4" d="M479.12,469.64l.71,13.91"/>
    <path class="cls-4" d="M449.23,471.31l1.01,14.36"/>
    <path class="cls-4" d="M326.39,360.91l6.69,3.58,11.92,14.18,5.45,7.94,1.87,8.18-.47,9.82"/>
    <path class="cls-4" d="M360.82,414.96l17.52-8.79,30.2-2.96,13.3,4.65,13.94-.84,5.2-1.09,12.97-2.71,5.49-8.24,13.26-7.9"/>
    <path class="cls-4" d="M392.36,437.78l34.5-2.57,10.54,3.39,14.07-.02,6.71-.16,6.7-3.7,8.53-5.79,18.6-13.04"/>
    <path class="cls-4" d="M406.04,473.28l.91-2.19,1.84-4.3.62-3.54v-4.51l-.39-4.68-1.63-4.98-3.74-5.14-3.12-3.19-4.05-1.87-4.13-1.09-6.28-.18-16.08-6.95-9.17-15.68-8.96-10.36-24.76-36.92-.62-3.58-.08-3.19-14.72-30.65"/>
    <path class="cls-4" d="M538.29,305.98l-8.71-119.87-120.76,7.66"/>
    <path class="cls-4" d="M156.1,187.63l52.15-11.61,24.38-5.53,8.26-1.01,39.96-2.51,8.55-.92,2.33-.86,1.25-1.33.78-2.41.16-2.96-1.17-14.26-1.24-2.73-1.56-1.01-2.34-.3-14.87,1.16"/>
    <path class="cls-4" d="M797.09,470.6l8.72-5.27"/>
    <path class="cls-4" d="M784.78,405.4l-27.32.76-4.13.67-5.15,1.96-45.78,2.24-8.23.4"/>
    <path class="cls-4" d="M701.19,540.68l9.63-.6,64.83-4.07,43.42-2.73"/>
    <path class="cls-4" d="M182.16,543.8l-.2-8.97-.87-19.07-.22-4.93-.84-18.51-.64-13.91"/>
    <path class="cls-4" d="M702.13,117.03l-46.69,3.69,1.16,12.66,1.01,2.18,1.64,1.4,2.26,1.06,2.38.43,39.41-3.86"/>
    <path class="cls-4" d="M783.4,127.85l-4.71,1.56-4.79,1.13-51.25,5.99-3.03-.07-3.43-.62-13.16-5.35"/>
    <path class="cls-4" d="M783.4,127.85l29.9-4.55,1.95-1.64.86-2.49-.16-4.83-1.01-3.51-2.34-2.02-4.4-1.01-22.04,1.4-2.53.54-1.13,1.01-.66,1.64.16,2.41,1.4,13.04"/>
    <path class="cls-4" d="M743.95,501.83l8.68,7.9,2.65,1.24,3.43.78,11.14-.39"/>
    <path class="cls-4" d="M784.31,408.78l-24.75,1.27"/>
    <path class="cls-4" d="M705.6,460.07l36.25-2.9-1.13-23.55,43.11-2.23"/>
    <path class="cls-4" d="M651.58,380.18l38.74-2.96"/>
    <path class="cls-4" d="M767.78,629.52l9.34-.43,1.51.18,1.34.72.84.94.51,1.15.13,1.26.25,13.09"/>
    <path class="cls-4" d="M668.14,638.22l48.9-2.94,25.94-1.56,2.61.38,2.47.9,2.25,1.37,1.93,1.79,1.51,2.09,1.07,2.34.6,2.5,2.37,31.06"/>
    <path class="cls-4" d="M171.06,516.13l10.02-.36"/>
    <path class="cls-4" d="M156.06,356.41l6.36,7.24,4.74,4.77,8,6.84,2.81,1.61,3.07,1.09,3.59.71,3.39.41,26.38-2.07,1.89-1.03,1.66-1.84,2.47-4.82,1.55-5.22"/>
    <path class="cls-4" d="M162.43,363.65l-73.48,6.53"/>
    <path class="cls-4" d="M235.28,394.55l-7.52-.6-64.39,4.65"/>
    <path class="cls-4" d="M150.89,691.71l5.78,80.81.76,10.56"/>
    <path class="cls-4" d="M282.25,296.77l-.52-4.96-1.13-10.65-21.13.24-6.01,2.25-6.54,1.36-7.14.62"/>
    <path class="cls-4" d="M281.72,291.81l23.83-1.18,8.38,1.95,24.9-.26"/>
    <path class="cls-4" d="M305.73,332.37l-5.29-7.25-9.01-13.2-6.2-8.78-2.98-6.37"/>
    <path class="cls-4" d="M237.56,307.28l7.43-3.5,8.27-2.7,11.53-2.35,17.45-1.95"/>
    <path class="cls-4" d="M283.51,252.84l-.49-8.36,10.36-6.61-4.99-7.17-6.6-7.98"/>
    <path class="cls-4" d="M156.93,324.98l35.43-2.55,5.45-2.01,9.47-6.08"/>
    <path class="cls-4" d="M244.59,202.12l3.04,18.56,4.79,5.13,4.54,29.22"/>
    <path class="cls-4" d="M214.01,223.91l33.62-3.23"/>
    <path class="cls-4" d="M256.96,255.04l2.51,26.36"/>
    <path class="cls-4" d="M142.44,249.34l13.7,5.03,12,.23,6.56-.42,6.28-.81,16.65-3.06,9.83-2.83"/>
    <path class="cls-4" d="M211.18,206.12l2.51,13.04.32,4.75-.39,5.61-.55,5.14-1.32,5.11-1.6,3.33-2.69,4.38"/>
    <path class="cls-4" d="M207.47,247.48l12.79,5.09,12.26,1.75,24.44.71,20.7-1.73,5.86-.47,27-2.18"/>
    <path class="cls-4" d="M481.37,762.15l-6.08-4.52-5.61-1.56-17.29.46-12.93,1.09-6.7,3.58-5.75,4.92"/>
    <path class="cls-4" d="M169.08,248.53l5.62,5.65"/>
    <path class="cls-4" d="M80.17,201.45l34-7.05,2.45-2.14.9-2.61.7-3.43,32.3-7.05"/>
    <path class="cls-4" d="M235.35,508.02l-54.49,2.81"/>
    <path class="cls-16" d="M132.17,143.29l1.16,4.24,3.19,10.5,8.68,13.07,5.32,8.07,5.58,8.46,2.36,3.58"/>
    <path class="cls-16" d="M172.45,212.99l38.74-6.88,3.8-.67,29.6-3.33,8.82-.1,7.39.32,10.09,3.38,8.16,4.63,6.97,6.43,5.14,7.12,19.34,26.76,22.56,31.24,5.76,10.42,5.63,10.18,6,5.22,5.14,2.95,6.45,2.61,11.23,2.92"/>
    <path class="cls-16" d="M344.46,302.5l-1.33,7.16-1.17,4.13-2.26,4.14-3.73,5.28"/>
    <path class="cls-16" d="M547.11,758.42l-1.7-28.88-1.21-20.64"/>
    <path class="cls-16" d="M227.4,470.36l.79,5.16.77,5.01,1.6,9.28,2.13,9.17,2.65,9.04,3.23,9.04,3.75,8.83,4.26,8.6,4.76,8.33,4.98,7.69,5.39,7.41,5.79,7.1,6.17,6.77,6.53,6.42,6.87,6.06,5.94,5.55,6.23,5.21,2.54,1.88,3.99,2.97,6.79,4.46,7.03,4.07,7.34,3.71,7.54,3.28,7.71,2.85,7.86,2.39,8,1.71,8.09,1.19,8.15.66,8.17.12,8.17-.42,8.79-1.05,8.7-1.66,8.56-2.28,8.37-2.87,4.36-2.3,12.16-7.83"/>
    <path class="cls-16" d="M426.08,313.17l28.87-1.85,58.92-3.78,24.42-1.57,70.65-4.53,4.71-.3,10.05-5"/>
    <path class="cls-16" d="M614.94,662.54l1.36-3.31.51-3.5.08-4.63-3.35-48.45-.39-2.96-.54-3.08-3.63-5.6-6.67-9.76-11.1-16.24-9.08-13.28-8.01-11.72-2.88-4.21-8.65-12.66-17.1-24.31-11.99-18.25-18.1-29.79-23.4-34.89-19.31-28.82-7.47-11.82-8.49-13.46-13.96-22.13-16.7-26.48"/>
    <path class="cls-16" d="M71.29,696.48l64.36-4.06,15.24-.71,48.29-2.26,24.86-4.44,17.19-.67,9.71-.38,28.58-1.99,8.09-.08,7.25.43,6.89,1.25,6.62,1.87,7.25,2.68,6.5,3.15,5.77,3.66,6.3,4.75,12.62,11.53,10.82,7.39,6.15,3.12,7.25,2.8,8.09,2.41,8.26,1.48,7.86.54,8.57-.39,39.17-2.26,73.27-6.42,9.97-2.73,8.72-3.5,9.26-4.78,7.27-3.76,38.47-24.06,19.08-12.5,3.58-3.19,2.33-2.84"/>
    <path class="cls-16" d="M830.05,280.46l1.6-36.37,1.36-12.77,2.42-17.21,1.24-8.65.08-3.35-.47-3.35-1.48-3.11-2.41-2.97-23.21-18.53-3.35-1.79-4.6-1.01-19.08.47-76.02,5.44"/>
    <path class="cls-16" d="M704.72,155.99l1.41,21.26,7.36,110.69"/>
    <path class="cls-16" d="M660.01,513.02l48.86-2.81,15.02-.87,4.85-.79,4.73-1.35,3.65-1.47,3.5-1.79,3.32-2.11,5.33-4.09,3.86-4.09,2.89-3.73,3.33-3.35,3.71-2.92,4.16-2.51,4.45-1.97,5.25-1.94,5.01-1.25,4.84-.54,3.94-.97,6.37-3.85"/>
    <path class="cls-16" d="M651.58,380.18l8.43,132.84,2.55,40.21.35,2.29.89,2.15,1.37,1.87,1.63,1.39,1.9,1.01,2.08.56,3.98-.12"/>
    <path class="cls-16" d="M642.57,579.49l8.31,3.19,16.31-.46,8.68-.24"/>
    <path class="cls-16" d="M675.47,575.03l-8.54.31-17.14.6-7.22,3.55"/>
    <path class="cls-16" d="M712.15,560.32l-37.39,2.06.72,12.64.4,6.95.68,11.75"/>
    <path class="cls-16" d="M715.5,611.7l64.62-4.14-4.47-71.55"/>
    <path class="cls-16" d="M830.05,280.46l-116.55,7.49-28.58,1.84-39.79,2.55-13.99.9-7.44,2.91"/>
    <path class="cls-16" d="M684.92,289.78l.58,9.45,4.83,78,3.47.04,1.64.67,1.49.95,1.3,1.19,1.11,1.44.82,1.61.53,1.74,1.71,26.16,3.2,49.05,2.66,40.74.62,9.4,1.95,29.86,1.32,20.24,2.07,31.64,1.29,19.74,1.54,23.58"/>
    <path class="cls-16" d="M714.21,591.96l-37.66,1.77-2.61.12-1.76.54-1.76.93-1.56,1.27-1.27,1.54-.86,1.55-.58,1.68-.27,1.76,2.26,35.1,2.79,43.4.51,2.69.97,2.56,1.4,2.35,1.79,2.06,2.19,1.76,2.47,1.34,2.67.86,2.79.38,2.81-.13,63.32-16.51,3.08-1.18,2.85-1.65,2.55-2.09,2.19-2.48,1.56-2.44,1.2-2.65.82-2.78.99-3,1.38-2.85,1.75-2.64,2.21-2.5,2.54-2.17,6.71-4.13,31.21-19.16,3.66-2.49,2.71-2.33,2.38-2.66,2-2.95,1.63-3.3,1.17-3.49.68-3.62.18-3.68-.54-7.4-7.71-62.05-3.51-28.25-.98-4.42-1.31-4.33-1.65-4.21-1.97-4.07-2.53-4.26-2.89-4.03-3.22-3.77-3.91-5.33-4.11-7.99-2.71-5.81-2.27-6-1.83-6.14-1.38-6.27-.93-6.55-.03-.46-.41-6.15.05-6.62.4-6.64.44-3.2.46-3.38,1.4-6.49,1.89-6.38,2.67-6.91,3.26-6.66,3.81-6.36,4.53-7.59,4.23-7.77,3.93-7.92,3.97-8.9,3.58-9.07,3.19-9.21,3.66-13.86,3.03-12.85,1.09-7.48,1.01-7.48"/>
    <path class="cls-16" d="M167.17,204.78l5.28,8.22"/>
    <path class="cls-16" d="M99.6,483.14l69.72-4.13,10.05-.6,48.81-2.89,27.28-1.61"/>
    <path class="cls-16" d="M172.45,212.99l-30,36.34-20.86,23.32-28.83,33.81-3.51,6.55-2.33,5.76-1.09,3.97-.47,4.91.08,6.47,1.54,15.78,1.98,20.29,2.32,23.73,1.84,18.83,5.96,61.09.36,6.17.19,3.13,1.48,19.51.94,5.22,1.63,5.68,2.18,5.61,3.74,6.62,4.64,6.96,15.04,22.57,7.41,11.12,3.24,4.91,14.9,22.58,34.9,52.91,13.24,20.07,4.59,4.98,4.83,3.51,4.83,2.73,6.15,2.8,5.3,2.1,5.38.94,7.2.38"/>
    <path class="cls-16" d="M426.08,313.17l-8.26.47-44.54,2.56-12.52,1.85-12.44,2.33-12.34,2.82-12.22,3.3-12.09,3.76-5.94,2.11-5.67,2.01-11.44,4.56-7.66,4.25-7.33,4.79-6.98,5.29-6.01,5.24-5.67,5.61-5.3,5.97-2.93,3.76-1.97,2.53-2.4,3.54-2.08,3.06-3.1,6.74-1.91,4.82-.83,2.08-2.38,7.03-2.42,8.85-1.11,5.39-.73,3.59-1.26,9.09-.67,9.14.04,10.79.27,9.42.6,5.23.6,5.2"/>
    <path class="cls-16" d="M255.17,463.24l-28.37,1.92-58.17,3.95-69.58,4.72"/>
    <path class="cls-16" d="M700.87,98.13l1.26,18.9.89,13.46.27,4.09.24,3.71"/>
    <path class="cls-13" d="M652.87,750.09l-3.02-49.97-.45-7.42-6.84-113.21-13.66-205.02-1.01-15.2-4.2-63.13-2.61-38.9-3.44-51.24-2.43-34.74"/>
    <path class="cls-13" d="M652.87,750.09l-13.99,2.76-91.78,5.58-46.26,2.64-19.47,1.09"/>
    <path class="cls-13" d="M19.57,168.71l.46,5.18,3.24,34.25"/>
    <path class="cls-13" d="M25.65,238.2l5.15,64.99,5.27,66.4,11.77,148.45,14.1,177.82,7.22,92.87"/>
    <path class="cls-13" d="M613.97,153.12l-2.58-38.44-1.05-16.04"/>
    <path class="cls-13" d="M427.02,766.13l-269.6,16.94-14.18.91-74.09,4.74-8.53.6"/>
    <path class="cls-13" d="M481.37,762.15l-54.35,3.98"/>
    <path class="cls-13" d="M773.48,721.07l-120.6,29.02"/>
    <path class="cls-13" d="M610.34,98.63l-.7-5.59"/>
    <path class="cls-25" d="M609.64,93.05l-40.7,3.53-305.04,26.45-75.46,9.68-8.44.89-47.85,9.69-112.6,25.42"/>
    <path class="cls-25" d="M19.68,174.19l47.59-11.84,65.72-14.51,33.97-6.67,13.45-1.65,8.57-1.06,18.48-2.27,50.06-4.41,63.96-6.18,288.53-26.65"/>
    <path class="cls-25" d="M613.44,98.38l44.43-3.62,45.64-3.72,27.22-2.19,35.18-1.57,53.7-.78"/>
    <path class="cls-11" d="M314.18,578.66l-9.16,13.7"/>
    <path class="cls-11" d="M426.05,518.17l71.66,104.4"/>
    <path class="cls-11" d="M418.23,432l.06,18.81"/>
    <path class="cls-11" d="M394.96,403.3l.74,17.36"/>
    <path class="cls-11" d="M281.32,173.22l1.06,13.83"/>
    <path class="cls-11" d="M558.53,150.33l-.63,17.77"/>
    <path class="cls-11" d="M210.1,184.11l2.71,11.83"/>
    <path class="cls-10" d="M158.45,191.21l8.71,13.57"/>
    <path class="cls-10" d="M703.54,138.29l1.18,17.7"/>
    <path class="cls-12" d="M615.22,171.26l-1.24-18.14"/>
    <path class="cls-12" d="M23.27,208.14l2.38,30.06"/>
    <path class="cls-24" d="M314.18,578.66l-9.16,13.7"/>
    <path class="cls-24" d="M426.05,518.17l71.66,104.4"/>
    <path class="cls-24" d="M418.23,432l.06,18.81"/>
    <path class="cls-24" d="M394.96,403.3l.74,17.36"/>
    <path class="cls-24" d="M281.32,173.22l1.06,13.83"/>
    <path class="cls-24" d="M558.53,150.33l-.63,17.77"/>
    <path class="cls-24" d="M210.1,184.11l2.71,11.83"/>
    <path class="cls-15" d="M158.45,191.21l8.71,13.57"/>
    <path class="cls-15" d="M703.54,138.29l1.18,17.7"/>
    <path class="cls-14" d="M615.22,171.26l-1.24-18.14"/>
    <path class="cls-14" d="M23.27,208.14l2.38,30.06"/>
    <path class="cls-28" d="M502.33,393.38l12.61,17.91,27.57-18.38-1.95-31.07-20.24-4.44-17.99,35.98Z"/>
    <path class="cls-28" d="M288.2,189.56l1.48,23.73,48.25-3.01-1.48-23.73-48.25,3.01Z"/>
    <path class="cls-28" d="M532.16,194.95l5.28,83.54,11.88-.75-5.27-83.54-11.88.75Z"/>
    <path class="cls-28" d="M421.31,297.58l.33,6.83,29.52-1.43-.09-1.98,1.97-.1.06,1.37,13.3-.64-.08-1.69,1.18-.05-.37-7.74-15.92.77-.81-16.7-2.41.12-.15-3.08-26.08,1.27.5,10.46,5.53-.27.13,2.68-5.52.27.4,8.12,3.65-.17.08,1.71-5.21.25ZM429.91,284.63l18.19-.8.6,13.53-3.33.15.08,1.78-11.24.49-.15-3.21-3.62.16-.53-12.09Z"/>
    <path class="cls-28" d="M93.71,228.98l1.8,26.89,26.03-1.74-1.8-26.89-26.04,1.74Z"/>
    <path class="cls-28" d="M351.87,362.9l.75,12.71,6.98-.41,47.08-2.77-.75-12.7-47.08,2.77-6.98.41Z"/>
    <path class="cls-28" d="M568.56,637.99l2.8,4.11,3.46-2.35,1.03,1.51,7.34,11.26,3.58,5.47,3.06-2,2.59-1.69,2.25-2.11,1.84-2.48,1.39-2.75.88-2.96.35-2.98-.16-3-.66-2.93-1.16-2.78-1.6-2.53-5.14,3.88-1.16-1.54,3.08-2.1.79,1.17,11.77-8.01-8.01-11.77-11.77,8.01,3.39,4.98-19.94,13.58ZM581.13,637.66l7.51-5.11,1.18,1.56.98,1.92.63,2.06.24,2.14-.14,2.15-.62,2.37-1.09,2.19-1.27,1.62-7.42-10.89Z"/>
    <path class="cls-28" d="M187.34,704.19l1.43,24,24.87-1.49-1.43-24-24.87,1.49Z"/>
    <path class="cls-28" d="M450.12,197.68l1.84,28.24,20.67-1.35-1.84-28.24-20.67,1.35Z"/>
    <path class="cls-28" d="M102.24,747.25l.64,11.15,49.07-2.81-.64-11.15-49.07,2.81Z"/>
    <path class="cls-28" d="M411.9,357.17l9.27,14.02,14.1-10.05,2.96-13.24-4.21-5.84-22.12,15.11Z"/>
    <path class="cls-28" d="M96.21,314.89l.48,5.96,1.5-.12.19,2.33,29.57-2.34-.22-2.85,5.19-3.82,1.92,2.61,6.14-4.52-1.1-1.49,1.66-1.22-3.58-4.86-10.67,7.85-31.08,2.46Z"/>
    <path class="cls-28" d="M62.92,458.03l.87,13.68,23.82-1.51-.87-13.68-23.83,1.51Z"/>
    <path class="cls-28" d="M106.98,436.7l1.28,20.05,19.6-1.25-.73-11.46-8.98.57-.54-8.58-10.62.67Z"/>
    <path class="cls-28" d="M58.9,505.52l1.27,26.09,5.88-.29.13,2.63,4.02-.19-1.59-32.72-4.3.21.19,3.99-5.6.27Z"/>
    <path class="cls-28" d="M220.61,226.03l.37,10.1,2.2-.08.2,5.41-2.24.09.18,4.93,14.63-.54-.41-10.88,3.64-.14-.19-5.22-1.99.07-.16-4.33-16.24.6ZM224.42,236l8.74-.32.2,5.42-8.74.32-.2-5.42Z"/>
    <path class="cls-28" d="M124.21,698.95l.98,15.65,3.96-.24-.43-6.83,14.23-.89.61,9.87,3.95-.24-1.16-18.7-22.14,1.38Z"/>
    <path class="cls-28" d="M184.63,217.56l.88,4.17.65,3.09.6,2.88,22.51-4.74-2.13-10.14-22.51,4.74Z"/>
    <path class="cls-28" d="M159.1,242.66l7.45,6.12,13.98-17.03-2.07-1.7-2.23-1.83-3.15-2.58-13.97,17.02Z"/>
    <path class="cls-28" d="M585.14,538.97l8.03,12.41,7.92-5.13-8.02-12.41-7.93,5.13Z"/>
    <path class="cls-28" d="M71.2,304.38l1.81.02.08,5.63-1.87.1.43,1.45.76,1.32,1.03,1.12,1.54,1,1.76.55v-2.53l1.52-.12,4.29-11.56-6.66.16-.23-3.02-2.88.1v2.11l-.62.93-.55,1.33-.41,1.42Z"/>
    <path class="cls-28" d="M339.01,188.69l.81,12.43,4.15-.27-.48-7.33,7.8-.51-.33-5.1-11.96.78Z"/>
    <path class="cls-28" d="M132.94,215.44l.6,8.87,8.94-.6-.6-8.86-8.94.6Z"/>
    <path class="cls-28" d="M226.09,591.37l3.33,7.64,8.25-3.6-3.33-7.64-8.25,3.6Z"/>
    <path class="cls-28" d="M598.38,559.6l6.76,10.12,5.76-3.84-1.46-2.2-1.17.78-5.3-7.93-4.59,3.07Z"/>
    <path class="cls-28" d="M556.19,365.53l.4,8.4,8.41-.4-.41-8.4-8.4.4Z"/>
    <path class="cls-28" d="M178.41,677.24l.25,8.49,8.18-.24-.25-8.49-8.18.24Z"/>
    <path class="cls-28" d="M590.69,362.46l.38,7.63,6.95-.34-.38-7.63-6.95.34Z"/>
    <path class="cls-28" d="M570.6,363.85l.48,9.2,5-.27-.48-9.19-5,.26Z"/>
    <path class="cls-28" d="M720.26,389.62l.77,12.18,7.15-.45-.54-8.58,11.74-.75-1.14-18.14,10.42-.66-.69-10.9-2.52.16-1.59-25.12,6.7-.43-.92-14.44-6.42.41-.87-13.69-8.66.55,2.9,45.83-5.48.35.54,8.53-5.68.36,1.54,24.32-7.23.46Z"/>
    <path class="cls-28" d="M662.61,230.54l.39,7.44.32,6.28,17.64-.91,18.59-.96-.71-13.72-36.23,1.87Z"/>
    <path class="cls-28" d="M756.22,496.26l.68,10.89,35.2-2.2-.68-10.88-35.2,2.19Z"/>
    <path class="cls-28" d="M726.41,478.05l.89,17.99,9.15-2.17-.08-1.33,6.97-1.48v-1.44l9.47-2.03-.47-11.09-25.93,1.56Z"/>
    <path class="cls-28" d="M660.14,238.13l.95,18.38,20.49-1.06-.62-12.11-17.64.91-.32-6.28-2.86.15Z"/>
    <path class="cls-28" d="M660.4,403.42l1.47,20.43,9.54-.68-1.47-20.43-9.54.68Z"/>
    <path class="cls-28" d="M811,224.21l.37,7.68,14.54-.7-.32-6.74-2.65.13-.05-.94-11.89.57Z"/>
    <path class="cls-28" d="M695.24,200.78l.59,15.1,6-.23-.59-15.1-6,.23Z"/>
    <path class="cls-28" d="M806.75,549.07l.96,15.06,4.57-.29-.96-15.06-4.57.29Z"/>
    <path class="cls-28" d="M808.4,574.82l.95,14.93,4.57-.29-.95-14.93-4.57.29Z"/>
    <path class="cls-28" d="M817.01,196.12l.17,9.63,7.1-.12-.17-9.63-7.1.12Z"/>
    <path class="cls-28" d="M761.84,637.01l.32,7.27,8.8-.39-.32-7.28-8.8.4Z"/>
    <path class="cls-28" d="M644.55,309.53l.45,8.77,6.13-.31-.45-8.77-6.13.31Z"/>
    <path class="cls-28" d="M642.97,282.36l.24,4.76,11.25-.56-.24-4.77-11.25.57Z"/>
    <path class="cls-28" d="M603.06,310.22v6.33s5.69-.02,5.69-.02v-6.33s-5.69.01-5.69.01Z"/>
    <line class="cls-20" x1="15.05" y1="170.27" x2="15.88" y2="178.12"/>
    <path class="cls-42" d="M500.61,694.55c-2.02,1.75-6.67,6.28-8.61,13.71-1.18,4.52-.92,8.42-.55,10.85l25.01-1.93,13.63-4.5,21.12-10.48c-.99-2.19-4.74-9.84-13.75-14.33-8.7-4.35-16.77-2.99-19.18-2.5l-17.68,9.19Z"/>
  </g>
  <g id="building_A">
    <path class="cls-28" d="M456.62,650.81l7.62,11.5,7.75-5.22,15.34-10.33,18.97-12.78,35.08-1.92,6.8-2.6,17.5-10.73-3.65-5.96-1.88-3.06-2.8-4.57-22.19,13.6-32.89,2.25-4.73,3.08-1.65,1.08-1.58,1.03-12.29,8.03-2.26,1.47-15.35,10.04-7.79,5.09Z"/>
    <text class="cls-46" transform="translate(518.74 629.8)"><tspan x="0" y="0">A 楼</tspan></text>
  </g>
  <g id="building_B">
    <path class="cls-28" d="M464.16,601.54l7.21,10.87,14.82-9.84,35.08-1.92,6.8-2.6,17.5-10.73-3.65-5.96-1.87-3.06-2.8-4.57-22.2,13.61-32.88,2.24-18.02,11.96Z"/>
    <text class="cls-46" transform="translate(500.42 598.03)"><tspan x="0" y="0">B 楼</tspan></text>
  </g>
  <g id="building_C">
    <path class="cls-28" d="M448.67,570.94l7.21,10.88,14.82-9.84,35.08-1.92,6.8-2.6,17.51-10.73-3.66-5.96-1.87-3.06-2.8-4.57-22.2,13.6-32.88,2.25-18.02,11.95Z"/>
    <text class="cls-46" transform="translate(485.25 567.66)"><tspan x="0" y="0">C 楼</tspan></text>
  </g>
  <g id="building_D">
    <path class="cls-28" d="M429.72,542.94l7.22,10.87,12.96-10.73,35.97-3.14,7.04-2.19,18.23-9.03-3.65-5.96-1.87-3.06-2.8-4.57-22.19,13.6-32.89,2.25-18.01,11.96Z"/>
    <text class="cls-46" transform="translate(470.3 538.34)"><tspan x="0" y="0">D 楼</tspan></text>
  </g>
  <g id="main_library">
    <path class="cls-28" d="M273.59,399.04l5.55.25.02,2.36,9.15.04,11.89,6.11-8.93,17.72,16.63.08-.08-4.25.69-2.86,1.18-2.7,1.63-2.45,2.04-2.14,2.38-1.74,2.64-1.3,2.84-.81,2.92-.32,3.02.22,2.92.75,2.75,1.27,2.48,1.73,2.13,2.16,1.7,2.49,1.23,2.76.7,5.06,16.55-1.68-36.84-54.82-8.21,16.3-12.47-5.51-6.38-8.77-3.04,1.95-2.18-2.57-3.44,2.94-3.07,3.34-2.64,3.68-2.18,3.98-1.62,4-1.14,4.16-.65,4.27-.17,4.31Z"/>
    <text class="cls-46" transform="translate(293.99 398.6)"><tspan x="0" y="0">本部图书馆</tspan></text>
  </g>
  <g id="building_AJ">
    <path class="cls-28" d="M561.97,607.12l1.88,3.06,1-.58,3.15-1.82,3.57,4.74,13.92-9.19,2.12,1.75,10.25-6.81-5.22-7.85-12.42-2.04-16.53,11.13,2.71,4.88-3.54,2.19-.88.54Z"/>
    <text class="cls-46" transform="translate(572.46 600.94)"><tspan x="0" y="0">AJ 楼</tspan></text>
  </g>
  <g id="building_BJ">
    <path class="cls-28" d="M540.05,578.31l1.87,3.06,3.03-1.76,1.11-.65,3.57,4.75,13.92-9.2,2.13,1.75,10.24-6.81-5.21-7.85-12.42-2.04-16.53,11.13,2.71,4.88-1.47.91-2.95,1.82Z"/>
    <text class="cls-46" transform="translate(550.42 572.87)"><tspan class="cls-50" x="0" y="0">B</tspan><tspan class="cls-43" x="5.08" y="0">J 楼</tspan></text>
  </g>
  <g id="building_CJ">
    <path class="cls-28" d="M524.57,547.71l1.87,3.06,2.13-1.23,2.03-1.17,3.56,4.74,13.92-9.2,2.13,1.75,10.25-6.81-5.22-7.85-12.42-2.04-16.53,11.12,2.71,4.89-2.04,1.26-2.38,1.47Z"/>
    <text class="cls-46" transform="translate(533.47 542.61)"><tspan class="cls-52" x="0" y="0">C</tspan><tspan class="cls-47" x="4.98" y="0">J 楼</tspan></text>
  </g>
  <g id="building_DJ">
    <path class="cls-28" d="M505.59,518.86l1.87,3.06,3.07-1.78,1.08-.62,3.57,4.74,13.92-9.2,2.13,1.75,3.09-2.92.83-3.37.55-5.17-1.9-1.45,2.46-1.76-4.82-3.78-4.66-1.67-4.19.73-3.87,1.77,2.96,3.83-14.37,8.2,2.71,4.88-1.56.97-2.85,1.77Z"/>
    <text class="cls-46" transform="translate(513.25 514.15)"><tspan class="cls-51" x="0" y="0">D</tspan><tspan x="5.13" y="0">J 楼</tspan></text>
  </g>
  <g id="building_E">
    <path class="cls-28" d="M413.41,451.3l.78,12.53,28.01-1.75-.18-2.79,14.17-.88,12.12-4.78-3.06-4.97-46.97,2.15-4.87.49Z"/>
    <text class="cls-46" transform="translate(423.29 460.02)"><tspan x="0" y="0">E 楼</tspan></text>
  </g>
  <g id="building_F">
    <path class="cls-28" d="M390.43,421.15l.78,12.53,27.01-1.68,2.68-.17-.18-2.79,14.17-.88,14.22-5.25-3.6-5.2-49.81,2.95-5.28.49Z"/>
    <text class="cls-46" transform="translate(400.49 428.74)"><tspan x="0" y="0">F 楼</tspan></text>
  </g>
  <g id="building_G">
    <path class="cls-28" d="M373.18,392.26l.78,12.53,21.01-1.49,8.68-.37-.17-2.79,14.17-.88,14.22-5.25-3.61-5.2-55.08,3.44Z"/>
    <text class="cls-46" transform="translate(381.74 401.02)"><tspan x="0" y="0">G 楼</tspan></text>
  </g>
  <g id="weichang_building">
    <path class="cls-28" d="M452.3,329.42l40.37,60.69,31.94-65.34-72.31,4.65Z"/>
    <text class="cls-46" transform="translate(477.64 350.68)"><tspan x="0" y="0">伟长楼</tspan></text>
  </g>
  <g id="building_EJ">
    <path class="cls-28" d="M468.53,444l11.05,13.01,13.67-8.8,2.36-2.1,1.45-14.33-5-3.28-5.25-.66-6.18,1.97-2.63,1.7,3.81,5.26h-2.76l-10.52,7.22Z"/>
    <text class="cls-46" transform="translate(473.55 448.66)"><tspan x="0" y="0">EJ 楼</tspan></text>
  </g>
  <g id="building_FJ">
    <path class="cls-28" d="M448.02,414.76l11.04,13.01,13.67-8.8,2.36-2.11,1.45-14.32-5-3.29-5.25-.65-6.18,1.97-2.62,1.7,3.81,5.25h-2.76l-10.52,7.23Z"/>
    <text class="cls-46" transform="translate(456.76 417.71)"><tspan class="cls-49" x="0" y="0">F</tspan><tspan x="3.13" y="0">J 楼</tspan></text>
  </g>
  <g id="building_GJ">
    <path class="cls-28" d="M426.8,385.01l11.04,13.01,13.67-8.81,2.36-2.1,1.44-14.32-4.99-3.29-5.25-.66-6.18,1.98-2.63,1.7,3.81,5.25h-2.76l-10.51,7.23Z"/>
    <text class="cls-46" transform="translate(433.71 388.82)"><tspan x="0" y="0">GJ 楼</tspan></text>
  </g>
  <g id="_4th_canteen" data-name="4th_canteen">
    <g id="_6th_canteen" data-name="6th_canteen">
      <path class="cls-28" d="M517.81,432.09l.57,2.97,1.16,2.79,1.62,2.37,2.04,2,2.4,1.56,2.65,1.07,2.81.52,2.86-.04,2.8-.6,2.62-1.13,2.35-1.63-2.22-3.35,10.25-6.93-2.3-3.36,3.44-1.98-1.81-3.5.04-2.76-.21-2.8-.45-2.77,1.44-1.28-.2-1.4-7.94.23-1.48-2.3-10.75,6.85-2.89.89-2.65,1.46-2.28,1.99-1.83,2.41-1.28,2.74-.69,2.94-.07,3.03Z"/>
    </g>
    <text class="cls-46" transform="translate(524.61 426.24)"><tspan x="0" y="0">水秀</tspan><tspan x="0" y="9.6">食堂</tspan></text>
  </g>
  <g id="building_HA">
    <path class="cls-28" d="M556.31,407.12l.69,12.26,10.63-.6.16,2.75,2.23-.13-.15-2.76,34.43-1.94-.22-3.98,1.73-.1-.46-8.29-49.02,2.77Z"/>
    <text class="cls-46" transform="translate(569.85 414.89)"><tspan x="0" y="0">HA 楼</tspan></text>
  </g>
  <g id="building_HB">
    <path class="cls-28" d="M579.72,426.47l1.9,27.63,22.82-1.57-1.89-27.63-22.82,1.57Z"/>
    <text class="cls-46" transform="translate(582.1 441.4)"><tspan x="0" y="0">HB 楼</tspan></text>
  </g>
  <g id="building_HD">
    <path class="cls-28" d="M543.27,473.87l4.96,7.4,2.47-1.66,1.28,1.9,15.94-10.71,11.88-.41-.38-10.85-15.64.54-20.53,13.79Z"/>
    <text class="cls-46" transform="translate(552.41 474.62)"><tspan x="0" y="0">HD 楼</tspan></text>
  </g>
  <g id="building_HC">
    <path class="cls-28" d="M588,470.01l1.79,26.12,22.13-1.52-2.53-37.01-18.75,1.28.75,10.88-3.38.23Z"/>
    <text class="cls-46" transform="translate(589.86 481.47)"><tspan x="0" y="0">HC 楼</tspan></text>
  </g>
  <g id="building_HE">
    <path class="cls-28" d="M568.51,514.43l6.13,9.29,13.59-9,23.83-1.76-.62-11.05-26.95,1.76-15.97,10.76Z"/>
    <text class="cls-46" transform="translate(587.2 512.16)"><tspan x="0" y="0">HE 楼</tspan></text>
  </g>
  <g id="GYM">
    <path class="cls-28" d="M473.95,191.39l3.77,58.15,53.84-3.49-3.77-58.15-53.84,3.49Z"/>
    <text class="cls-46" transform="translate(490.81 222.93)"><tspan x="0" y="0">体育馆</tspan></text>
  </g>
  <g id="swimming_pool">
    <path class="cls-28" d="M406.58,195.75l3.78,58.15,37.85-2.45-3.78-58.16-37.85,2.46Z"/>
    <text class="cls-46" transform="translate(415.08 227.29)"><tspan x="0" y="0">游泳馆</tspan></text>
  </g>
  <g id="building_J">
    <path class="cls-28" d="M397.81,504.17l.28,2.94.77,2.85,1.23,2.68,1.67,2.44,2.04,2.14,2.79,2.01,3.12,1.43,3.34.81,2.06.09,1.38.06,3.4-.52,3.24-1.16,2.94-1.77,2.56-2.3-3.15-4.26,1.22-2.49.68-2.69.13-2.52-.36-2.5-2.96.82-.78-1.49-1.09-1.29-1.35-1.01-1.53-.68-1.79-.34-1.81.1-1.74.52-1.56.92-5.34-7.29-1.7-2.33-2.24,1.83-1.92,2.17-1.54,2.46-1.11,2.67-.66,2.82-.2,2.89Z"/>
    <text class="cls-46" transform="translate(404.87 509.04)"><tspan x="0" y="0">J 楼</tspan></text>
  </g>
  <g id="art_college">
    <path class="cls-28" d="M364.67,639.12l4.42,6.82-4.38,3.7,4.01,4.38,3.75,4.61,3.49,4.82,3.43,5.35,3.09,5.55,2.75,5.73,2.71,6.74,3.25,6.5,2.64,4.45,2.9,4.29,3.14,4.11,4.33-3,4.79,7.52,1.29-.82,4.13,6.58-1.01-4.25-1.48-4.24-3.66-9.39,5.49-3.65.89,1.28,2.68-1.94,2.25-2.42,1.75-2.8,1.18-3.08.53-2.86.05-2.92-.45-2.88-.93-2.76-1.36-2.53-1.34.91-1.69-2.51,3.49-2.35-1.37-2.04-3.49,2.34-1.06-1.58,5.17-3.47-3.36-5.01-5.17,3.47-2.33-3.47,3.22-2.16-1.02-1.51,1.96-1.32-3.49-5.2-5.17,3.47-3.35-4.99,5.17-3.47-3.32-4.94-5.17,3.47-3.51-5.22-1.3.87,3.51,5.22-6.11,4.11-2.62-3.9.57-1.51.18-1.66-.28-1.65-.71-1.51-1.1-1.26-1.41-.91-1.59-.5-1.72-.04-1.65.44-1.47.89-1.16,1.26-.76,1.54-.31,1.69.18,1.71.65,1.59,1.34,1.98-4.56,3.02-4.4-4.26-5.08-4.42ZM379.76,660.76l2.89-1.95.35-.24,3.5,5.2-3.26,2.19-3.49-5.2ZM386.46,670.88l3.32-2.23.19.29,3.11,4.63-3.31,2.23-3.3-4.91ZM386.56,656.49l13.46-9.04,3.35,4.99-13.46,9.04-3.35-4.99ZM393.19,666.36l13.45-9.04,3.53,5.26-13.45,9.04-3.53-5.26ZM393.35,681.15l3.33-2.23.93,1.39-3.32,2.23-.94-1.39Z"/>
    <text class="cls-46" transform="translate(391.8 692.33)"><tspan x="0" y="0">美术学院</tspan></text>
  </g>
  <g id="dorm_1">
    <path class="cls-28" d="M113.08,506.91l1,1.88,1.43-.76,2.07,3.87,1.96-1.05.33.62,7.49-4.01,31.93-1.51-.47-9.94-34.35,1.65-9.67,5.17,1.31,2.44-3.04,1.62Z"/>
    <text class="cls-45" transform="translate(134.02 503.97)"><tspan x="0" y="0">1号楼</tspan></text>
  </g>
  <g id="dorm_2">
    <path class="cls-28" d="M128.01,532.78l1.01,1.88,1.42-.77,2.08,3.88,1.96-1.06.33.62,7.49-4,25.17-1.2-.47-9.93-27.6,1.32-9.67,5.17,1.31,2.44-3.04,1.62Z"/>
    <text class="cls-45" transform="translate(146.66 529.99)"><tspan x="0" y="0">2号楼</tspan></text>
  </g>
  <g id="dorm_3">
    <path class="cls-28" d="M145.05,559.29l1,1.88,1.43-.76,2.08,3.87,1.96-1.05.33.62,7.49-4.01,25.18-1.19-.48-9.93-27.6,1.32-9.67,5.17,1.3,2.44-3.03,1.62Z"/>
    <text class="cls-45" transform="translate(162.19 556.51)"><tspan x="0" y="0">3号楼</tspan></text>
  </g>
  <g id="dorm_4">
    <path class="cls-28" d="M186.31,521.2l.68,10.09,39.09-2.64-.06-.93,1.79-.11-.31-4.52,1.48-.1-.13-1.9-3.6.24-.19-2.73-38.76,2.62Z"/>
    <text class="cls-45" transform="translate(200.06 527.2)"><tspan x="0" y="0">4号楼</tspan></text>
  </g>
  <g id="dorm_5">
    <path class="cls-28" d="M196.07,547.59l.68,10.08,39.08-2.64-.06-.93,1.79-.12-.3-4.52,1.48-.1-.13-1.91-3.59.24-.19-2.73-38.76,2.62Z"/>
    <text class="cls-45" transform="translate(208.11 552.96)"><tspan x="0" y="0">5号楼</tspan></text>
  </g>
  <g id="_1st_canteen" data-name="1st_canteen">
    <path class="cls-29" d="M134.85,457.07l.58,10.24,30.08-1.71-.58-10.24-30.09,1.71Z"/>
    <path class="cls-28" d="M132.13,446.77l.13,2.76,3.71-.17.34,7.28,20.86-.98-.12-2.62,5.17-.24-.25-5.37,2.13-.1-.14-2.97-2.34.11-1.35-28.66-25.71,1.21,1.39,29.59-3.83.17Z"/>
    <text class="cls-46" transform="translate(140.18 434.06)"><tspan x="0" y="0">益新</tspan><tspan x="0" y="9.6">食堂</tspan></text>
  </g>
  <g id="dorm_M">
    <path class="cls-28" d="M174.78,447.01l.35,6.23,4.18-.23.05.85,4.44-.24.07,1.25,13.43-.75-.07-1.25,4.17-.23-.05-.85,4.47-.24-.34-6.23-5.45.31.06,1.09-6.88.39-.14-2.65-6.84.38.14,2.64-4.52.25-.06-1.09-7.01.38Z"/>
    <text class="cls-45" transform="translate(185.74 452.85)"><tspan x="0" y="0">M楼</tspan></text>
  </g>
  <g id="dorm_N">
    <path class="cls-28" d="M187.97,425.24l.35,6.23,4.18-.23.05.85,4.44-.24.07,1.25,13.43-.75-.07-1.25,4.17-.23-.05-.85,4.47-.24-.34-6.23-5.45.3.06,1.1-6.88.38-.14-2.65-6.84.38.15,2.65-4.52.25-.06-1.1-7.01.39Z"/>
    <text class="cls-45" transform="translate(198.34 431.54)"><tspan x="0" y="0">N楼</tspan></text>
  </g>
  <g id="dorm_P">
    <path class="cls-28" d="M168.82,403.11l.38,6.13,4.11-.26.05.99,4.25-.27.07,1.2,9.39-.58-.08-1.2,4.3-.27-.06-.98,4.39-.27-.28-4.52-.1-1.59-5.81.36.06,1.01-4.33.27-.17-2.74-6.58.41.17,2.74-3.74.23-.06-1.01-5.97.37Z"/>
    <path class="cls-28" d="M195.35,403.07l.28,4.52.11,1.69,4.18-.26.05.97,4.5-.28.06,1,9.22-.57-.06-1.03,4.35-.27-.05-.99,4.34-.27-.38-6.21-5.67.35.07,1.16-4.41.27-.16-2.54-6.44.4.16,2.56-4.96.31-.07-1.14-5.11.31Z"/>
    <text class="cls-45" transform="translate(202.48 408.83)"><tspan x="0" y="0">P楼</tspan></text>
  </g>
  <g id="dorm_Q">
    <path class="cls-28" d="M190.47,381.94l.34,6.23,4.18-.23.05.85,4.44-.24.07,1.25,13.43-.75-.07-1.25,4.18-.23-.05-.85,4.47-.24-.34-6.23-5.45.3.06,1.1-6.87.38-.15-2.65-6.84.38.15,2.65-4.52.24-.06-1.1-7.01.39Z"/>
    <text class="cls-45" transform="translate(201.41 387.95)"><tspan x="0" y="0">Q楼</tspan></text>
  </g>
  <g id="dorm_R">
    <path class="cls-28" d="M180.89,360.92l.35,6.23,4.18-.23.05.85,4.43-.25.07,1.26,13.44-.75-.07-1.25,4.17-.23-.05-.85,4.47-.25-.35-6.22-5.45.3.06,1.1-6.88.38-.14-2.65-6.84.38.14,2.65-4.52.25-.06-1.1-7.01.39Z"/>
    <text class="cls-45" transform="translate(191.32 366.37)"><tspan x="0" y="0">R楼</tspan></text>
  </g>
  <g id="dorm_I">
    <path class="cls-28" d="M162.28,326.1l.27,5.11,2.39-.12.22,4.3,2.02-.12-.23-4.29,3.61-.18-.26-5.11-3.61.19-.29-5.55-2.02.12.28,5.53-2.39.13Z"/>
    <path class="cls-28" d="M164.79,335.41l.39,6.4,1.37-.09.14,2.27,20.66-1.27-.19-2.96,3.84-.24.07,1.19,8.21-.51-.09-1.46,4.96-3.39,1.71,2.5,7.09-4.85-1.08-1.58,1.36-.93-3.74-5.48-13.42,9.17-3.25.2-.04-.69-7.47.46.09,1.42-5.02.31-.09-1.43-6.83.41.09,1.43-5.14.31-.09-1.43-1.15.08-2.02.12-.37.02Z"/>
    <text class="cls-45" transform="translate(173.49 341.74)"><tspan x="0" y="0">I楼</tspan></text>
  </g>
  <g id="dorm_O">
    <path class="cls-28" d="M158.16,312.12l.39,6.39,1.37-.08.14,2.27,4.33-.27,2.02-.12,14.31-.88-.19-2.97,3.84-.23.07,1.19,8.2-.51-.09-1.47,4.97-3.39,1.71,2.5,7.09-4.84-1.08-1.58,1.36-.93-3.74-5.48-13.42,9.17-3.25.2-.05-.69-7.47.46.09,1.43-5.02.31-.09-1.43-6.83.41.08,1.43-5.13.31-.09-1.43-3.54.22Z"/>
    <text class="cls-45" transform="translate(169.14 318.46)"><tspan x="0" y="0">O楼</tspan></text>
  </g>
  <g id="dorm_K">
    <path class="cls-28" d="M145.59,290.11l3.46,5.3,35.79-2.26,8.65-6.11-3.81-5.22-6.7,4.17-30.88,2.26-1.64-1.84-4.87,3.7Z"/>
    <text class="cls-45" transform="translate(167.17 292.89)"><tspan x="0" y="0">K楼</tspan></text>
  </g>
  <g id="dorm_L">
    <path class="cls-28" d="M129.86,277.62l3.79,5.68,12.24-8.79,5.84-2.55,24.12-1.17,6.98-4.4-3.9-5.61-4.48,3.08-23.63,1.67-7.05,2.53-13.9,9.55Z"/>
    <text class="cls-45" transform="translate(154.5 270.66)"><tspan x="0" y="0">L楼</tspan></text>
  </g>
  <g id="_3rd_canteen" data-name="3rd_canteen">
    <path class="cls-28" d="M97.17,337.28l1.19,15.5,15.12-1.16.23,2.95,13.99-1.08-1.23-15.83,5.15-.4-.52-6.71-24.49,1.89.31,4.1-9.76.76Z"/>
    <text class="cls-46" transform="translate(110.93 340.7)"><tspan x="0" y="0">山明</tspan><tspan x="0" y="9.6">食堂</tspan></text>
  </g>
  <g id="dorm_T">
    <path class="cls-28" d="M126.69,372.2l.12,1.84.27,4.37,4.19-.26.06.97,4.5-.27.06,1,9.22-.57-.06-1.03,4.36-.27-.06-.98,4.34-.27-.38-6.22-5.67.35.07,1.16-4.41.27-.16-2.54-6.44.39.16,2.57-4.97.31-.07-1.14-5.13.31Z"/>
    <path class="cls-28" d="M100.2,375.72l.38,6.22,4.18-.26.05.97,4.5-.28.06,1,9.22-.57-.06-1.03,4.36-.27-.06-.99,4.36-.27-.12-1.84-.27-4.37-5.68.35.07,1.15-4.41.27-.16-2.54-6.44.41.16,2.56-4.97.3-.07-1.14-5.11.31Z"/>
    <text class="cls-45" transform="translate(136.52 377.57)"><tspan x="0" y="0">T楼</tspan></text>
  </g>
  <g id="dorm_S">
    <path class="cls-28" d="M101.75,400.34l.38,6.21,4.18-.26.06.96,4.5-.27.06,1,9.22-.57-.06-1.03,4.35-.27-.06-.99,4.35-.27-.11-1.83-.27-4.38-5.68.35.08,1.16-4.41.27-.16-2.54-6.43.39.16,2.57-4.97.31-.07-1.14-5.11.31Z"/>
    <path class="cls-28" d="M128.24,396.82l.11,1.84.27,4.38,4.19-.26.06.97,4.5-.28.07,1,9.21-.57-.06-1.03,4.35-.27-.06-.98,4.34-.27-.38-6.2-5.68.35.08,1.16-4.41.27-.15-2.54-6.44.4.16,2.57-4.97.3-.07-1.13-5.13.31Z"/>
    <text class="cls-45" transform="translate(136.71 402.94)"><tspan x="0" y="0">S楼</tspan></text>
  </g>
  <g id="dorm_X">
    <path class="cls-28" d="M240.97,317.42l.13,5.95,8.93-.19-.03-1.22,6.39-.14-.03-1.24,4.17-.09-.02-1.03,4.38-.1.04,1.54,9.16-.2-.03-1.46,6.3-.14-.03-1.24,4.42-.09-.02-1.03,4.18-.09-.14-6.07-9.05.2-.02-.78-6.91.16.09,4.19-8.31.19-.03-1.17-8.87.19-.02-.95-7.36.16.1,4.51-7.42.16Z"/>
    <text class="cls-45" transform="translate(265.89 319.66)"><tspan x="0" y="0">X楼</tspan></text>
  </g>
  <g id="dorm_Y">
    <path class="cls-28" d="M231.67,295.45l.13,5.95,8.93-.19-.03-1.23,6.38-.14-.03-1.25,4.17-.09-.02-1.04,4.42-.1-.05-2.08,9.2-.19-.03-1.46,6.3-.14-.03-1.25,4.42-.09-.02-1.03,4.17-.08-.13-6.07-9.06.19v-.77s-6.92.15-6.92.15l.09,4.2-8.36.18.05,2.46-8.91.19-.02-.95-7.35.16.09,4.52-7.42.16Z"/>
    <text class="cls-45" transform="translate(264.94 291.1)"><tspan x="0" y="0">Y楼</tspan></text>
  </g>
  <g id="dorm_Z">
    <path class="cls-28" d="M200.93,258.34l.27,5.85,4.06-.19.03.82,4.27-.19.03.73,6.83-.32.04.81,6.44-.3.04.73,4.95-.23.08,1.69,4.4-.21.04.95,4.46-.21.03.59,6.16-.29.04.91,6.74-.31.04.81,4.67-.22-.28-5.92-3.46.16-.04-.9-6.55.3-.21-4.44-6.79.32.14,2.87-4.26.2-.05-1.03-5.43.26-.08-1.66-10.27.48-.2-4.4-6.17.29.13,2.66-4.44.21-.05-1.08-5.61.26Z"/>
    <text class="cls-45" transform="translate(236.22 267.23)"><tspan x="0" y="0">Z楼</tspan></text>
  </g>
  <g id="dorm_W">
    <path class="cls-28" d="M286.65,274.94l.16,5.66,4.38-.13.02.77,6.41-.18.02.81,6.84-.19.05,1.5,4.38-.12.02.65,6.43-.19.02.61,7-.2-.19-6.31-4.67.14-.06-2.34-5.99.18.05,1.64-7.12.21-.05-1.54-4.86.14-.08-2.73-5.6.16.04,1.25-7.18.21Z"/>
    <text class="cls-45" transform="translate(309.04 282.02)"><tspan x="0" y="0">W楼</tspan></text>
  </g>
  <g id="dorm_U">
    <path class="cls-28" d="M288.5,297.67l.31,6.11,4.49-.23.05,1.01,4.22-.22.04.8,6.44-.33.04.68,8.83-.45.08,1.63,4.39-.22.05.96,4.45-.22.03.61,6.15-.31.05.92,9.2-.47-.3-5.95-7.78.4-.22-4.49-6.78.35.13,2.5-4.27.22-.03-.71-5.43.28-.07-1.43-7.76.39-.22-4.17-6.16.32.12,2.47-4.44.22-.05-.93-5.57.29Z"/>
    <text class="cls-45" transform="translate(315.14 306.41)"><tspan x="0" y="0">U楼</tspan></text>
  </g>
  <g id="_2nd_canteen" data-name="2nd_canteen">
    <path class="cls-28" d="M255.8,240.07l.12,2.25,4.23-.23.05.91,14.98-.19,4.21-2.18,1.87,3.11,10.52-6.66-6.74-9.82-1.01.31-1.84-2.64-2.24-2.3-2.58-1.91-2.84-1.46-3.04-.98-3.15-.49-11.37.66.88,21.48-2.04.12ZM262.84,227.22l2.22-.11,2.1.43,1.87,1.08,1.6,1.28,1.07,1.46.45,1.87-9,.39-.31-6.39Z"/>
    <text class="cls-46" transform="translate(267.69 230.14)"><tspan x="0" y="0">尔美</tspan><tspan x="0" y="9.6">食堂</tspan></text>
  </g>
  <g id="qianweichang_library">
    <path class="cls-28" d="M731.58,572.68l.43,2.51.95,2.35,3.1,3.52,3.51,3.11,3.87,2.64,3.82,1.99,4.03,1.54,4.18,1.07,2.41.07,2.38-.38,2.27-.81,2.08-1.22,1.71-1.46,1.43-1.74,1.12-1.95.76-2.12.17-3-.06-3-.36-3.53-.69-3.48-.91-2.84-1.15-2.77-1.2-2.35-1.37-2.25-1.57-1.57-1.85-1.23-1.95-.81-2.06-.43-3,.2-2.96.5-3.65,1.01-3.5,1.44-3.3,1.85-3.06,2.23-2.77,2.57-1.25,1.76-.91,1.96-.53,2.09-.13,2.54Z"/>
    <text class="cls-46" transform="translate(739.47 573.07)"><tspan x="0" y="0">钱伟长</tspan><tspan x="0" y="9.6">图书馆</tspan></text>
  </g>
  <g id="_6th_canteen-2" data-name="6th_canteen">
    <path class="cls-28" d="M668.51,524.35l1.22,29.66,20.52-.84,4.61-3.79-.07-1.74,3.17-.13-.14-3.47-3.17.13-.93-22.59-10.04.42.07,1.74-10.79.44-.07-1.74-2.91.12.08,1.74-1.54.06Z"/>
    <text class="cls-46" transform="translate(674.76 536)"><tspan x="0" y="0">留韵</tspan><tspan x="0" y="9.6">食堂</tspan></text>
  </g>
  <g id="building_D10">
    <path class="cls-28" d="M667.26,492.11l.6,10.22,35.76-2.13-.92-15.51-7.4.44.31,5.29-28.35,1.69Z"/>
    <text class="cls-46" transform="translate(674.76 498.83)"><tspan x="0" y="0">D10 楼</tspan></text>
  </g>
  <g id="building_D11">
    <path class="cls-28" d="M664.42,456.11l.76,10.81,36.31-2.56-.77-10.82-36.31,2.57Z"/>
    <text class="cls-46" transform="translate(671.65 463.22)"><tspan x="0" y="0">D11 楼</tspan></text>
  </g>
  <g id="building_D12">
    <path class="cls-28" d="M661.88,423.85l.78,10.82,36.12-2.6-.78-10.82-26.57,1.92-9.54.68Z"/>
    <text class="cls-46" transform="translate(670.87 431.38)"><tspan x="0" y="0">D12 楼</tspan></text>
  </g>
  <g id="building_D13">
    <path class="cls-28" d="M659.26,387.63l1.14,15.78,9.54-.68-.38-5.33,19.43-1.4.38,5.33,7.15-.52-1.14-15.78-36.12,2.6Z"/>
    <text class="cls-46" transform="translate(667.63 395.22)"><tspan x="0" y="0">D13 楼</tspan></text>
  </g>
  <g id="building_D1">
    <path class="cls-28" d="M677.57,643.52l1.19,23.35,2.34-.12.2,3.91-1.62.08.34,6.69,15.13-6.57,49.92-2.55-1.06-20.7,1.84-5.31-3.27.17.04.74-1.63.08-.16-3.23-25.76,1.32-.15-2.92-3.24.17.16,3.14-34.28,1.76ZM686.42,649.17l26.91-1.38.63,12.4-26.91,1.38-.63-12.4ZM726.86,648.48l8.64-.44.56,10.99-4.85.24-.08-1.51-3.79.2-.49-9.48Z"/>
    <text class="cls-46" transform="translate(712.96 667.5)"><tspan x="0" y="0">D1 楼</tspan></text>
  </g>
  <g id="building_D3">
    <path class="cls-28" d="M674.27,619.61l.62,9.62,37.54-2.45-.62-9.61-37.54,2.45Z"/>
    <text class="cls-46" transform="translate(683.24 625.59)"><tspan x="0" y="0">D3 楼</tspan></text>
  </g>
  <g id="building_D2">
    <path class="cls-28" d="M736.28,614l.65,10.97,55.19-3.28-.65-10.97-55.19,3.28Z"/>
    <text class="cls-46" transform="translate(753.11 620.03)"><tspan x="0" y="0">D2 楼</tspan></text>
  </g>
  <g id="building_D4">
    <path class="cls-28" d="M787.16,591.17l.68,10.69,26.77-1.71-.69-10.69-4.57.29-22.19,1.41Z"/>
    <text class="cls-46" transform="translate(791.29 598.38)"><tspan x="0" y="0">D4 楼</tspan></text>
  </g>
  <g id="building_D5">
    <path class="cls-28" d="M785.45,565.55l.68,10.69,22.27-1.42,4.57-.29-.69-10.69-4.57.29-22.27,1.42Z"/>
    <text class="cls-46" transform="translate(789.33 573.71)"><tspan x="0" y="0">D5 楼</tspan></text>
  </g>
  <g id="building_D6">
    <path class="cls-28" d="M783.38,539.82l.69,10.71,22.68-1.46,4.57-.29-.68-10.7-27.26,1.74Z"/>
    <text class="cls-46" transform="translate(787.16 547.01)"><tspan x="0" y="0">D6 楼</tspan></text>
  </g>
  <g id="building_D7">
    <path class="cls-28" d="M728.23,523.69l.68,10.78,64.97-4.08-.68-10.77-64.97,4.07Z"/>
    <text class="cls-46" transform="translate(752.17 530.36)"><tspan x="0" y="0">D7 楼</tspan></text>
  </g>
  <g id="building_D9">
    <path class="cls-28" d="M725.85,462.41l.24,3.65.46,7.28,36.42-2.3,15.53-.98-2.31-36.48-.3-4.73,1.45-.09-.84-13.18-49.5,3.14.84,13.17.86-.05,1.43,22.56,8.55-.54-1.42-22.55,24.84-1.57.3,4.72-1.74.11,1.62,25.56-1.49.09-34.93,2.21Z"/>
    <text class="cls-46" transform="translate(745.87 427.96)"><tspan x="0" y="0">D9 楼</tspan></text>
  </g>
  <g id="building_D14">
    <path class="cls-28" d="M727.63,392.78l.54,8.58.16,2.46,33-2.08,17.76-1.12-.7-11.05-7.58.49-10.19.64-21.25,1.35-11.74.75Z"/>
    <text class="cls-46" transform="translate(744.71 398.94)"><tspan x="0" y="0">D14 楼</tspan></text>
  </g>
  <g id="building_D15">
    <path class="cls-28" d="M747.95,362.33l.69,10.9,21.02-1.33,7.57-.48,7.9-.5-.69-10.89-36.49,2.31Z"/>
    <text class="cls-46" transform="translate(753.36 369.41)"><tspan x="0" y="0">D15 楼</tspan></text>
  </g>
  <g id="building_D16">
    <path class="cls-28" d="M784.21,306.57l1.16,18.41-29.29,1.85.69,10.96,36.67-2.33-.69-10.95-1.16-18.4c-2.46.15-4.92.31-7.38.46Z"/>
    <text class="cls-46" transform="translate(763.21 333.93)"><tspan x="0" y="0">D16 楼</tspan></text>
  </g>
  <g id="building_D17">
    <path class="cls-28" d="M732.98,298.79l.69,10.98,8.66-.55,24.24-1.54,17.63-1.11c2.46-.15,4.92-.31,7.38-.46l-.69-10.98-25.01,1.58-32.91,2.08Z"/>
    <text class="cls-46" transform="translate(752 305)"><tspan x="0" y="0">D17 楼</tspan></text>
  </g>
  <g id="building_D18">
    <path class="cls-28" d="M730.83,237.56l.54,8.86,23.86-1.45-.25-4.12,5.63-.34.25,4.19,37.15-2.25-.04-.66,5.6-.34-.1-1.67,2.18-.13-.46-7.65-2.03.12-.7-11.62-7.03.43.69,11.44-41.5,2.51-.29-4.85-15.46.93-8.04,6.6Z"/>
    <text class="cls-46" transform="translate(767.22 241.68)"><tspan x="0" y="0">D18 楼</tspan></text>
  </g>
  <g id="building_D19">
    <path class="cls-28" d="M717.32,191.16l.79,14.95,30.43-1.62-.57-10.65,32.93-1.75.54,10.22,7.43,5.08,15.83-.84-.84-15.68-10.93.58-.54-10.2-53.78,2.86.31,5.9-21.6,1.15Z"/>
    <text class="cls-46" transform="translate(756.22 190.87)"><tspan x="0" y="0">D19 楼</tspan></text>
  </g>
  <g id="hospital">
    <path class="cls-28" d="M74.46,175.23l1.55,6.08,11.82-2.93.32,1.21,19.51-4.05,6.2-1.14,5.51.29,2.09-.78,1.21-1.72.14-1.7-1.58-2.18-6.69-2.18-28.15,5.88-11.94,3.22Z"/>
    <path class="cls-28" d="M81.55,189.03l1.85,7.68,29-6.99-1.85-7.67-29,6.98Z"/>
    <text class="cls-46" transform="translate(96.21 177.55)"><tspan x="0" y="0">校医院</tspan></text>
  </g>
  <g id="dorm_6">
    <path class="cls-28" d="M186.78,487.52l.96,15.66,38.71-2.38-.97-15.66-38.7,2.38Z"/>
    <text class="cls-45" transform="translate(198.96 496.03)"><tspan x="0" y="0">6号楼</tspan></text>
  </g>
  <text class="cls-53" transform="translate(46.65 86.51)"><tspan class="cls-44" x="0" y="0">宝山校区</tspan><tspan x="156" y="0">地图</tspan></text>
</svg>