<?xml version="1.0" encoding="UTF-8"?>
<svg id="Layer_1" data-name="Layer 1" xmlns="http://www.w3.org/2000/svg" viewBox="0 0 1430 1316">
  <defs>
    <style>
      .cls-1 {
        stroke: #8f8f8f;
      }

      .cls-1, .cls-2 {
        stroke-width: 18px;
      }

      .cls-1, .cls-2, .cls-3, .cls-4, .cls-5, .cls-6, .cls-7 {
        fill: none;
        stroke-linecap: round;
        stroke-linejoin: round;
      }

      .cls-8, .cls-9, .cls-10, .cls-11, .cls-12, .cls-13, .cls-14 {
        fill-rule: evenodd;
      }

      .cls-8, .cls-15 {
        fill: #d6d6d6;
        stroke: #afafaf;
        stroke-width: .75px;
      }

      .cls-2 {
        stroke: #a06b00;
      }

      .cls-9 {
        fill: #eee;
        stroke: #a07070;
      }

      .cls-9, .cls-13 {
        stroke-width: .3px;
      }

      .cls-16 {
        font-family: SourceHanSansSC-Normal-GBpc-EUC-H, 'Source Han Sans SC';
        font-size: 15.34px;
      }

      .cls-10 {
        fill: #aad3df;
        stroke: #4ab9d9;
      }

      .cls-10, .cls-11, .cls-14 {
        stroke-width: .5px;
      }

      .cls-3 {
        stroke: rgba(255, 255, 255, .4);
        stroke-width: 3.3px;
      }

      .cls-11 {
        fill: #e0dfdf;
        stroke: #b9b9b9;
      }

      .cls-12 {
        fill: #cdebb0;
      }

      .cls-4 {
        stroke: #bbb;
        stroke-width: 12px;
      }

      .cls-5 {
        stroke-width: 16.4px;
      }

      .cls-5, .cls-6 {
        stroke: #fff;
      }

      .cls-13 {
        fill: #dffce2;
        stroke: #3ced4a;
      }

      .cls-6 {
        stroke-width: 10.4px;
      }

      .cls-14 {
        fill: #88e0be;
        stroke: #44be8f;
      }

      .cls-17 {
        font-family: SourceHanSansSC-Medium-GBpc-EUC-H, 'Source Han Sans SC';
        font-size: 42px;
        font-weight: 500;
      }

      .cls-18 {
        fill: #eaeadf;
      }

      .cls-19 {
        fill: #d22f31;
      }

      .cls-7 {
        stroke: #fcd6a4;
        stroke-width: 16px;
      }
    </style>
  </defs>
  <rect class="cls-18" x="0" y="1.62" width="1430" height="1307.67"/>
  <g id="background">
    <path class="cls-12" d="M609.11,970.66l2,73.18,37.56,32.45,101.33-10.02,8.69-27.88-5.7-85.15-18.99-18.72-101.78,4.44-23.11,31.69Z"/>
    <path class="cls-14" d="M524.67,73.24l-29.8,110.05,145.54,35.99,28.01-105.67-143.75-40.37Z"/>
    <path class="cls-14" d="M442.58,441.8l-10.27,138.47,17.15,21.29,79.21-5.84,15.71-25.2,8.68-138.92-34.09-2.44-43.11,2.59-33.27,10.06Z"/>
    <path class="cls-12" d="M754.99,148.09l-22.17,96.91,51.5,13.75,23.63,6.17,27.3,7.25,1.34-23.76,2.79-49.19-7.4-16.6-8.53-19.1-68.46-15.43Z"/>
    <path class="cls-11" d="M407.87,159.6l-9.61,67.68,73.53,17.51,15.66-63.32-79.59-21.87Z"/>
    <path class="cls-13" d="M438.03,50.72l-14.94,57.04,56.92,14.9,14.93-57.04-56.9-14.9Z"/>
    <path class="cls-10" d="M425.14,341.05l-4.38,41.26,78.3,8.29,4.37-41.26-78.29-8.29Z"/>
    <path class="cls-9" d="M668.42,113.61l-28.01,105.67,20.03,4.95,11.85-15.47,22.77-87.83-26.64-7.32Z"/>
    <path class="cls-12" d="M705.66,540.21l1.07,46.1,7.93.31,53.35,2.18-2.19-47.1-60.16-1.49Z"/>
    <path class="cls-14" d="M443.92,473.96l-1.35,8.58-.63,37.92-.88,52.93,6.86.11.63-37.6.13.28,4.84,6.52,5.89,5.58,6.78,4.46,7.46,3.22,7.9,1.88,8.12.48,9-1.16,8.62-2.9,7.88-4.5,6.86-5.97,5.53-7.14-.91,37.56,6.87.18,1.33-55.11.85-35.32-1.14-8.81-2.83-8.5-4.4-7.81-5.81-6.81-6.99-5.58-7.96-4.15-8.58-2.55-8.92-.84-8.74.83-8.41,2.44-7.82,3.99-6.93,5.38-5.8,6.59-4.47,7.56-2.96,8.25ZM450.6,475.69l2.53-7.05,3.8-6.43,4.94-5.63,5.91-4.58,6.66-3.39,7.18-2.09,7.44-.72,7.6.73,7.32,2.17,6.76,3.52,5.97,4.76,4.95,5.81,3.75,6.65,2.42,7.25.98,7.64-.84,34.42-2.06,7.53-3.51,7.06-4.84,6.24-5.95,5.16-6.84,3.93-7.48,2.5-7.84,1.01-7.02-.41-6.85-1.62-6.47-2.8-5.89-3.87-5.12-4.85-4.21-5.65-3.13-6.3-1.95-6.57.6-36.97,1.18-7.45Z"/>
    <path class="cls-9" d="M739.57,446.21l-9.56,35.31,78.47-2.11,3.89-14.48-72.8-18.72Z"/>
    <path class="cls-14" d="M542.38,347.87l-11.15,54.57,27.09,5.55,11.16-54.58-27.09-5.55Z"/>
    <path class="cls-14" d="M531.23,402.45l-5.36,26.25,54.72,11.18,5.37-26.23-27.64-5.65-27.09-5.55Z"/>
    <path class="cls-8" d="M363.18,721.62l1.43,77.93,11.74-.22.57,31.36-11.17.2.31,16.38,59.13-1.1-1.18-63.93-6.74.12-1.14-61.71-52.94.97Z"/>
    <path class="cls-8" d="M438.03,50.72l-14.94,57.04,56.92,14.9,14.93-57.04-56.9-14.9Z"/>
    <path class="cls-8" d="M718.79,777.48l.64,36.3,63.82-1.13-.64-36.3-63.82,1.13Z"/>
    <path class="cls-8" d="M709.94,632.51l.78,22,95.69-3.39-.79-22-95.69,3.39Z"/>
    <path class="cls-8" d="M543.68,292.44l-3.41,12.98,4.97,1.3-4.56,17.35,40.72,10.68,12.81-48.81-40.79-10.71-4.85,18.51-4.9-1.29ZM555.01,293.99l23.41,6.15-4.19,15.92-23.4-6.14,4.18-15.92Z"/>
    <path class="cls-8" d="M943.16,1146.34l5.8,23.27,51.15-12.74-1.43-5.73,19.13-4.77-4.35-17.53-70.29,17.5Z"/>
    <path class="cls-8" d="M715.84,738.4l.89,24.3,59.73-2.2-.91-24.31-59.71,2.2Z"/>
    <path class="cls-8" d="M353.8,939.56l.69,15.71,76.45-3.39-.7-15.69-76.44,3.37Z"/>
    <path class="cls-8" d="M415.81,186.42l6.27,6.16,1.75-1.78,5.7,5.42-1.92,6.79-4.99-1.39-3.76,13.5,9.31,2.59.78-2.83,5,1.37,1.78-6.4,5.16,1.44-1.78,6.39,5.57,1.54-.74,2.61,8.7,2.42,3.68-13.27-5.11-1.43,1.88-6.78,6.7-2.2.8,2.57,9.72-2.97-4.19-13.73-17.55,5.42-12.49-3.47-10.99-11.4-9.28,9.41Z"/>
    <path class="cls-8" d="M932.62,1053.7l2.17,17.91,63.46-7.67-2.16-17.91-63.47,7.67Z"/>
    <path class="cls-8" d="M813.73,622.18l1.06,29.68,10.32-.37-.07-1.93,41.78-1.5-.24-6.88,4.7-.18-.41-11.64-46.47,1.67-.33-9.24-10.31.37Z"/>
    <path class="cls-8" d="M809.12,676.76l.84,22.23,45.9-1.73-.83-22.22-45.91,1.72Z"/>
    <path class="cls-8" d="M503.05,1174.34l1.31,37.92,22.11-.75-1.31-37.93-22.11.76Z"/>
    <path class="cls-8" d="M708.72,592.89l1.15,38.4,12.99-.39-.4-13.14,16.03-.48-.43-14.24-19.27.58-.32-11.04-9.75.3Z"/>
    <path class="cls-8" d="M871.29,593.73l5.36,50.43,12.55-1.35-5.36-50.41-12.55,1.33Z"/>
    <path class="cls-8" d="M439.89,1111.85l1.12,21.16,27.91-1.47-1.11-21.16-27.91,1.48Z"/>
    <path class="cls-8" d="M788.71,239.35l-4.39,19.39,23.63,6.17,5.73-19.22-24.97-6.34Z"/>
    <path class="cls-4" d="M858.01,1035l9.52,3.96,9.55,2.7,9.84.31,119.06-16.7"/>
    <path class="cls-4" d="M344.97,1283.11l-.07-24.98-1.79-153.77-.13-23.12,1.52-35.55,1.83-129.9.98-61.91,2.33-147.35,5.49-157.02,12.67-118.61,9.07-92.74,12.17-107.33,23.89-206.95"/>
    <path class="cls-4" d="M718.17,101.1l-13.42,54.31-14.52,58.21-4.97,33.1-10.37,46.22"/>
    <path class="cls-4" d="M713.08,910.74l29.55,1.39,17.24.81,4.4,40.31,4.52,30.2.36,28.06.77,23.71-1.76,22.42,2.62,23.58-47.77,9.37,15.09,133.84"/>
    <path class="cls-4" d="M732,376.75l63.96,17.05,20.84,6.57,27.2,8.59,12.63,23.32-5.55,22.98-8.2,6.44-30.62-7.14-31.7-6.81-45.8-9.19-18.45-4.64"/>
    <path class="cls-4" d="M732,376.75l-15.69,57.16"/>
    <path class="cls-4" d="M735.26,308.19l14.71-49.02,86.49,23.8-19.66,117.4"/>
    <path class="cls-4" d="M718.71,1227.3l-15.29-132.57-110.98,9.12-1.04-11.61-6.58-73.98-3.25-36.41,11.15-62.39,54.54-3.96,59.05-4.28,6.77-.49"/>
    <path class="cls-4" d="M723,1090.57l-19.57,4.16"/>
    <path class="cls-4" d="M592.72,919.46l-85.16-1.28-75.2-1.13-86.03-1.27"/>
    <path class="cls-4" d="M507.56,918.19l3.52,57.94,3.86,63.57,3.46,57.01,72.99-4.47"/>
    <path class="cls-4" d="M745.31,107.33l-25.29,110.34-8.24,13.51-10.28,19.69-11.27,45.91"/>
    <path class="cls-4" d="M710.37,372.23l-9.15,56.57-2.47,15.29-.77,3.61-11.56,56.97.95,23.28.83,20.33,1.19,29.23,1.52,62.04.99,27.79.78,22.07-.06,54.78,2.82,27.16,4.95,47.95,3.97,28.67,4.89,35.24,3.82,27.53"/>
    <path class="cls-4" d="M732,376.75l-21.63-4.52"/>
    <path class="cls-4" d="M674.9,292.94l.5.12,14.83,3.71"/>
    <path class="cls-4" d="M690.22,296.77l45.04,11.43"/>
    <path class="cls-4" d="M735.26,308.19l14.54,26.22-17.81,42.34"/>
    <path class="cls-4" d="M716.31,433.91l-20.78,86.87-1.98,7.43-5.35,20.07"/>
    <path class="cls-1" d="M880.34,138.34l-.12,42.86,6.06,183.85,5.17,120.05,20.99,143.47,72.47,307.34,21.06,89.35"/>
    <path class="cls-1" d="M1005.97,1025.26l37.2,136.69"/>
    <path class="cls-1" d="M344.97,1283.11l69.81-13.13,226.65-29.06,77.28-13.62,19.38-2.89,109.29-16.32,195.78-46.14"/>
    <path class="cls-2" d="M412.93,23.87l223.04,58.54,82.2,18.69,27.14,6.23,135.03,31.01"/>
    <path class="cls-3" d="M674.57,364.49l-2.61,10.2.07,11.58-.35,9.75,3.94,11.88"/>
    <path class="cls-3" d="M709.26,883.2l-18.35,6.54-46.4,3.88,2.75,21.88"/>
    <path class="cls-3" d="M706.31,911.22l6.13,22.63,16.18,8.61,15.04,21.24-.79,20-.36,18.5-1.77,14.87-7.75,18.85-5.91,26.65-5.73,14.56,1.65,13.44"/>
    <path class="cls-3" d="M703.43,1094.73l-25.51-18.53-21.58-23.9-12.97-8.51-15.85-6.89-11.59-10.56-18.06-1.87-13.05-6.21"/>
    <path class="cls-3" d="M514.95,1039.7l-80.91,2.48"/>
    <path class="cls-3" d="M511.09,976.13l-76.67,4.89-2.05-63.96"/>
    <path class="cls-3" d="M518.41,1096.71l-81.49,2.63"/>
    <path class="cls-3" d="M592.44,1103.85l4.14,51.14"/>
    <path class="cls-3" d="M518.41,1096.71l6.31,63.35-33.58,6.72,3.09,33.98"/>
    <path class="cls-3" d="M770.77,1081.2l51.93-1.49"/>
    <path class="cls-3" d="M742.63,912.13l-1.85-22.81"/>
    <path class="cls-3" d="M704.36,847.96l59.23-3.33"/>
    <path class="cls-3" d="M691.91,667.34l96.93-4.24"/>
    <path class="cls-3" d="M695.44,771.34l49.62-2.58"/>
    <path class="cls-3" d="M687.37,527.95l6.18.26,76.68,3.25,6.6,68.76"/>
    <path class="cls-3" d="M511.56,755.2l-89.05,2.48"/>
    <path class="cls-3" d="M513.18,807.84l-87.44,2.15"/>
    <path class="cls-3" d="M419.89,715.36l2.62,42.31,3.24,52.32,2.32,37.61.73,11.84,3.57,57.62"/>
    <path class="cls-3" d="M428.07,847.6l-80.76,6.27"/>
    <path class="cls-3" d="M720.02,217.67l39.25-2.42,33.32-3.29,28.44-15.91,10.94-13.43"/>
    <path class="cls-3" d="M792.6,211.96l15.62,22.02,23.97,12.4,4.41,2.02"/>
    <path class="cls-3" d="M675.62,407.9l4.88,8.27,6.49,5.21,7.88,4.67,6.34,2.75"/>
    <path class="cls-3" d="M487.71,245.03l112.53,30.13,74.66,17.78"/>
    <path class="cls-3" d="M600.24,275.16l-15.68,68.4"/>
    <path class="cls-3" d="M710.37,372.23l-35.79-7.74-90.01-20.93-57.37-13.32"/>
    <path class="cls-6" d="M858.01,1035l9.52,3.96,9.55,2.7,9.84.31,119.06-16.7"/>
    <path class="cls-6" d="M344.97,1283.11l-.07-24.98-1.79-153.77-.13-23.12,1.52-35.55,1.83-129.9.98-61.91,2.33-147.35,5.49-157.02,12.67-118.61,9.07-92.74,12.17-107.33,23.89-206.95"/>
    <path class="cls-6" d="M718.17,101.1l-13.42,54.31-14.52,58.21-4.97,33.1-10.37,46.22"/>
    <path class="cls-6" d="M713.08,910.74l29.55,1.39,17.24.81,4.4,40.31,4.52,30.2.36,28.06.77,23.71-1.76,22.42,2.62,23.58-47.77,9.37,15.09,133.84"/>
    <path class="cls-6" d="M732,376.75l63.96,17.05,20.84,6.57,27.2,8.59,12.63,23.32-5.55,22.98-8.2,6.44-30.62-7.14-31.7-6.81-45.8-9.19-18.45-4.64"/>
    <path class="cls-6" d="M732,376.75l-15.69,57.16"/>
    <path class="cls-6" d="M735.26,308.19l14.71-49.02,86.49,23.8-19.66,117.4"/>
    <path class="cls-6" d="M718.71,1227.3l-15.29-132.57-110.98,9.12-1.04-11.61-6.58-73.98-3.25-36.41,11.15-62.39,54.54-3.96,59.05-4.28,6.77-.49"/>
    <path class="cls-6" d="M723,1090.57l-19.57,4.16"/>
    <path class="cls-6" d="M592.72,919.46l-85.16-1.28-75.2-1.13-86.03-1.27"/>
    <path class="cls-6" d="M507.56,918.19l3.52,57.94,3.86,63.57,3.46,57.01,72.99-4.47"/>
    <path class="cls-6" d="M745.31,107.33l-25.29,110.34-8.24,13.51-10.28,19.69-11.27,45.91"/>
    <path class="cls-6" d="M710.37,372.23l-9.15,56.57-2.47,15.29-.77,3.61-11.56,56.97.95,23.28.83,20.33,1.19,29.23,1.52,62.04.99,27.79.78,22.07-.06,54.78,2.82,27.16,4.95,47.95,3.97,28.67,4.89,35.24,3.82,27.53"/>
    <path class="cls-6" d="M732,376.75l-21.63-4.52"/>
    <path class="cls-6" d="M674.9,292.94l.5.12,14.83,3.71"/>
    <path class="cls-6" d="M690.22,296.77l45.04,11.43"/>
    <path class="cls-6" d="M735.26,308.19l14.54,26.22-17.81,42.34"/>
    <path class="cls-6" d="M716.31,433.91l-20.78,86.87-1.98,7.43-5.35,20.07"/>
    <path class="cls-5" d="M880.34,138.34l-.12,42.86,6.06,183.85,5.17,120.05,20.99,143.47,72.47,307.34,21.06,89.35"/>
    <path class="cls-5" d="M1005.97,1025.26l37.2,136.69"/>
    <path class="cls-5" d="M344.97,1283.11l69.81-13.13,226.65-29.06,77.28-13.62,19.38-2.89,109.29-16.32,195.78-46.14"/>
    <path class="cls-7" d="M412.93,23.87l223.04,58.54,82.2,18.69,27.14,6.23,135.03,31.01"/>
    <path class="cls-2" d="M727.18,102.87l223.04,58.54,82.2,18.69,27.14,6.23,135.03,31.01"/>
    <path class="cls-7" d="M724.98,102.36l223.04,58.54,82.2,18.69,27.14,6.23,135.03,31.01"/>
  </g>
  <g id="wenwu_building">
    <path class="cls-8" d="M418.65,249.99l-9.33,34.44,109.82,29.73,13.41-49.52-42.83-11.6-4.09,15.08-66.97-18.13Z"/>
    <text class="cls-16" transform="translate(443.06 288.35)"><tspan x="0" y="0">文武大楼</tspan></text>
  </g>
  <g id="yinli_building">
    <path class="cls-8" d="M521.65,212.01l-8.63,33.21,100.99,26.27,8.63-33.21-100.99-26.27Z"/>
    <text class="cls-16" transform="translate(540.27 244.79)"><tspan x="0" y="0">引力楼</tspan></text>
  </g>
  <g id="xingjian_building">
    <path class="cls-8" d="M607.57,309.03l-3.91,14.16,11.06,6.62-.83,2.94,110.64,29.01,1.32-4.13,11.75-.07,4.05-13.27-10.43-6.74.82-3.28-111.23-28.92-1.09,3.45-12.14.22Z"/>
    <text class="cls-16" transform="translate(652.45 341.05)"><tspan x="0" y="0">行健楼</tspan></text>
  </g>
  <g id="quishi_building">
    <path class="cls-8" d="M765.21,275.16l-5.43,21.04,15.52,4.01-14.47,56.11,49.21,12.71,16.85-65.3-3.13-.81,3.05-11.86-61.6-15.89Z"/>
    <text class="cls-16" transform="translate(771.83 322.09)"><tspan x="0" y="0">秋实楼</tspan></text>
  </g>
  <g id="keji_building">
    <path class="cls-8" d="M745.8,405.33l-4.23,15.91,9.55,6.44-.38,1.55,88.1,22,.4-1.51,10.68-.51,3.87-16.61-9.18-5.8.42-1.49-87.59-22.31-.35,1.51-11.31.83Z"/>
    <text class="cls-16" transform="translate(772.28 428.8)"><tspan x="0" y="0">科技楼</tspan></text>
  </g>
  <g id="wenhui_library">
    <path class="cls-8" d="M710.85,507.67l.13,5.81,4.69-.09.26,12.66,57.63-3.33,13.76,13.07,1.76,24.37,25.33-1.81-1.19-14.95,4.9-.68-2.46-47.56-37.75,2.08.12,4.08-58.49,2.25-.05,3.98-8.64.14Z"/>
    <text class="cls-16" transform="translate(738.49 520.7)"><tspan x="0" y="0">文荟图书馆</tspan></text>
  </g>
  <g id="shanghai_art_college">
    <path class="cls-8" d="M572.1,603.11l2.34,41.13,105.11-3.31-3.61-83.23-12.27.08-.14-20.98,11.85-.81-2.81-70.97-11.01.33-.85-4.9-17.23.5.44,14.01-12.18.51-.91,12.75-14.9,7.32,2.07,21.32,12.82,2.91,5.72,15.98-46.05,2.27.72,22.86,35.85-1.21-.37,15.27-8.12-.26-9.43,13.71,4.73,9.73-4.95,2.86-36.8,2.14Z"/>
    <path class="cls-8" d="M556.81,454.1l.79,23.73,86.23-2.92-.46-14.05,5.02-.17-.38-11.62-15.3.52.07,1.94-75.97,2.57Z"/>
    <text class="cls-16" transform="translate(581.65 631.29)"><tspan x="0" y="0">上海美术学院</tspan></text>
  </g>
  <g id="communication_center">
    <path class="cls-8" d="M586.46,679.22l3.58,90.92,75.16-2.96-3.56-90.9-75.17,2.94Z"/>
    <text class="cls-16" transform="translate(590.31 724.51)"><tspan x="0" y="0">交流展示中心</tspan></text>
  </g>
  <g id="north_building">
    <path class="cls-8" d="M599.87,862.72l.72,26.3,13.03-.36-.03-1.08,63.4-1.74.03,1.07,12.55-.34-.73-26.32-18.92.53.13,4.36-20.06.57-.12-4.38-11.5.32.12,4.38-20.34.56-.12-4.38-18.18.51Z"/>
    <text class="cls-16" transform="translate(618.78 882.34)"><tspan x="0" y="0">北大楼</tspan></text>
  </g>
  <g id="vancouver_film_college_2">
    <path class="cls-8" d="M516.56,948.18l.61,20.06,22.99-.69,2.85,94.13-16.1.49.1,3.38-6.45.21.52,17.37,62.88-1.91-.63-20.76-13.61.41-2.85-94.14,13.62-.43-.62-20.04-63.31,1.91Z"/>
    <text class="cls-16" transform="translate(518.41 1010.38)"><tspan x="0" y="0">温哥华</tspan><tspan x="0" y="18.41">电影学院</tspan></text>
  </g>
  <g id="vancouver_film_college">
    <path class="cls-8" d="M438.56,885.12l.34,8.44,3.57-.14.44,10.89,65.73-2.62-.77-19.35-69.3,2.78Z"/>
    <text class="cls-16" transform="translate(428.07 869.15)"><tspan x="0" y="0">温哥华</tspan><tspan x="0" y="18.41">电影学院</tspan></text>
  </g>
  <g id="_3rd_teaching_building" data-name="3rd_teaching_building">
    <polygon class="cls-15" points="439.25 940.36 439.89 981.02 499.17 979.02 497.29 940.36 439.25 940.36"/>
    <text class="cls-16" transform="translate(422.51 965.84)"><tspan x="0" y="0">第三教学楼</tspan></text>
  </g>
  <g id="_2nd_teaching_building" data-name="2nd_teaching_building">
    <path class="cls-8" d="M430.41,1003.02l.3,10.06,1.25-.04.23,7.83,4.53-.13.24,8.45,75.48-2.23-.79-27.06-38.43,1.13.14,4.98-10.08.29-.13-4.24-32.72.96Z"/>
    <text class="cls-16" transform="translate(428.07 1021.65)"><tspan x="0" y="0">第二教学楼</tspan></text>
  </g>
  <g id="hospital">
    <path class="cls-8" d="M439.25,1063.21l.96,27.71,44.88-1.55-.12-3.32,26.99-.92-.71-20.9-25.51.88-.12-3.51-46.36,1.61Z"/>
    <text class="cls-16" transform="translate(443.22 1080.54)"><tspan x="0" y="0">校医院</tspan></text>
  </g>
  <g id="xinyuan_building">
    <path class="cls-8" d="M437.13,1177.01l.66,17.94,17.45-.64,1.55,42.12,44.93-1.64-.64-17.56-27.1.99-.9-24.57,15.76-.58-.65-17.94-51.05,1.88Z"/>
    <text class="cls-16" transform="translate(454.4 1210.14)"><tspan x="0" y="0">莘远楼</tspan></text>
  </g>
  <g id="lehu_building">
    <path class="cls-8" d="M543.77,1172.34l.59,12.71,51.48-2.37-.59-12.71-51.48,2.37Z"/>
    <text class="cls-16" transform="translate(543.77 1163.9)"><tspan x="0" y="0">乐乎楼</tspan></text>
  </g>
  <g id="south_building">
    <path class="cls-8" d="M607.06,1134.39l.96,24.5,87.73-3.41-.96-24.49-87.73,3.41Z"/>
    <text class="cls-16" transform="translate(626.89 1151.03)"><tspan x="0" y="0">南大楼</tspan></text>
  </g>
  <g id="dianji_building">
    <path class="cls-8" d="M748.61,1129l1,20.86,105.43-5.05-1-20.86-105.44,5.05Z"/>
    <text class="cls-16" transform="translate(778.8 1143.59)"><tspan x="0" y="0">电机楼</tspan></text>
  </g>
  <g id="shanghai_film_college">
    <path class="cls-8" d="M783.97,941.66l1.03,27.11,3.99-.14,1.2,31.4-4,.16,1.18,30.63,4-.16.81,21.48-3.99.16,1.08,28.11,45.78-1.74-1.06-28.13-11.68.44-4.21-110.62-34.12,1.29Z"/>
    <text class="cls-16" transform="translate(788.3 1003.02)"><tspan x="0" y="0">上海电影学院</tspan></text>
  </g>
  <g id="news_communication_college">
    <path class="cls-8" d="M720.27,861.52l.92,24.24,84.56-3.2-.91-24.24-84.57,3.19Z"/>
    <text class="cls-16" transform="translate(732.1 874.63)"><tspan x="0" y="0">新传学院</tspan></text>
  </g>
  <text class="cls-17" transform="translate(84.37 146.26)"><tspan class="cls-19" x="0" y="0">延长校区</tspan><tspan x="168" y="0">地图</tspan></text>
</svg>