<?xml version="1.0" encoding="UTF-8"?>
<svg width="402px" height="874px" viewBox="0 0 402 874" version="1.1" xmlns="http://www.w3.org/2000/svg" xmlns:xlink="http://www.w3.org/1999/xlink">
    <title>校外-暂未上线</title>
    <defs>
        <path d="M79.4804412,-3.62733656e-15 L322.519559,7.25467311e-15 C350.15664,-4.215174e-15 360.178513,2.87759395 370.282217,8.28111382 C380.385921,13.6846337 388.315366,21.6140795 393.718886,31.7177832 C399.122406,41.8214869 402,51.8433603 402,79.4804412 L402,794.519559 C402,822.15664 399.122406,832.178513 393.718886,842.282217 C388.315366,852.385921 380.385921,860.315366 370.282217,865.718886 C360.178513,871.122406 350.15664,874 322.519559,874 L79.4804412,874 C51.8433603,874 41.8214869,871.122406 31.7177832,865.718886 C21.6140795,860.315366 13.6846337,852.385921 8.28111382,842.282217 C2.87759395,832.178513 0,822.15664 0,794.519559 L3.62733656e-15,79.4804412 C-2.107587e-15,51.8433603 2.87759395,41.8214869 8.28111382,31.7177832 C13.6846337,21.6140795 21.6140795,13.6846337 31.7177832,8.28111382 C41.8214869,2.87759395 51.8433603,2.107587e-15 79.4804412,-3.62733656e-15 Z" id="path-1"></path>
    </defs>
    <g id="校外-暂未上线" stroke="none" fill="none" xlink:href="#path-1">
        <path stroke="#979797" stroke-width="1" d="M370.046417,8.72202042 C380.062987,14.0789404 387.92106,21.9370132 393.27798,31.9535826 C399.374868,43.3537735 401.5,54.3586082 401.5,79.4804412 L401.5,794.519559 C401.5,819.641392 399.374868,830.646226 393.27798,842.046417 C387.92106,852.062987 380.062987,859.92106 370.046417,865.27798 C358.646226,871.374868 347.641392,873.5 322.519559,873.5 L79.4804412,873.5 C54.3586082,873.5 43.3537735,871.374868 31.9535826,865.27798 C21.9370132,859.92106 14.0789404,852.062987 8.72202042,842.046417 C2.6251316,830.646226 0.5,819.641392 0.5,794.519559 L0.5,79.4804412 C0.5,54.3586082 2.6251316,43.3537735 8.72202042,31.9535826 C14.0789404,21.9370132 21.9370132,14.0789404 31.9535826,8.72202042 C43.3537735,2.6251316 54.3586082,0.5 79.4804412,0.5 L322.519559,0.5 C347.641392,0.5 358.646226,2.6251316 370.046417,8.72202042 Z" stroke-linejoin="square" fill="#FFFFFF" fill-rule="evenodd"></path>
        <g id="Status-Bar">
            <g id="Contents---Trailing" transform="translate(269.75, 19)" fill-rule="evenodd" stroke-width="1">
                <g id="Center">
                    <rect id="Rectangle" x="102" y="0" width="6" height="26"></rect>
                    <g id="Battery" transform="translate(69, 7)">
                        <path d="M22.431852,0.947218678 L22.5643838,1.01524196 C23.1779904,1.3434023 23.6565628,1.82197473 23.9847232,2.43558126 C24.3623857,3.14174873 24.4999651,3.84022214 24.4999651,5.4141136 L24.4999651,7.5858864 C24.4999651,9.15977786 24.3623857,9.85825127 23.9847232,10.5644187 C23.6565628,11.1780253 23.1779904,11.6565977 22.5643838,11.9847581 C21.8582164,12.3624206 21.159743,12.5 19.5858515,12.5 L5.4141136,12.5 C3.84022214,12.5 3.14174873,12.3624206 2.43558126,11.9847581 C1.82197473,11.6565977 1.3434023,11.1780253 1.01524194,10.5644187 C0.637579442,9.85825127 0.5,9.15977786 0.5,7.5858864 L0.5,5.4141136 C0.5,3.84022214 0.637579442,3.14174873 1.01524194,2.43558126 C1.3434023,1.82197473 1.82197473,1.3434023 2.43558126,1.01524194 C3.14174873,0.637579442 3.84022214,0.5 5.4141136,0.5 L19.5858515,0.5 C21.0613747,0.5 21.7674876,0.620919432 22.431852,0.947218678 Z" id="Border" stroke="#000000" opacity="0.35"></path>
                        <path d="M26,4.66666667 L26,8.66666667 C26.80473,8.32789015 27.3280362,7.53979995 27.3280362,6.66666667 C27.3280362,5.79353339 26.80473,5.00544318 26,4.66666667" id="Cap" fill="#000000" fill-rule="nonzero" opacity="0.4"></path>
                        <path d="M5.2048565,2 L19.7951142,2 C20.9095126,2 21.3136204,2.11603201 21.7210278,2.33391588 C22.1284352,2.55179975 22.4481709,2.87153546 22.6660548,3.27894287 C22.8839387,3.68635028 22.9999707,4.09045808 22.9999707,5.2048565 L22.9999707,7.7951435 C22.9999707,8.90954192 22.8839387,9.31364972 22.6660548,9.72105713 C22.4481709,10.1284645 22.1284352,10.4482003 21.7210278,10.6660841 C21.3136204,10.883968 20.9095126,11 19.7951142,11 L5.2048565,11 C4.09045808,11 3.68635028,10.883968 3.27894287,10.6660841 C2.87153546,10.4482003 2.55179975,10.1284645 2.33391588,9.72105713 C2.11603201,9.31364972 2,8.90954192 2,7.7951435 L2,5.2048565 C2,4.09045808 2.11603201,3.68635028 2.33391588,3.27894287 C2.55179975,2.87153546 2.87153546,2.55179975 3.27894287,2.33391588 C3.68635028,2.11603201 4.09045808,2 5.2048565,2 Z" id="Capacity" fill="#000000" fill-rule="nonzero"></path>
                    </g>
                    <path d="M53.3591766,9.62060942 C55.8463341,9.62071261 58.2383855,10.5257199 60.0409295,12.1485798 C60.1766658,12.2738707 60.3936256,12.2722903 60.5273105,12.1450368 L61.8248254,10.9049672 C61.8925163,10.8404246 61.9302564,10.7529979 61.9297009,10.6620331 C61.929133,10.5710684 61.8903156,10.4840656 61.8218323,10.4202771 C57.0907317,6.12657428 49.6268732,6.12657428 44.8957725,10.4202771 C44.8272393,10.4840183 44.7883543,10.5709946 44.7877146,10.6619595 C44.7870904,10.7529244 44.8247636,10.8403777 44.8924053,10.9049672 L46.1902943,12.1450368 C46.323894,12.2724823 46.5410212,12.274064 46.6766754,12.1485798 C48.4794489,10.5256134 50.8717751,9.62060348 53.3591766,9.62060942 L53.3591766,9.62060942 Z M53.3573913,13.7627299 C54.7147359,13.7626471 56.0236422,14.2649101 57.0297794,15.1719252 C57.1658642,15.3006513 57.3802334,15.2978605 57.5128905,15.1656358 L58.800196,13.8707595 C58.8679885,13.8028396 58.9056037,13.7107003 58.9046445,13.6149555 C58.9036481,13.5192108 58.8641589,13.4278519 58.7949932,13.3613182 C55.7311036,10.524005 50.9862803,10.524005 47.9223906,13.3613182 C47.8531819,13.4278511 47.8136952,13.5192558 47.812771,13.6150315 C47.8118787,13.7108071 47.8496249,13.8029377 47.9175595,13.8707595 L49.2044934,15.1656358 C49.3371505,15.2978605 49.5515196,15.3006513 49.6876045,15.1719252 C50.6930766,14.2655094 52.0009438,13.7632894 53.3573913,13.7627299 L53.3573913,13.7627299 Z M55.7770809,16.7800753 C55.84438,16.7076346 55.881442,16.6079465 55.8795166,16.5045473 C55.8775912,16.4011481 55.8368491,16.3032027 55.7669094,16.2338361 C54.3767843,14.9442768 52.3408203,14.9442768 50.9506952,16.2338361 C50.880707,16.303147 50.8398982,16.4010615 50.837904,16.5044612 C50.8359098,16.6078609 50.8729071,16.7075806 50.9401604,16.7800753 L53.1172287,19.1893446 C53.181037,19.2601513 53.2680314,19.3 53.3588023,19.3 C53.4495732,19.3 53.5365676,19.2601513 53.6003759,19.1893446 L55.7770809,16.7800753 Z" id="Wifi" fill="#000000" fill-rule="nonzero"></path>
                    <path d="M19.1543736,14.5 L20.2210403,14.5 C20.810144,14.5 21.2877069,15.0148725 21.2877069,15.65 L21.2877069,17.95 C21.2877069,18.5851275 20.810144,19.1 20.2210403,19.1 L19.1543736,19.1 C18.5652699,19.1 18.0877069,18.5851275 18.0877069,17.95 L18.0877069,15.65 C18.0877069,15.0148725 18.5652699,14.5 19.1543736,14.5 L19.1543736,14.5 Z M24.4543736,12.1 L25.5210403,12.1 C26.110144,12.1 26.5877069,12.6223345 26.5877069,13.2666667 L26.5877069,17.9333333 C26.5877069,18.5776655 26.110144,19.1 25.5210403,19.1 L24.4543736,19.1 C23.8652699,19.1 23.3877069,18.5776655 23.3877069,17.9333333 L23.3877069,13.2666667 C23.3877069,12.6223345 23.8652699,12.1 24.4543736,12.1 Z M29.8543736,9.5 L30.9210403,9.5 C31.510144,9.5 31.9877069,10.015768 31.9877069,10.652 L31.9877069,17.948 C31.9877069,18.584232 31.510144,19.1 30.9210403,19.1 L29.8543736,19.1 C29.2652699,19.1 28.7877069,18.584232 28.7877069,17.948 L28.7877069,10.652 C28.7877069,10.015768 29.2652699,9.5 29.8543736,9.5 Z M36.2210403,7.1 C36.810144,7.1 37.2877069,7.60367966 37.2877069,8.225 L37.2877069,17.975 C37.2877069,18.5963203 36.810144,19.1 36.2210403,19.1 L35.1543736,19.1 C34.5652699,19.1 34.0877069,18.5963203 34.0877069,17.975 L34.0877069,8.225 C34.0877069,7.60367966 34.5652699,7.1 35.1543736,7.1 L36.2210403,7.1 Z" id="Cellular-Connection" fill="#000000" fill-rule="nonzero"></path>
                    <rect id="Rectangle" x="0" y="0" width="6" height="26"></rect>
                </g>
            </g>
            <g id="Contents---Leading" transform="translate(18, 19)">
                <rect id="Rectangle" x="110.805556" y="0" width="6" height="26"></rect>
                <g id="Center" stroke-width="1" fill-rule="evenodd" transform="translate(13.3889, 2)" fill="#000000" font-family="SFPro-Semibold, SF Pro" font-size="17" font-weight="500" line-spacing="22">
                    <text id="Time">
                        <tspan x="25.0310167" y="16">9:41</tspan>
                    </text>
                </g>
                <rect id="Rectangle" x="3.69444444" y="0" width="6" height="26"></rect>
            </g>
            <path d="M241.789447,51 C244.467293,51 247.097945,51.0103674 249.748729,50.3591695 C252.36387,49.7170534 254.778024,48.5034573 256.86413,46.7701811 C261.065054,43.2790742 263.5,38.0187003 263.5,32.5 C263.5,26.9812997 261.065384,21.7212621 256.86413,18.2301552 C254.778684,16.4972154 252.36519,15.2836193 249.750379,14.6411668 C247.098936,13.9896326 244.467953,14 241.789447,14 L160.210223,14 C157.532047,14 154.901725,13.9896326 152.250941,14.6408305 C149.6358,15.2829466 147.221646,16.4965427 145.13587,18.2298189 C140.934946,21.7209258 138.5,26.9812997 138.5,32.5 C138.5,38.018364 140.934946,43.2790742 145.13554,46.7698448 C147.220986,48.5027846 149.63448,49.7163807 152.249291,50.3588332 C154.900734,51.0103674 157.531717,51 160.210223,51 L241.789447,51 Z" id="Dynamic-Island" fill="#000000" fill-rule="evenodd"></path>
        </g>
        <text id="功能还在更新当中，-以后再来吧！-苟日新" font-family="PingFangSC-Medium, PingFang SC" font-size="32" font-weight="400">
            <tspan x="59" y="388" fill="#0F172A">功能还在更新当中，</tspan>
            <tspan x="59" y="433" fill="#0F172A">以后再来吧！</tspan>
            <tspan x="59" y="478" fill="#0F172A"></tspan>
            <tspan x="59" y="523" fill="#0F172A"></tspan>
            <tspan x="59" y="568" fill="#0F172A"></tspan>
            <tspan x="59" y="613" font-family="PingFangSC-Light, PingFang SC" font-size="29" font-weight="300" fill="#6F7C8E">苟日新，</tspan>
            <tspan x="59" y="654" font-family="PingFangSC-Light, PingFang SC" font-size="29" font-weight="300" fill="#6F7C8E">日日新，</tspan>
            <tspan x="59" y="695" font-family="PingFangSC-Light, PingFang SC" font-size="29" font-weight="300" fill="#6F7C8E">又日新。</tspan>
        </text>
        <rect id="矩形-4" stroke="#BFBFBF" stroke-width="1" fill="#FFFFFF" fill-rule="evenodd" x="0.5" y="784.5" width="405" height="56"></rect>
        <g id="编组" stroke-width="1" fill-rule="evenodd" transform="translate(318.5299, 797)" stroke="#6F7C8E">
            <g stroke-width="1.3">
                <path d="M2.64616925,18.5333333 L12.2461163,18.5333333 C12.9435353,18.4290351 13.4456307,18.258383 13.7524025,18.0213769 C14.4210317,17.5048068 15.1045617,16.4875195 15.1045617,15.7150527 C15.1045617,13.7589226 14.4130544,10.9734493 13.7524025,10.3621211 C13.0917507,9.75079289 12.4311739,9.19997441 11.6536317,9.19997441 C10.8760895,9.19997441 10.5161844,9.22765996 10.3630333,9.46666667 C10.2098822,9.70567337 8.24091445,10.6036344 7.66389512,10.6036344 C7.08687579,10.6036344 5.26828143,9.86971022 4.83210106,9.61851237 C4.39592069,9.36731452 3.66852799,8.90994648 2.64616925,9.46666667 C2.221423,9.69796005 1.55804734,9.94901342 1.11458307,10.6036344 C0.49063456,11.5246776 0.145376773,12.9120153 0.145376773,13.2641845 C0.145376773,13.8666539 -0.181720967,16.0239825 0.145376773,16.6987483 C0.472474513,17.3735141 1.66545044,18.3056693 1.85331195,18.3634408 C1.97855296,18.4019551 2.24283872,18.4585859 2.64616925,18.5333333 Z" id="路径"></path>
                <circle id="椭圆形-2" fill="#FFFFFF" cx="7.61180503" cy="5" r="3.35"></circle>
            </g>
        </g>
        <text id="地图" font-family="PingFangSC-Medium, PingFang SC" font-size="8" font-weight="400" fill="#6F7C8E">
            <tspan x="74.1295547" y="826.666667">地图</tspan>
        </text>
        <text id="校车" font-family="PingFangSC-Medium, PingFang SC" font-size="8" font-weight="400" fill="#6F7C8E">
            <tspan x="158.246964" y="826.666667">校车</tspan>
        </text>
        <text id="校外" font-family="PingFangSC-Medium, PingFang SC" font-size="8" font-weight="400" fill="#1E80C1">
            <tspan x="239.17004" y="826.666667">校外</tspan>
        </text>
        <text id="我的" font-family="PingFangSC-Medium, PingFang SC" font-size="8" font-weight="400" fill="#6F7C8E">
            <tspan x="317.898785" y="826.666667">我的</tspan>
        </text>
        <g id="编组" stroke-width="1" fill-rule="evenodd" transform="translate(109, 850.0921)">
            <g transform="translate(163.2641, -3.3628)">
                <g transform="translate(-37.1417, -49.7294)">
                    <path d="M3.72238679,15.8748758 L3.72238679,16.3900521 C3.72238679,16.7031306 3.73775996,16.9741503 3.76850631,17.2031113 C3.79077145,17.3689147 4.09562572,17.9879723 4.30754574,18.1638945 C4.43032826,18.2658205 4.58647834,18.4042878 4.81518269,18.5227468 C5.01167063,18.6245191 5.28029518,18.7149941 5.41399078,18.7149941 C6.10834463,18.7149941 6.48419092,18.7149941 6.54152963,18.7149941 L6.54152963,17.7319434 L5.49652557,17.7319434 C4.95482408,17.5629681 4.68397333,17.1897082 4.68397333,16.6121638 C4.68397333,16.0346194 4.68397333,15.7888568 4.68397333,15.8748758 L3.72238679,15.8748758 Z" id="路径" fill="#1E80C1"></path>
                    <path d="M16.3397028,15.8748758 L16.3397028,16.3900521 C16.3397028,16.7031306 16.3550759,16.9741503 16.3858223,17.2031113 C16.4080874,17.3689147 16.7129417,17.9879723 16.9248617,18.1638945 C17.0476442,18.2658205 17.2037943,18.4042878 17.4324987,18.5227468 C17.6289866,18.6245191 17.8976112,18.7149941 18.0313067,18.7149941 C18.7256606,18.7149941 19.1015069,18.7149941 19.1588456,18.7149941 L19.1588456,17.7319434 L18.1138415,17.7319434 C17.57214,17.5629681 17.3012893,17.1897082 17.3012893,16.6121638 C17.3012893,16.0346194 17.3012893,15.7888568 17.3012893,15.8748758 L16.3397028,15.8748758 Z" id="路径" fill="#1E80C1" transform="translate(17.7493, 17.2866) scale(-1, 1) translate(-17.7493, -17.2866)"></path>
                    <path d="M16.3397028,4.02756175 L16.3397028,4.54273799 C16.3397028,4.85581648 16.3550759,5.12683624 16.3858223,5.35579724 C16.4080874,5.5216006 16.7129417,6.14065823 16.9248617,6.31658038 C17.0476442,6.41850639 17.2037943,6.5569737 17.4324987,6.67543272 C17.6289866,6.77720503 17.8976112,6.86767998 18.0313067,6.86767998 C18.7256606,6.86767998 19.1015069,6.86767998 19.1588456,6.86767998 L19.1588456,5.88462933 L18.1138415,5.88462933 C17.57214,5.71565402 17.3012893,5.34239415 17.3012893,4.76484974 C17.3012893,4.18730533 17.3012893,3.94154266 17.3012893,4.02756175 L16.3397028,4.02756175 Z" id="路径" fill="#1E80C1" transform="translate(17.7493, 5.4393) scale(-1, -1) translate(-17.7493, -5.4393)"></path>
                    <path d="M3.72238679,4.02756175 L3.72238679,4.54273799 C3.72238679,4.85581648 3.73775996,5.12683624 3.76850631,5.35579724 C3.79077145,5.5216006 4.09562572,6.14065823 4.30754574,6.31658038 C4.43032826,6.41850639 4.58647834,6.5569737 4.81518269,6.67543272 C5.01167063,6.77720503 5.28029518,6.86767998 5.41399078,6.86767998 C6.10834463,6.86767998 6.48419092,6.86767998 6.54152963,6.86767998 L6.54152963,5.88462933 L5.49652557,5.88462933 C4.95482408,5.71565402 4.68397333,5.34239415 4.68397333,4.76484974 C4.68397333,4.18730533 4.68397333,3.94154266 4.68397333,4.02756175 L3.72238679,4.02756175 Z" id="路径" fill="#1E80C1" transform="translate(5.132, 5.4393) scale(1, -1) translate(-5.132, -5.4393)"></path>
                    <path d="M9.27041122,4.78895673 L11.3666324,7.07742032 L13.6982569,4.49195023 C13.8231339,4.18151637 13.8883037,3.9428512 13.8937663,3.77595474 C13.9148519,3.13173932 13.6645583,2.57484126 13.3183352,2.3780289 C12.5971851,1.96808724 12.224952,1.99409487 11.8820431,2.12416094 C11.6534371,2.21087166 11.4816335,2.29549431 11.3666324,2.3780289 C10.9991114,2.09050677 10.6554777,1.96699785 10.3357311,2.00750212 C9.85611118,2.06825854 9.23391477,2.33348036 8.99487509,3.03845472 C8.88944234,3.34939636 8.81088971,3.72899898 8.86642432,4.06629316 C8.88536098,4.18130659 8.95268953,4.33877892 9.06840996,4.53871016 L9.27041122,4.78895673 Z" id="路径" stroke="#1E80C1"></path>
                    <g transform="translate(8.9528, 14.0763)" fill="#FFFFFF" stroke="#1E80C1">
                        <path d="M0.884171399,5.92365704 L4.09182662,5.92365704 C4.32485703,5.88201707 4.49262347,5.81388599 4.59512595,5.7192638 C4.81853677,5.51302857 5.04692639,5.10688726 5.04692639,4.79848796 C5.04692639,4.01752349 4.81587126,2.90545237 4.59512595,2.66138599 C4.37438063,2.4173196 4.1536604,2.19741109 3.89385821,2.19741109 C3.63405602,2.19741109 3.51379999,2.20846425 3.46262721,2.30388518 C3.41145444,2.39930611 2.75355814,2.75780765 2.56075717,2.75780765 C2.3679562,2.75780765 1.76030455,2.46479611 1.61456247,2.36450799 C1.46882039,2.26421988 1.22577478,2.08162047 0.884171399,2.30388518 C0.742249831,2.39622665 0.520594403,2.49645708 0.372418533,2.75780765 C0.163936999,3.12552452 0.0485751186,3.6794046 0.0485751186,3.82000446 C0.0485751186,4.06053406 -0.0607188982,4.92182496 0.0485751186,5.19121814 C0.157869135,5.46061132 0.55648128,5.83276457 0.619251933,5.85582922 C0.661099036,5.87120566 0.749405524,5.89381493 0.884171399,5.92365704 Z" id="路径" stroke-width="0.7"></path>
                        <ellipse id="椭圆形-2" stroke-width="0.6" cx="2.4859496" cy="0.56" rx="1.26115845" ry="1.26"></ellipse>
                    </g>
                    <path d="M2.2300431,11.8893896 C2.07668103,12.1095033 2,12.2728913 2,12.3795537 C2,12.5395472 2.06989431,12.7440307 2.31998968,12.7440307 C2.48671993,12.7440307 4.15526686,12.7440307 7.32563047,12.7440307 C7.61803792,12.6666153 7.74064184,12.5241751 7.69344222,12.3167102 C7.62264278,12.0055127 7.55355672,11.8893896 7.4395936,11.8893896 C7.36361818,11.8893896 5.62710134,11.8893896 2.2300431,11.8893896 Z" id="路径" fill="#1E80C1"></path>
                    <path d="M2.37006264,12.8252665 C2.39144511,13.1575495 2.42652351,13.3766953 2.47529785,13.482704 C2.62308778,13.8039181 2.89966122,13.9022026 3.15722006,13.9022026 C3.54228009,13.9022026 4.63948293,13.9022026 6.44882857,13.9022026 C6.9026994,13.8058916 7.18081301,13.6527645 7.2831694,13.4428214 C7.38552579,13.2328783 7.42916416,13.0270267 7.41408452,12.8252665 L2.37006264,12.8252665 Z" id="路径" fill="#1E80C1"></path>
                    <path d="M2.37006264,11.2832186 L2.37006264,12.1456813 C2.43207972,12.2896703 2.55031502,12.3256675 2.72476854,12.253673 C2.98644881,12.1456813 3.1021439,12.1685651 3.1021439,12.4316329 C3.1021439,12.6070114 3.1021439,12.7544595 3.1021439,12.873977 C3.13006057,13.0432635 3.21990452,13.1279068 3.37167574,13.1279068 C3.59933258,13.1279068 3.60283499,12.8767649 3.60283499,12.7661015 C3.60283499,12.6923258 3.60283499,12.5441937 3.60283499,12.3217051 C3.81054219,12.3483449 3.93578232,12.3256675 3.97855537,12.253673 C4.04271496,12.1456813 4.24356868,12.1247334 4.54232838,12.3217051 C4.84108808,12.5186768 5.12353648,12.4231144 5.27394779,12.2055627 C5.42435911,11.988011 5.74600377,12.2117773 5.85250022,12.3217051 C5.95899666,12.4316329 6.4015323,12.4164544 6.52380885,12.2055627 C6.64608539,11.9946709 6.83740951,12.1856409 6.93339871,12.253673 C7.02938792,12.3217051 7.47865897,12.2485232 7.36800582,11.8284434 C7.29423705,11.5483902 7.27143929,11.3666486 7.29961254,11.2832186 L2.37006264,11.2832186 Z" id="路径" stroke="#D7E8F3" stroke-width="0.6" fill="#D7E8F3"></path>
                    <path d="M3.24338614,9.34567233 C2.46549657,9.96392324 2.02759918,10.3580653 1.92969397,10.5280984 C1.78283615,10.7831482 1.92969397,11.2093433 2.58654006,11.2093433 C3.02443745,11.2093433 4.58771177,11.2093433 7.27636302,11.2093433 C7.94068254,11.0387035 8.05449192,10.7280916 7.61779114,10.2775078 C6.96273999,9.60163209 5.97840096,8.99892263 5.26578153,8.99892263 C4.55316211,8.99892263 4.21290885,8.96952857 3.7281475,9.15760045" id="路径" fill="#1E80C1"></path>
                    <polygon id="路径" stroke="#1E80C1" fill="#FFFFFF" points="16.3300081 8.76989376 16.3300081 14.5592378 20 14.5592378 20 8.76989376"></polygon>
                    <ellipse id="椭圆形-3" fill="#1E80C1" cx="18.2995585" cy="10.2682777" rx="1" ry="1"></ellipse>
                </g>
            </g>
        </g>
        <rect id="矩形-6" fill="#FFFFFF" fill-rule="evenodd" x="-4" y="841" width="408" height="33"></rect>
        <g id="编组" stroke-width="1" fill-rule="evenodd" transform="translate(72, 800.0921)">
            <path d="M6.6248155,0.270926611 L0.777729495,2.59297474 C0.259243165,2.72267728 0,3.02407428 0,3.49716573 C0,3.97025719 0,6.51470502 0,11.1305092 L0,14.8499434 C-0.00273836229,15.9116216 0.336814348,16.2887396 1.01865813,15.9812976 C1.70050191,15.6738555 3.81497874,14.7954852 7.36208861,13.3461866 L13.4761645,15.8447582 C13.8071133,15.9858511 14.1479564,15.9858511 14.498694,15.8447582 C14.8494315,15.7036654 16.9007367,14.8708082 20.6526097,13.3461866 C21.0813488,13.3337465 21.2957184,12.9613569 21.2957184,12.2290178 C21.2957184,11.4966788 21.2957184,8.97831841 21.2957184,4.67393677 C21.1184166,4.30070742 20.9691082,4.09179762 20.8477933,4.04720738 C20.4297452,3.89355047 20.0039132,4.28339582 20.0039132,4.67393677 C20.0039132,5.2344764 20.0039132,7.75283675 20.0039132,12.2290178 L14.6878151,14.3058856 L14.6878151,7.5782291 C14.6141717,6.96362488 14.3938191,6.65632277 14.0267573,6.65632277 C13.4761645,6.65632277 13.3048375,7.08550642 13.3048375,7.5782291 C13.3048375,7.90671089 13.3048375,10.1492631 13.3048375,14.3058856 L7.99684896,12.2290178 L7.99684896,1.64177905 L11.2093882,2.89177349 C11.5936143,2.89864967 11.8224965,2.79905008 11.8960348,2.59297474 C12.0063423,2.28386173 12.2207222,2.03017805 11.4343337,1.64177905 C10.9100747,1.38284638 9.81909836,0.925895565 8.16140479,0.270926611 C7.80966998,0.0903088704 7.54323125,0 7.36208861,0 C7.18094597,0 6.93518827,0.0903088704 6.6248155,0.270926611 Z" id="路径" fill="#6F7C8E"></path>
            <polygon id="路径" stroke="#979797" stroke-width="0.1" fill="#FFFFFF" points="1.33225903 3.78887835 1.33225903 14.3568271 6.66835587 12.2169714 6.66835587 1.66445468"></polygon>
            <path d="M18.2200792,-1.92499619 C18.2200792,-0.970652638 17.4104883,-0.197529219 16.4111292,-0.197529219 C15.4124178,-0.197529219 14.6021792,-0.970652638 14.6021792,-1.92499619 C14.6021792,-2.87933973 15.4124178,-3.65246315 16.4111292,-3.65246315 C17.4104883,-3.65246315 18.2200792,-2.87933973 18.2200792,-1.92499619 Z" id="Stroke-1" stroke="#6F7C8E" stroke-width="1.5"></path>
            <path d="M20.7043117,-2.3405209 C20.6576497,-3.12203566 20.6330579,-3.78875253 19.3692231,-5.08137365 C18.7052359,-5.76048453 17.4109941,-6.09211863 16.5996455,-6.09211863 C14.3250188,-6.09150013 12.7412622,-4.92884867 12.2593937,-3.17602325 C12.1233824,-2.68184276 12.0193251,-1.49878871 13.4066401,0.906552872 C14.3723202,2.58144745 15.738262,4.35901281 16.411194,5.29913089 C18.0005829,2.92718824 19.1100463,1.41434033 19.8458026,0.0282846687 C20.1119961,-0.472699307 20.7470581,-1.62368087 20.7043117,-2.3405209 Z" id="Stroke-3" stroke="#6F7C8E" stroke-width="1.5"></path>
        </g>
        <g id="编组" stroke-width="1" fill-rule="evenodd" transform="translate(151, 799.8928)">
            <path d="M0,7.69274586 L0,11.8156829 C0.506700586,13.25282 1.25742757,13.9713886 2.25218096,13.9713886 C3.24693435,13.9713886 12.1166564,13.9713886 28.8613471,13.9713886 C29.8420301,13.9304902 30.3323716,13.4357796 30.3323716,12.4872567 C30.3323716,11.5387339 30.3323716,9.35114465 30.3323716,5.92448906 L30.4761149,5.92448906 L30.9464489,6.96915919 C31.1335635,7.26675081 31.3303799,7.37701553 31.536898,7.29995336 C31.8466752,7.18436009 32.1253728,7.01807138 31.8311354,6.39081075 C31.6349772,5.972637 31.4921043,5.62488067 31.4025169,5.34754176 C31.1546017,5.03937797 30.9142654,4.88529608 30.6815079,4.88529608 C30.4487504,4.88529608 30.2498111,4.88529608 30.08469,4.88529608 C28.9043437,1.62843203 26.7064159,0 23.4909064,0 C20.2753969,0 13.2989136,0 2.56145653,0 C0.853818845,0.217854556 0,1.05711047 0,2.51776774 C0,3.97842501 0,5.70341771 0,7.69274586 Z" id="路径" fill="#6F7C8E"></path>
            <path d="M1.10154229,2.40504043 L27.3121076,2.40504043 C26.2618117,1.4455207 24.5159819,0.965760836 22.0746183,0.965760836 C19.6332546,0.965760836 13.3456392,0.965760836 3.21177213,0.965760836 C2.10891263,0.973318565 1.45261038,1.25318382 1.2428654,1.80535659 C1.03312042,2.35752937 0.986012714,2.55742398 1.10154229,2.40504043 Z" id="路径" fill="#FFFFFF"></path>
            <polygon id="路径" fill="#FFFFFF" points="1.03999237 3.50995916 1.03999237 6.64186786 4.99872296 6.64186786 4.99872296 3.50995916"></polygon>
            <polygon id="路径" fill="#FFFFFF" points="6.1379694 3.50995916 6.1379694 6.76102763 10.9373507 6.76102763 10.9373507 3.50995916"></polygon>
            <polygon id="路径" fill="#FFFFFF" points="11.9913829 3.50995916 11.9913829 6.64186786 16.9243811 6.64186786 16.9243811 3.50995916"></polygon>
            <polygon id="路径" fill="#FFFFFF" points="17.988285 3.50995916 17.988285 6.72504406 22.8388712 6.64186786 22.8388712 3.50995916"></polygon>
            <path d="M23.9579286,3.50995916 L23.9579286,6.64186786 L25.050683,6.64186786 L27.7777924,9.40018422 L29.2473875,9.62875955 L29.2473875,6.35100591 C29.1227571,5.57658169 29.0060386,5.02226477 28.8972319,4.68805513 C28.7884253,4.35384549 28.6077219,3.99460413 28.3551218,3.61033106 L23.9579286,3.50995916 Z" id="路径" fill="#FFFFFF"></path>
            <path d="M1.03999237,7.78524309 L1.03999237,11.0929528 C1.27351285,12.3295077 1.9916814,12.9477851 3.19449803,12.9477851 C4.39731465,12.9477851 12.9813006,12.9477851 28.9464559,12.9477851 C29.1470769,12.779604 29.2473875,12.5386613 29.2473875,12.224957 C29.2473875,11.9112527 29.2473875,11.4290795 29.2473875,10.7784374 L27.3121076,10.3665141 L24.6120775,7.78524309 L1.03999237,7.78524309 Z" id="路径" fill="#FFFFFF"></path>
            <circle id="椭圆形" stroke="#6F7C8E" fill="#FFFFFF" cx="8.1417004" cy="13.1072148" r="2.5"></circle>
            <circle id="椭圆形" stroke="#6F7C8E" fill="#FFFFFF" cx="23.1417004" cy="13.1072148" r="2.5"></circle>
        </g>
    </g>
</svg>